<svg xmlns="http://www.w3.org/2000/svg" width="960" height="420" viewBox="0 0 960 420">
<rect width="100%" height="100%" fill="#ffffff"/>
<text x="70" y="28" font-family="Arial, sans-serif" font-size="20" font-weight="700" fill="#111827">每日装备损耗与趋势</text>
<text x="20" y="210.0" transform="rotate(-90 20 210.0)" font-family="Arial, sans-serif" font-size="12" fill="#374151">daily losses</text>
<line x1="70" y1="50.0" x2="930" y2="50.0" stroke="#E5E7EB"/>
<text x="62" y="54.0" text-anchor="end" font-family="Arial" font-size="11" fill="#6B7280">4206</text>
<line x1="70" y1="128.8" x2="930" y2="128.8" stroke="#E5E7EB"/>
<text x="62" y="132.8" text-anchor="end" font-family="Arial" font-size="11" fill="#6B7280">3155</text>
<line x1="70" y1="207.5" x2="930" y2="207.5" stroke="#E5E7EB"/>
<text x="62" y="211.5" text-anchor="end" font-family="Arial" font-size="11" fill="#6B7280">2103</text>
<line x1="70" y1="286.2" x2="930" y2="286.2" stroke="#E5E7EB"/>
<text x="62" y="290.2" text-anchor="end" font-family="Arial" font-size="11" fill="#6B7280">1052</text>
<line x1="70" y1="365.0" x2="930" y2="365.0" stroke="#E5E7EB"/>
<text x="62" y="369.0" text-anchor="end" font-family="Arial" font-size="11" fill="#6B7280">0</text>
<line x1="70" y1="365" x2="930" y2="365" stroke="#9CA3AF"/>
<line x1="70" y1="50" x2="70" y2="365" stroke="#9CA3AF"/>
<polyline points="70.0,303.0 70.6,340.7 71.1,364.6 71.7,340.8 72.2,357.5 72.8,356.9 73.3,359.6 73.9,354.4 74.4,362.1 75.0,356.5 75.5,360.4 76.1,357.7 76.6,360.6 77.2,357.4 77.7,355.6 78.3,358.0 78.8,359.5 79.4,359.4 79.9,359.0 80.5,336.4 81.0,355.0 81.6,361.2 82.1,358.1 82.7,358.4 83.2,356.2 83.8,357.4 84.4,360.1 84.9,358.3 85.5,353.8 86.0,358.5 86.6,361.0 87.1,360.2 87.7,359.9 88.2,361.5 88.8,361.2 89.3,360.2 89.9,360.7 90.4,357.9 91.0,360.9 91.5,357.4 92.1,363.8 92.6,358.0 93.2,364.5 93.7,363.9 94.3,360.3 94.8,362.4 95.4,359.8 95.9,359.5 96.5,361.6 97.0,363.2 97.6,362.0 98.2,360.1 98.7,358.2 99.3,360.7 99.8,360.2 100.4,361.0 100.9,358.4 101.5,357.4 102.0,358.5 102.6,360.7 103.1,351.8 103.7,358.3 104.2,355.8 104.8,359.5 105.3,360.1 105.9,351.5 106.4,354.4 107.0,355.3 107.5,356.4 108.1,355.6 108.6,358.0 109.2,359.5 109.7,357.8 110.3,358.9 110.8,358.4 111.4,357.3 112.0,359.8 112.5,358.9 113.1,358.8 113.6,360.1 114.2,359.5 114.7,359.9 115.3,357.6 115.8,359.8 116.4,361.3 116.9,360.4 117.5,360.3 118.0,360.6 118.6,361.0 119.1,362.1 119.7,360.0 120.2,362.9 120.8,362.5 121.3,362.2 121.9,360.5 122.4,360.1 123.0,359.3 123.5,360.7 124.1,361.3 124.6,361.9 125.2,360.8 125.8,360.4 126.3,362.2 126.9,362.1 127.4,362.0 128.0,360.4 128.5,361.8 129.1,361.6 129.6,363.4 130.2,362.3 130.7,361.0 131.3,361.6 131.8,362.2 132.4,361.6 132.9,362.7 133.5,362.5 134.0,359.6 134.6,363.5 135.1,361.8 135.7,363.6 136.2,362.8 136.8,361.5 137.3,359.5 137.9,360.8 138.4,361.7 139.0,363.3 139.6,362.4 140.1,363.3 140.7,363.6 141.2,363.2 141.8,361.8 142.3,361.1 142.9,361.9 143.4,358.7 144.0,363.7 144.5,363.3 145.1,363.8 145.6,364.4 146.2,364.1 146.7,362.0 147.3,361.0 147.8,362.4 148.4,362.8 148.9,363.0 149.5,362.8 150.0,361.4 150.6,362.8 151.1,362.2 151.7,362.5 152.2,361.9 152.8,361.5 153.4,362.7 153.9,362.5 154.5,362.5 155.0,361.9 155.6,361.6 156.1,361.9 156.7,361.9 157.2,364.0 157.8,362.5 158.3,359.8 158.9,363.4 159.4,361.4 160.0,362.8 160.5,361.7 161.1,362.8 161.6,360.6 162.2,361.1 162.7,363.2 163.3,362.3 163.8,362.8 164.4,361.9 164.9,362.5 165.5,362.9 166.0,361.3 166.6,356.8 167.2,361.6 167.7,362.2 168.3,361.9 168.8,363.7 169.4,363.1 169.9,363.0 170.5,363.2 171.0,363.7 171.6,363.6 172.1,360.6 172.7,358.2 173.2,359.4 173.8,358.3 174.3,360.6 174.9,356.6 175.4,359.8 176.0,359.5 176.5,358.0 177.1,357.4 177.6,355.6 178.2,357.2 178.7,358.0 179.3,358.7 179.8,360.7 180.4,359.6 180.9,360.2 181.5,360.5 182.1,361.0 182.6,361.6 183.2,361.6 183.7,363.8 184.3,362.2 184.8,358.8 185.4,359.8 185.9,357.4 186.5,360.8 187.0,358.6 187.6,360.2 188.1,359.0 188.7,361.8 189.2,360.8 189.8,359.5 190.3,360.0 190.9,359.4 191.4,361.4 192.0,358.2 192.5,360.1 193.1,358.8 193.6,357.0 194.2,360.6 194.7,358.9 195.3,359.6 195.9,357.2 196.4,359.0 197.0,355.3 197.5,360.4 198.1,361.3 198.6,361.3 199.2,360.5 199.7,356.9 200.3,359.8 200.8,358.9 201.4,363.1 201.9,361.0 202.5,357.6 203.0,362.1 203.6,360.0 204.1,358.1 204.7,361.7 205.2,361.4 205.8,358.8 206.3,356.8 206.9,360.4 207.4,357.7 208.0,358.8 208.5,358.6 209.1,358.6 209.7,360.5 210.2,362.6 210.8,361.8 211.3,359.5 211.9,360.5 212.4,361.0 213.0,360.5 213.5,358.1 214.1,362.0 214.6,362.1 215.2,358.4 215.7,354.3 216.3,363.4 216.8,363.1 217.4,363.7 217.9,364.4 218.5,363.5 219.0,362.2 219.6,363.9 220.1,359.5 220.7,363.1 221.2,364.3 221.8,363.5 222.3,364.0 222.9,363.6 223.5,363.2 224.0,363.5 224.6,362.5 225.1,363.4 225.7,363.4 226.2,361.6 226.8,358.6 227.3,361.0 227.9,364.2 228.4,364.6 229.0,363.7 229.5,363.4 230.1,361.8 230.6,363.7 231.2,363.1 231.7,360.7 232.3,363.4 232.8,358.3 233.4,364.2 233.9,362.4 234.5,361.0 235.0,361.6 235.6,363.4 236.1,363.0 236.7,362.8 237.3,362.6 237.8,362.8 238.4,363.9 238.9,363.3 239.5,361.5 240.0,356.3 240.6,360.7 241.1,358.4 241.7,360.2 242.2,362.5 242.8,362.9 243.3,362.2 243.9,358.1 244.4,364.3 245.0,363.5 245.5,361.0 246.1,362.9 246.6,362.4 247.2,364.3 247.7,363.2 248.3,362.5 248.8,361.4 249.4,360.0 249.9,362.8 250.5,362.7 251.1,361.0 251.6,363.0 252.2,361.6 252.7,361.8 253.3,363.2 253.8,362.7 254.4,359.8 254.9,358.5 255.5,355.6 256.0,361.0 256.6,361.5 257.1,364.1 257.7,363.3 258.2,362.1 258.8,364.2 259.3,363.3 259.9,362.4 260.4,362.5 261.0,362.0 261.5,361.2 262.1,361.9 262.6,361.9 263.2,363.3 263.7,355.2 264.3,359.6 264.9,364.0 265.4,362.5 266.0,363.2 266.5,362.8 267.1,360.4 267.6,362.0 268.2,363.3 268.7,362.0 269.3,362.8 269.8,363.0 270.4,360.8 270.9,361.2 271.5,361.5 272.0,362.9 272.6,362.9 273.1,363.1 273.7,362.4 274.2,362.2 274.8,361.0 275.3,361.8 275.9,361.6 276.4,361.0 277.0,359.5 277.5,362.8 278.1,363.3 278.7,358.9 279.2,361.2 279.8,363.1 280.3,361.6 280.9,359.5 281.4,360.6 282.0,359.8 282.5,362.2 283.1,362.0 283.6,360.3 284.2,361.7 284.7,361.0 285.3,361.4 285.8,358.5 286.4,360.4 286.9,360.4 287.5,361.3 288.0,363.2 288.6,360.0 289.1,363.1 289.7,362.3 290.2,363.0 290.8,363.2 291.3,363.4 291.9,361.5 292.5,361.9 293.0,362.0 293.6,363.0 294.1,362.5 294.7,362.5 295.2,362.1 295.8,362.5 296.3,360.4 296.9,363.0 297.4,362.7 298.0,362.7 298.5,363.7 299.1,361.8 299.6,361.9 300.2,362.8 300.7,360.2 301.3,361.6 301.8,363.1 302.4,362.8 302.9,362.9 303.5,360.4 304.0,358.0 304.6,361.4 305.1,360.1 305.7,361.7 306.3,361.0 306.8,363.0 307.4,363.7 307.9,362.2 308.5,359.8 309.0,358.2 309.6,359.0 310.1,359.4 310.7,359.4 311.2,359.6 311.8,361.3 312.3,360.7 312.9,361.3 313.4,360.9 314.0,357.4 314.5,358.6 315.1,358.8 315.6,360.7 316.2,357.9 316.7,359.8 317.3,360.2 317.8,358.3 318.4,358.7 318.9,360.7 319.5,356.7 320.1,360.8 320.6,359.5 321.2,361.3 321.7,358.3 322.3,354.1 322.8,357.1 323.4,356.3 323.9,360.4 324.5,361.9 325.0,357.0 325.6,354.3 326.1,359.5 326.7,359.8 327.2,353.0 327.8,357.5 328.3,355.7 328.9,356.2 329.4,359.2 330.0,354.5 330.5,362.2 331.1,362.2 331.6,358.9 332.2,359.2 332.7,358.7 333.3,356.1 333.9,359.8 334.4,358.0 335.0,357.3 335.5,355.2 336.1,360.1 336.6,356.7 337.2,357.3 337.7,358.6 338.3,360.0 338.8,358.3 339.4,362.8 339.9,360.0 340.5,362.4 341.0,358.3 341.6,357.6 342.1,357.7 342.7,358.3 343.2,357.5 343.8,357.2 344.3,359.0 344.9,359.7 345.4,358.4 346.0,362.9 346.5,358.7 347.1,359.0 347.7,358.1 348.2,356.8 348.8,359.4 349.3,361.0 349.9,359.0 350.4,357.4 351.0,355.9 351.5,356.4 352.1,359.3 352.6,358.9 353.2,358.4 353.7,359.9 354.3,358.3 354.8,359.6 355.4,357.6 355.9,359.6 356.5,363.1 357.0,359.9 357.6,360.1 358.1,358.1 358.7,359.2 359.2,355.9 359.8,358.3 360.3,358.6 360.9,358.7 361.5,358.3 362.0,361.0 362.6,358.9 363.1,359.8 363.7,358.3 364.2,361.9 364.8,360.3 365.3,358.2 365.9,356.2 366.4,357.1 367.0,358.0 367.5,359.6 368.1,360.8 368.6,357.7 369.2,359.9 369.7,357.4 370.3,358.6 370.8,358.0 371.4,359.3 371.9,357.5 372.5,358.0 373.0,360.6 373.6,355.9 374.1,356.8 374.7,355.3 375.3,358.0 375.8,356.0 376.4,356.1 376.9,354.4 377.5,355.9 378.0,358.9 378.6,354.7 379.1,353.3 379.7,355.3 380.2,357.6 380.8,355.9 381.3,355.8 381.9,357.3 382.4,354.1 383.0,357.1 383.5,358.3 384.1,361.4 384.6,356.9 385.2,355.7 385.7,355.2 386.3,355.0 386.8,355.6 387.4,357.0 387.9,359.5 388.5,359.6 389.1,355.4 389.6,357.4 390.2,358.3 390.7,356.8 391.3,358.1 391.8,356.2 392.4,356.1 392.9,356.2 393.5,353.5 394.0,357.6 394.6,354.4 395.1,353.2 395.7,357.1 396.2,364.3 396.8,361.4 397.3,350.8 397.9,352.4 398.4,352.2 399.0,358.4 399.5,357.4 400.1,355.6 400.6,357.8 401.2,361.0 401.7,355.4 402.3,346.3 402.8,357.1 403.4,359.1 404.0,358.3 404.5,356.7 405.1,355.7 405.6,355.0 406.2,362.8 406.7,358.4 407.3,362.2 407.8,358.0 408.4,353.9 408.9,355.0 409.5,351.5 410.0,355.1 410.6,352.9 411.1,359.9 411.7,360.6 412.2,359.6 412.8,355.6 413.3,353.9 413.9,361.4 414.4,351.8 415.0,356.4 415.5,362.8 416.1,359.2 416.6,352.1 417.2,355.2 417.8,356.8 418.3,360.0 418.9,355.7 419.4,362.9 420.0,363.1 420.5,358.7 421.1,353.8 421.6,354.9 422.2,359.5 422.7,351.8 423.3,363.1 423.8,364.3 424.4,351.9 424.9,359.9 425.5,354.2 426.0,360.4 426.6,361.3 427.1,360.2 427.7,357.1 428.2,349.9 428.8,355.2 429.3,357.6 429.9,362.1 430.4,361.3 431.0,358.0 431.6,360.1 432.1,360.2 432.7,356.8 433.2,356.5 433.8,361.0 434.3,350.8 434.9,348.7 435.4,358.9 436.0,357.0 436.5,353.8 437.1,356.9 437.6,353.0 438.2,357.3 438.7,351.4 439.3,354.3 439.8,358.3 440.4,352.6 440.9,354.4 441.5,350.5 442.0,353.4 442.6,353.3 443.1,352.4 443.7,351.8 444.2,356.8 444.8,355.7 445.4,359.5 445.9,354.1 446.5,359.7 447.0,360.9 447.6,360.0 448.1,359.4 448.7,360.7 449.2,359.0 449.8,355.4 450.3,357.5 450.9,353.5 451.4,359.5 452.0,351.6 452.5,356.0 453.1,360.8 453.6,361.3 454.2,356.2 454.7,349.1 455.3,348.3 455.8,349.0 456.4,360.1 456.9,361.7 457.5,359.2 458.0,356.5 458.6,353.3 459.2,353.4 459.7,354.1 460.3,354.2 460.8,357.2 461.4,357.1 461.9,361.0 462.5,355.9 463.0,358.3 463.6,354.7 464.1,356.8 464.7,356.7 465.2,359.2 465.8,358.2 466.3,356.5 466.9,349.7 467.4,352.0 468.0,355.3 468.5,358.7 469.1,353.2 469.6,356.1 470.2,350.4 470.7,346.6 471.3,350.2 471.8,352.3 472.4,355.7 473.0,357.4 473.5,355.9 474.1,358.0 474.6,355.3 475.2,352.1 475.7,351.7 476.3,349.7 476.8,352.9 477.4,357.5 477.9,352.5 478.5,347.0 479.0,349.1 479.6,352.3 480.1,348.1 480.7,349.6 481.2,348.9 481.8,353.5 482.3,353.7 482.9,358.5 483.4,357.7 484.0,355.9 484.5,355.4 485.1,351.4 485.6,354.5 486.2,358.9 486.8,357.2 487.3,350.8 487.9,345.8 488.4,348.8 489.0,352.9 489.5,355.6 490.1,356.0 490.6,353.6 491.2,350.8 491.7,352.6 492.3,352.0 492.8,354.3 493.4,355.2 493.9,356.3 494.5,355.0 495.0,347.3 495.6,347.6 496.1,343.8 496.7,352.6 497.2,349.3 497.8,349.9 498.3,353.2 498.9,351.0 499.4,349.3 500.0,352.1 500.6,352.6 501.1,357.3 501.7,360.0 502.2,360.1 502.8,355.1 503.3,354.3 503.9,349.7 504.4,359.4 505.0,357.1 505.5,354.0 506.1,355.5 506.6,356.2 507.2,355.2 507.7,354.0 508.3,355.3 508.8,355.2 509.4,358.8 509.9,353.5 510.5,351.4 511.0,350.0 511.6,347.9 512.1,350.7 512.7,353.5 513.2,356.2 513.8,347.3 514.4,348.7 514.9,347.9 515.5,352.3 516.0,351.1 516.6,352.4 517.1,352.1 517.7,351.2 518.2,351.2 518.8,349.8 519.3,347.3 519.9,346.3 520.4,347.8 521.0,350.7 521.5,349.9 522.1,353.1 522.6,356.7 523.2,357.2 523.7,352.3 524.3,351.9 524.8,351.1 525.4,353.5 525.9,349.4 526.5,348.7 527.0,340.0 527.6,350.2 528.2,349.2 528.7,350.5 529.3,348.1 529.8,350.2 530.4,350.1 530.9,347.3 531.5,351.8 532.0,350.0 532.6,353.7 533.1,352.0 533.7,351.1 534.2,348.6 534.8,354.7 535.3,359.2 535.9,354.8 536.4,352.9 537.0,352.2 537.5,352.8 538.1,355.9 538.6,349.2 539.2,351.3 539.7,353.5 540.3,354.8 540.8,353.4 541.4,348.4 542.0,351.6 542.5,348.9 543.1,348.4 543.6,351.2 544.2,350.3 544.7,349.9 545.3,350.2 545.8,347.2 546.4,351.6 546.9,352.0 547.5,348.9 548.0,351.9 548.6,351.2 549.1,349.6 549.7,350.8 550.2,349.1 550.8,348.8 551.3,349.8 551.9,352.6 552.4,348.4 553.0,349.9 553.5,353.5 554.1,347.9 554.6,343.4 555.2,351.0 555.8,348.9 556.3,347.0 556.9,350.8 557.4,348.2 558.0,350.6 558.5,348.7 559.1,350.3 559.6,354.8 560.2,343.1 560.7,353.5 561.3,349.9 561.8,348.1 562.4,348.5 562.9,353.9 563.5,345.7 564.0,349.4 564.6,351.3 565.1,347.2 565.7,351.0 566.2,348.7 566.8,354.4 567.3,348.1 567.9,349.9 568.4,345.4 569.0,348.9 569.6,349.6 570.1,349.4 570.7,345.7 571.2,349.3 571.8,346.1 572.3,352.6 572.9,352.0 573.4,349.6 574.0,349.9 574.5,337.4 575.1,350.3 575.6,354.5 576.2,350.5 576.7,353.3 577.3,352.9 577.8,355.9 578.4,351.8 578.9,353.3 579.5,353.5 580.0,350.2 580.6,354.6 581.1,350.6 581.7,356.2 582.2,351.4 582.8,350.4 583.4,346.7 583.9,343.4 584.5,350.8 585.0,350.8 585.6,358.3 586.1,356.8 586.7,355.9 587.2,352.3 587.8,349.0 588.3,343.2 588.9,343.7 589.4,344.0 590.0,344.9 590.5,342.3 591.1,340.6 591.6,343.5 592.2,344.2 592.7,343.0 593.3,352.5 593.8,345.5 594.4,353.7 594.9,351.8 595.5,343.4 596.0,346.2 596.6,346.4 597.2,343.9 597.7,348.3 598.3,355.0 598.8,351.1 599.4,344.7 599.9,338.1 600.5,349.5 601.0,358.2 601.6,356.5 602.1,351.7 602.7,346.7 603.2,347.8 603.8,351.1 604.3,352.3 604.9,349.3 605.4,347.1 606.0,343.2 606.5,345.9 607.1,346.2 607.6,346.5 608.2,347.0 608.7,344.0 609.3,347.4 609.8,349.3 610.4,341.6 610.9,353.4 611.5,351.4 612.1,351.8 612.6,347.4 613.2,352.9 613.7,353.8 614.3,351.4 614.8,342.7 615.4,351.2 615.9,347.3 616.5,344.6 617.0,344.0 617.6,343.4 618.1,341.0 618.7,351.4 619.2,352.6 619.8,348.4 620.3,334.8 620.9,344.6 621.4,344.0 622.0,347.1 622.5,360.3 623.1,345.5 623.6,361.9 624.2,345.9 624.7,349.0 625.3,347.0 625.9,354.5 626.4,339.5 627.0,345.7 627.5,355.7 628.1,346.4 628.6,353.4 629.2,351.9 629.7,351.1 630.3,351.4 630.8,357.6 631.4,358.0 631.9,359.8 632.5,359.2 633.0,359.8 633.6,357.8 634.1,353.2 634.7,355.9 635.2,329.9 635.8,352.7 636.3,355.2 636.9,353.3 637.4,352.3 638.0,344.4 638.5,346.5 639.1,349.3 639.7,351.9 640.2,354.3 640.8,355.5 641.3,348.7 641.9,352.6 642.4,354.9 643.0,352.5 643.5,346.7 644.1,353.5 644.6,355.9 645.2,352.8 645.7,356.8 646.3,347.6 646.8,346.4 647.4,333.4 647.9,339.0 648.5,354.6 649.0,347.0 649.6,347.6 650.1,350.4 650.7,351.9 651.2,337.4 651.8,348.7 652.3,335.0 652.9,338.0 653.5,348.7 654.0,356.3 654.6,353.3 655.1,341.0 655.7,333.2 656.2,336.8 656.8,348.3 657.3,350.6 657.9,350.8 658.4,356.0 659.0,352.6 659.5,349.7 660.1,348.4 660.6,351.4 661.2,348.6 661.7,344.1 662.3,346.5 662.8,343.0 663.4,340.6 663.9,340.2 664.5,342.4 665.0,344.5 665.6,345.4 666.1,345.0 666.7,341.8 667.3,335.4 667.8,336.7 668.4,332.7 668.9,332.8 669.5,339.9 670.0,348.9 670.6,336.3 671.1,339.8 671.7,331.8 672.2,335.3 672.8,337.5 673.3,336.8 673.9,342.9 674.4,335.9 675.0,342.1 675.5,336.2 676.1,337.1 676.6,327.9 677.2,340.7 677.7,334.8 678.3,345.6 678.8,346.7 679.4,348.3 679.9,349.3 680.5,349.3 681.1,339.3 681.6,333.8 682.2,327.3 682.7,331.5 683.3,347.3 683.8,352.0 684.4,340.3 684.9,346.7 685.5,334.7 686.0,348.2 686.6,340.1 687.1,342.4 687.7,337.4 688.2,327.5 688.8,323.7 689.3,327.9 689.9,336.7 690.4,342.3 691.0,352.0 691.5,337.8 692.1,323.4 692.6,334.5 693.2,340.1 693.7,352.0 694.3,352.9 694.9,354.4 695.4,345.7 696.0,349.0 696.5,340.1 697.1,345.7 697.6,351.1 698.2,348.6 698.7,347.0 699.3,337.8 699.8,337.5 700.4,344.4 700.9,334.4 701.5,333.4 702.0,330.9 702.6,335.7 703.1,335.0 703.7,317.0 704.2,333.6 704.8,347.6 705.3,358.0 705.9,341.8 706.4,334.4 707.0,340.6 707.5,334.4 708.1,339.0 708.7,342.1 709.2,348.1 709.8,342.8 710.3,341.5 710.9,341.6 711.4,339.7 712.0,342.4 712.5,329.2 713.1,342.3 713.6,341.0 714.2,339.2 714.7,340.5 715.3,349.6 715.8,349.8 716.4,348.7 716.9,334.7 717.5,341.3 718.0,344.4 718.6,336.3 719.1,337.1 719.7,342.6 720.2,346.9 720.8,347.0 721.3,343.3 721.9,352.0 722.5,346.7 723.0,339.9 723.6,322.7 724.1,335.3 724.7,329.4 725.2,341.4 725.8,354.4 726.3,352.3 726.9,351.1 727.4,341.2 728.0,339.2 728.5,330.8 729.1,336.8 729.6,335.1 730.2,348.1 730.7,340.4 731.3,317.6 731.8,336.8 732.4,338.9 732.9,333.1 733.5,332.7 734.0,340.2 734.6,347.9 735.1,346.3 735.7,346.0 736.3,349.1 736.8,344.0 737.4,333.5 737.9,346.4 738.5,349.2 739.0,345.2 739.6,340.2 740.1,340.2 740.7,339.5 741.2,341.0 741.8,344.4 742.3,350.5 742.9,333.0 743.4,344.3 744.0,339.2 744.5,343.1 745.1,349.3 745.6,349.0 746.2,336.3 746.7,325.8 747.3,337.4 747.8,335.2 748.4,342.2 748.9,333.2 749.5,330.1 750.1,339.2 750.6,337.5 751.2,331.1 751.7,343.5 752.3,332.8 752.8,333.4 753.4,331.1 753.9,342.1 754.5,340.2 755.0,329.1 755.6,335.2 756.1,333.5 756.7,346.2 757.2,348.4 757.8,341.4 758.3,340.0 758.9,338.9 759.4,338.9 760.0,340.3 760.5,350.1 761.1,342.8 761.6,344.5 762.2,341.9 762.7,338.1 763.3,350.0 763.9,342.1 764.4,339.4 765.0,338.9 765.5,332.8 766.1,341.0 766.6,339.1 767.2,337.1 767.7,346.1 768.3,351.4 768.8,333.5 769.4,339.8 769.9,339.5 770.5,339.8 771.0,340.7 771.6,335.0 772.1,330.3 772.7,329.1 773.2,326.4 773.8,345.1 774.3,346.6 774.9,332.7 775.4,347.5 776.0,338.1 776.5,327.6 777.1,318.2 777.7,328.0 778.2,325.8 778.8,336.6 779.3,341.2 779.9,327.6 780.4,333.1 781.0,333.8 781.5,333.7 782.1,330.7 782.6,321.2 783.2,339.8 783.7,330.2 784.3,331.5 784.8,336.4 785.4,326.7 785.9,334.4 786.5,331.6 787.0,333.9 787.6,326.7 788.1,324.0 788.7,344.2 789.2,325.8 789.8,313.6 790.3,322.0 790.9,314.7 791.5,326.1 792.0,321.0 792.6,332.6 793.1,327.7 793.7,317.1 794.2,302.5 794.8,333.2 795.3,342.6 795.9,341.3 796.4,336.5 797.0,323.7 797.5,336.6 798.1,327.4 798.6,330.7 799.2,326.7 799.7,335.0 800.3,338.3 800.8,339.7 801.4,339.2 801.9,337.4 802.5,322.4 803.0,321.6 803.6,317.4 804.1,311.2 804.7,314.2 805.3,318.5 805.8,324.6 806.4,332.3 806.9,343.9 807.5,306.4 808.0,319.4 808.6,330.6 809.1,340.1 809.7,310.7 810.2,343.6 810.8,333.4 811.3,327.6 811.9,301.0 812.4,332.8 813.0,327.7 813.5,322.8 814.1,322.5 814.6,327.6 815.2,344.2 815.7,340.1 816.3,338.9 816.8,323.2 817.4,353.2 817.9,341.4 818.5,344.9 819.1,345.9 819.6,322.0 820.2,316.8 820.7,326.6 821.3,341.8 821.8,338.6 822.4,337.7 822.9,326.4 823.5,347.2 824.0,341.2 824.6,318.9 825.1,322.8 825.7,320.9 826.2,295.1 826.8,338.6 827.3,353.5 827.9,350.7 828.4,319.0 829.0,340.2 829.5,355.6 830.1,352.9 830.6,334.6 831.2,323.2 831.7,315.9 832.3,312.1 832.8,320.3 833.4,325.8 834.0,341.7 834.5,344.6 835.1,335.5 835.6,333.0 836.2,323.7 836.7,294.5 837.3,312.4 837.8,334.4 838.4,328.8 838.9,322.5 839.5,326.4 840.0,350.1 840.6,350.9 841.1,318.6 841.7,269.2 842.2,303.6 842.8,305.2 843.3,333.5 843.9,296.6 844.4,332.0 845.0,323.9 845.5,285.6 846.1,291.0 846.6,304.1 847.2,314.7 847.8,336.5 848.3,296.5 848.9,283.0 849.4,322.9 850.0,337.3 850.5,304.5 851.1,306.7 851.6,301.6 852.2,328.8 852.7,279.6 853.3,259.8 853.8,273.7 854.4,307.3 854.9,299.0 855.5,290.8 856.0,291.5 856.6,275.7 857.1,267.0 857.7,296.2 858.2,317.9 858.8,297.7 859.3,288.9 859.9,282.4 860.4,284.8 861.0,281.3 861.6,284.3 862.1,312.0 862.7,306.1 863.2,343.5 863.8,270.6 864.3,261.0 864.9,239.0 865.4,243.5 866.0,286.5 866.5,270.9 867.1,322.5 867.6,324.2 868.2,258.4 868.7,226.2 869.3,238.5 869.8,257.7 870.4,284.8 870.9,314.6 871.5,304.6 872.0,312.9 872.6,206.1 873.1,323.9 873.7,317.1 874.2,233.3 874.8,217.7 875.4,215.8 875.9,219.6 876.5,284.9 877.0,304.6 877.6,285.5 878.1,229.8 878.7,217.2 879.2,204.2 879.8,227.0 880.3,216.9 880.9,196.1 881.4,224.2 882.0,208.4 882.5,145.0 883.1,177.6 883.6,178.3 884.2,177.1 884.7,183.3 885.3,190.7 885.8,185.6 886.4,201.5 886.9,213.7 887.5,205.0 888.0,255.5 888.6,246.2 889.2,231.4 889.7,217.2 890.3,211.6 890.8,202.8 891.4,271.7 891.9,160.0 892.5,192.9 893.0,176.4 893.6,228.2 894.1,198.9 894.7,162.0 895.2,172.8 895.8,188.5 896.3,158.2 896.9,253.5 897.4,162.3 898.0,162.0 898.5,194.1 899.1,195.0 899.6,194.5 900.2,175.0 900.7,180.3 901.3,194.5 901.8,186.5 902.4,232.8 903.0,162.3 903.5,237.8 904.1,242.6 904.6,154.7 905.2,186.3 905.7,190.7 906.3,239.3 906.8,201.2 907.4,272.6 907.9,199.1 908.5,264.1 909.0,255.1 909.6,177.7 910.1,268.7 910.7,262.3 911.2,208.8 911.8,227.3 912.3,182.6 912.9,166.0 913.4,73.3 914.0,164.7 914.5,194.9 915.1,182.9 915.6,203.2 916.2,194.6 916.8,219.1 917.3,229.3 917.9,223.7 918.4,254.3 919.0,200.2 919.5,168.9 920.1,210.5 920.6,200.8 921.2,172.7 921.7,223.5 922.3,177.7 922.8,198.7 923.4,216.4 923.9,209.7 924.5,206.8 925.0,199.1 925.6,188.7 926.1,196.3 926.7,242.6 927.2,224.1 927.8,206.2 928.3,188.0 928.9,176.3 929.4,192.2 930.0,200.0" fill="none" stroke="#2563EB" stroke-width="2.2"/>
<polyline points="70.0,352.9 70.6,353.3 71.1,353.6 71.7,353.9 72.2,353.0 72.8,353.1 73.3,353.5 73.9,353.7 74.4,353.9 75.0,354.0 75.5,354.1 76.1,354.3 76.6,354.5 77.2,354.4 77.7,354.6 78.3,354.8 78.8,356.6 79.4,357.2 79.9,357.1 80.5,357.8 81.0,357.9 81.6,358.0 82.1,357.9 82.7,358.2 83.2,358.0 83.8,358.2 84.4,358.2 84.9,358.4 85.5,358.5 86.0,358.6 86.6,358.8 87.1,358.9 87.7,358.9 88.2,358.9 88.8,359.1 89.3,359.9 89.9,360.1 90.4,360.0 91.0,360.0 91.5,360.1 92.1,360.3 92.6,360.3 93.2,360.2 93.7,360.2 94.3,360.4 94.8,360.2 95.4,360.1 95.9,360.0 96.5,360.0 97.0,359.9 97.6,359.6 98.2,359.4 98.7,359.3 99.3,359.2 99.8,359.0 100.4,359.1 100.9,358.9 101.5,358.9 102.0,358.7 102.6,358.6 103.1,358.5 103.7,358.4 104.2,358.4 104.8,358.3 105.3,358.3 105.9,358.2 106.4,358.1 107.0,358.0 107.5,358.1 108.1,358.1 108.6,358.1 109.2,358.1 109.7,358.1 110.3,358.3 110.8,358.4 111.4,358.3 112.0,358.7 112.5,358.8 113.1,359.0 113.6,359.1 114.2,359.1 114.7,359.3 115.3,359.5 115.8,359.7 116.4,359.9 116.9,360.1 117.5,360.1 118.0,360.2 118.6,360.4 119.1,360.5 119.7,360.5 120.2,360.7 120.8,360.7 121.3,360.9 121.9,361.0 122.4,361.0 123.0,361.1 123.5,361.2 124.1,361.3 124.6,361.4 125.2,361.4 125.8,361.4 126.3,361.5 126.9,361.5 127.4,361.6 128.0,361.6 128.5,361.7 129.1,361.6 129.6,361.5 130.2,361.5 130.7,361.6 131.3,361.7 131.8,361.8 132.4,361.9 132.9,362.0 133.5,362.0 134.0,362.0 134.6,362.0 135.1,361.9 135.7,362.0 136.2,362.0 136.8,362.1 137.3,362.2 137.9,362.3 138.4,362.2 139.0,362.2 139.6,362.2 140.1,362.3 140.7,362.3 141.2,362.3 141.8,362.3 142.3,362.3 142.9,362.4 143.4,362.3 144.0,362.4 144.5,362.3 145.1,362.3 145.6,362.3 146.2,362.4 146.7,362.5 147.3,362.4 147.8,362.4 148.4,362.4 148.9,362.4 149.5,362.4 150.0,362.3 150.6,362.3 151.1,362.3 151.7,362.4 152.2,362.5 152.8,362.4 153.4,362.3 153.9,362.2 154.5,362.2 155.0,362.1 155.6,362.2 156.1,362.2 156.7,362.2 157.2,362.2 157.8,362.2 158.3,362.0 158.9,362.0 159.4,362.0 160.0,361.9 160.5,362.0 161.1,362.0 161.6,362.1 162.2,362.1 162.7,362.1 163.3,362.2 163.8,362.1 164.4,362.0 164.9,361.9 165.5,361.8 166.0,361.7 166.6,361.5 167.2,361.5 167.7,361.4 168.3,361.3 168.8,361.1 169.4,360.9 169.9,360.7 170.5,360.6 171.0,360.6 171.6,360.5 172.1,360.4 172.7,360.3 173.2,360.3 173.8,360.2 174.3,360.2 174.9,360.2 175.4,360.4 176.0,360.4 176.5,360.3 177.1,360.3 177.6,360.0 178.2,360.0 178.7,359.8 179.3,359.7 179.8,359.6 180.4,359.5 180.9,359.5 181.5,359.6 182.1,359.6 182.6,359.6 183.2,359.7 183.7,359.7 184.3,359.7 184.8,359.7 185.4,359.7 185.9,359.8 186.5,359.9 187.0,359.9 187.6,359.9 188.1,359.9 188.7,359.8 189.2,359.8 189.8,359.8 190.3,359.8 190.9,359.8 191.4,359.7 192.0,359.6 192.5,359.5 193.1,359.5 193.6,359.6 194.2,359.5 194.7,359.6 195.3,359.6 195.9,359.6 196.4,359.7 197.0,359.7 197.5,359.6 198.1,359.5 198.6,359.5 199.2,359.5 199.7,359.4 200.3,359.4 200.8,359.4 201.4,359.4 201.9,359.5 202.5,359.7 203.0,359.6 203.6,359.7 204.1,359.7 204.7,359.8 205.2,359.8 205.8,360.0 206.3,360.1 206.9,360.0 207.4,359.7 208.0,359.8 208.5,360.0 209.1,360.2 209.7,360.3 210.2,360.4 210.8,360.4 211.3,360.6 211.9,360.5 212.4,360.6 213.0,360.8 213.5,360.9 214.1,361.0 214.6,361.1 215.2,361.3 215.7,361.4 216.3,361.6 216.8,361.7 217.4,361.9 217.9,362.0 218.5,361.9 219.0,361.9 219.6,361.9 220.1,362.1 220.7,362.2 221.2,362.3 221.8,362.3 222.3,362.5 222.9,362.5 223.5,362.5 224.0,362.6 224.6,362.8 225.1,362.8 225.7,362.8 226.2,362.7 226.8,362.6 227.3,362.6 227.9,362.6 228.4,362.6 229.0,362.7 229.5,362.7 230.1,362.7 230.6,362.7 231.2,362.6 231.7,362.3 232.3,362.3 232.8,362.1 233.4,362.0 233.9,362.0 234.5,362.0 235.0,362.0 235.6,362.0 236.1,362.1 236.7,362.1 237.3,362.0 237.8,361.9 238.4,361.9 238.9,362.0 239.5,362.0 240.0,361.9 240.6,362.0 241.1,361.8 241.7,362.0 242.2,361.9 242.8,361.9 243.3,362.0 243.9,362.0 244.4,361.9 245.0,361.9 245.5,361.9 246.1,361.8 246.6,361.7 247.2,361.4 247.7,361.3 248.3,361.3 248.8,361.6 249.4,361.7 249.9,361.8 250.5,361.9 251.1,362.0 251.6,361.9 252.2,362.0 252.7,362.1 253.3,362.0 253.8,361.9 254.4,362.0 254.9,362.0 255.5,361.7 256.0,361.6 256.6,361.6 257.1,361.6 257.7,361.7 258.2,361.8 258.8,361.7 259.3,361.7 259.9,361.7 260.4,361.7 261.0,361.7 261.5,361.8 262.1,361.7 262.6,361.7 263.2,361.7 263.7,361.8 264.3,362.1 264.9,362.2 265.4,362.2 266.0,362.1 266.5,362.0 267.1,362.0 267.6,362.0 268.2,361.9 268.7,361.8 269.3,361.8 269.8,361.8 270.4,361.8 270.9,361.7 271.5,361.8 272.0,361.7 272.6,361.9 273.1,361.9 273.7,361.8 274.2,361.7 274.8,361.7 275.3,361.6 275.9,361.7 276.4,361.6 277.0,361.6 277.5,361.5 278.1,361.4 278.7,361.3 279.2,361.3 279.8,361.4 280.3,361.3 280.9,361.3 281.4,361.3 282.0,361.3 282.5,361.3 283.1,361.4 283.6,361.4 284.2,361.4 284.7,361.4 285.3,361.5 285.8,361.6 286.4,361.6 286.9,361.5 287.5,361.7 288.0,361.6 288.6,361.6 289.1,361.7 289.7,361.8 290.2,361.9 290.8,361.9 291.3,361.9 291.9,361.9 292.5,361.9 293.0,361.9 293.6,362.0 294.1,362.0 294.7,362.2 295.2,362.2 295.8,362.1 296.3,362.1 296.9,362.0 297.4,362.1 298.0,362.0 298.5,362.0 299.1,362.0 299.6,362.0 300.2,361.9 300.7,361.8 301.3,361.7 301.8,361.6 302.4,361.5 302.9,361.4 303.5,361.4 304.0,361.3 304.6,361.3 305.1,361.3 305.7,361.1 306.3,361.0 306.8,360.9 307.4,360.8 307.9,360.6 308.5,360.6 309.0,360.5 309.6,360.4 310.1,360.3 310.7,360.3 311.2,360.1 311.8,360.0 312.3,360.0 312.9,360.1 313.4,360.0 314.0,359.8 314.5,359.6 315.1,359.5 315.6,359.4 316.2,359.3 316.7,359.2 317.3,359.0 317.8,359.0 318.4,359.1 318.9,358.8 319.5,358.8 320.1,358.7 320.6,358.5 321.2,358.4 321.7,358.2 322.3,358.3 322.8,358.4 323.4,358.4 323.9,358.5 324.5,358.4 325.0,358.3 325.6,358.3 326.1,358.3 326.7,358.2 327.2,358.1 327.8,358.1 328.3,358.1 328.9,358.0 329.4,357.9 330.0,357.9 330.5,357.9 331.1,358.2 331.6,358.3 332.2,358.5 332.7,358.4 333.3,358.3 333.9,358.3 334.4,358.4 335.0,358.4 335.5,358.3 336.1,358.5 336.6,358.5 337.2,358.6 337.7,358.8 338.3,358.8 338.8,359.0 339.4,358.8 339.9,358.7 340.5,358.7 341.0,358.7 341.6,358.7 342.1,358.8 342.7,358.7 343.2,358.6 343.8,358.7 344.3,358.8 344.9,358.7 345.4,358.8 346.0,358.9 346.5,358.9 347.1,358.8 347.7,358.9 348.2,358.9 348.8,358.9 349.3,358.8 349.9,358.8 350.4,358.8 351.0,358.8 351.5,358.8 352.1,358.8 352.6,358.9 353.2,358.9 353.7,358.9 354.3,358.9 354.8,358.8 355.4,358.8 355.9,358.9 356.5,359.0 357.0,359.0 357.6,358.9 358.1,358.8 358.7,358.7 359.2,358.8 359.8,359.0 360.3,359.0 360.9,359.0 361.5,359.0 362.0,359.0 362.6,358.9 363.1,359.0 363.7,358.9 364.2,358.9 364.8,358.9 365.3,358.7 365.9,358.6 366.4,358.5 367.0,358.5 367.5,358.3 368.1,358.4 368.6,358.2 369.2,358.1 369.7,358.1 370.3,358.0 370.8,357.8 371.4,357.7 371.9,357.6 372.5,357.5 373.0,357.3 373.6,357.2 374.1,357.1 374.7,357.1 375.3,357.2 375.8,357.3 376.4,357.2 376.9,357.0 377.5,356.9 378.0,356.8 378.6,356.7 379.1,356.7 379.7,356.7 380.2,356.7 380.8,356.7 381.3,356.6 381.9,356.6 382.4,356.6 383.0,356.6 383.5,356.7 384.1,356.6 384.6,356.6 385.2,356.5 385.7,356.6 386.3,356.6 386.8,356.4 387.4,356.5 387.9,356.8 388.5,357.0 389.1,356.8 389.6,356.7 390.2,356.6 390.7,356.6 391.3,356.7 391.8,356.7 392.4,356.7 392.9,356.6 393.5,356.6 394.0,356.3 394.6,356.4 395.1,356.5 395.7,356.6 396.2,356.6 396.8,356.4 397.3,356.3 397.9,356.5 398.4,356.6 399.0,356.7 399.5,356.7 400.1,356.6 400.6,356.6 401.2,356.4 401.7,356.4 402.3,356.4 402.8,356.4 403.4,356.6 404.0,356.8 404.5,356.8 405.1,356.5 405.6,356.5 406.2,356.5 406.7,356.6 407.3,357.0 407.8,357.0 408.4,356.8 408.9,356.8 409.5,356.8 410.0,356.7 410.6,356.7 411.1,357.3 411.7,357.5 412.2,357.5 412.8,357.3 413.3,357.3 413.9,357.4 414.4,357.3 415.0,357.3 415.5,357.5 416.1,357.1 416.6,357.2 417.2,357.2 417.8,357.4 418.3,357.7 418.9,357.9 419.4,358.0 420.0,357.7 420.5,357.5 421.1,357.4 421.6,357.6 422.2,357.9 422.7,357.8 423.3,358.0 423.8,358.2 424.4,358.0 424.9,357.9 425.5,358.2 426.0,358.0 426.6,357.8 427.1,357.7 427.7,357.8 428.2,357.5 428.8,357.3 429.3,357.1 429.9,357.2 430.4,357.1 431.0,356.9 431.6,357.1 432.1,356.8 432.7,356.5 433.2,356.4 433.8,356.2 434.3,356.2 434.9,356.0 435.4,355.6 436.0,355.5 436.5,355.5 437.1,355.8 437.6,355.8 438.2,355.8 438.7,355.8 439.3,355.7 439.8,355.8 440.4,355.8 440.9,355.8 441.5,355.7 442.0,355.8 442.6,355.5 443.1,355.8 443.7,355.9 444.2,355.8 444.8,355.9 445.4,356.2 445.9,356.1 446.5,356.0 447.0,355.7 447.6,355.7 448.1,355.8 448.7,356.0 449.2,356.2 449.8,356.2 450.3,356.3 450.9,356.3 451.4,356.3 452.0,356.4 452.5,356.6 453.1,356.6 453.6,356.8 454.2,356.6 454.7,356.8 455.3,356.6 455.8,356.5 456.4,356.4 456.9,356.4 457.5,356.3 458.0,356.2 458.6,356.0 459.2,355.8 459.7,355.9 460.3,355.9 460.8,355.9 461.4,355.9 461.9,355.6 462.5,355.1 463.0,354.9 463.6,355.0 464.1,355.3 464.7,355.5 465.2,355.4 465.8,355.3 466.3,355.2 466.9,355.0 467.4,355.0 468.0,354.8 468.5,354.8 469.1,354.9 469.6,354.8 470.2,354.4 470.7,354.1 471.3,353.9 471.8,353.6 472.4,353.4 473.0,353.2 473.5,353.1 474.1,352.9 474.6,352.9 475.2,353.0 475.7,353.2 476.3,353.3 476.8,353.1 477.4,353.0 477.9,353.2 478.5,353.2 479.0,353.2 479.6,353.2 480.1,353.2 480.7,353.2 481.2,353.2 481.8,353.1 482.3,353.1 482.9,352.8 483.4,352.7 484.0,352.7 484.5,352.8 485.1,353.0 485.6,353.1 486.2,353.0 486.8,352.9 487.3,352.9 487.9,352.7 488.4,352.7 489.0,352.8 489.5,352.8 490.1,352.9 490.6,352.8 491.2,352.7 491.7,352.5 492.3,352.3 492.8,352.4 493.4,352.5 493.9,352.8 494.5,352.8 495.0,352.7 495.6,352.4 496.1,352.7 496.7,353.1 497.2,353.2 497.8,353.3 498.3,353.3 498.9,353.3 499.4,353.3 500.0,353.5 500.6,353.5 501.1,353.8 501.7,353.7 502.2,353.6 502.8,353.4 503.3,353.2 503.9,353.3 504.4,353.5 505.0,353.9 505.5,353.7 506.1,353.7 506.6,353.6 507.2,353.6 507.7,353.6 508.3,353.7 508.8,353.7 509.4,353.7 509.9,353.5 510.5,353.1 511.0,352.7 511.6,352.4 512.1,352.2 512.7,352.3 513.2,352.0 513.8,351.8 514.4,351.9 514.9,352.0 515.5,351.8 516.0,351.7 516.6,351.6 517.1,351.6 517.7,351.4 518.2,351.1 518.8,350.6 519.3,350.6 519.9,350.6 520.4,350.7 521.0,350.6 521.5,350.5 522.1,350.3 522.6,350.3 523.2,350.4 523.7,350.4 524.3,350.5 524.8,350.5 525.4,350.5 525.9,350.4 526.5,350.5 527.0,350.7 527.6,350.9 528.2,351.1 528.7,351.3 529.3,351.4 529.8,351.6 530.4,351.6 530.9,351.5 531.5,351.4 532.0,351.3 532.6,351.4 533.1,351.2 533.7,351.3 534.2,351.1 534.8,351.1 535.3,351.2 535.9,351.5 536.4,351.5 537.0,351.5 537.5,351.4 538.1,351.5 538.6,351.6 539.2,351.5 539.7,351.7 540.3,351.7 540.8,351.7 541.4,351.6 542.0,351.5 542.5,351.4 543.1,351.4 543.6,351.4 544.2,351.0 544.7,350.9 545.3,350.9 545.8,350.7 546.4,350.4 546.9,350.3 547.5,350.3 548.0,350.1 548.6,350.0 549.1,349.8 549.7,349.7 550.2,349.8 550.8,349.7 551.3,349.9 551.9,349.7 552.4,349.8 553.0,349.8 553.5,349.7 554.1,349.7 554.6,349.9 555.2,349.7 555.8,349.6 556.3,349.7 556.9,349.5 557.4,349.5 558.0,349.5 558.5,349.6 559.1,349.6 559.6,349.6 560.2,349.5 560.7,349.4 561.3,349.4 561.8,349.4 562.4,349.1 562.9,349.2 563.5,349.3 564.0,349.3 564.6,349.4 565.1,349.5 565.7,349.5 566.2,349.1 566.8,349.1 567.3,349.3 567.9,349.3 568.4,349.3 569.0,349.6 569.6,349.7 570.1,349.7 570.7,349.9 571.2,350.0 571.8,349.9 572.3,350.2 572.9,350.3 573.4,350.4 574.0,350.6 574.5,350.5 575.1,350.5 575.6,350.1 576.2,350.2 576.7,350.2 577.3,350.7 577.8,350.9 578.4,351.1 578.9,351.2 579.5,351.3 580.0,351.1 580.6,351.0 581.1,350.8 581.7,350.5 582.2,350.3 582.8,350.0 583.4,350.2 583.9,350.0 584.5,349.6 585.0,349.7 585.6,349.4 586.1,349.5 586.7,349.3 587.2,349.1 587.8,348.8 588.3,348.6 588.9,348.4 589.4,348.2 590.0,348.3 590.5,348.2 591.1,347.9 591.6,347.6 592.2,347.6 592.7,348.1 593.3,348.3 593.8,348.3 594.4,348.0 594.9,347.7 595.5,347.5 596.0,347.5 596.6,347.5 597.2,347.6 597.7,347.6 598.3,347.7 598.8,347.7 599.4,347.9 599.9,348.1 600.5,348.1 601.0,348.2 601.6,348.4 602.1,348.0 602.7,348.3 603.2,348.2 603.8,348.2 604.3,348.4 604.9,348.6 605.4,348.8 606.0,349.1 606.5,348.9 607.1,348.8 607.6,348.6 608.2,348.6 608.7,348.8 609.3,348.6 609.8,348.1 610.4,347.9 610.9,347.9 611.5,348.0 612.1,347.6 612.6,347.4 613.2,347.1 613.7,347.0 614.3,347.4 614.8,347.5 615.4,348.0 615.9,348.0 616.5,348.1 617.0,348.1 617.6,348.4 618.1,348.2 618.7,348.1 619.2,348.5 619.8,348.3 620.3,348.4 620.9,348.4 621.4,348.5 622.0,348.4 622.5,348.6 623.1,348.8 623.6,349.3 624.2,349.6 624.7,350.0 625.3,350.4 625.9,350.7 626.4,351.1 627.0,350.7 627.5,350.8 628.1,350.9 628.6,351.0 629.2,351.6 629.7,351.6 630.3,351.7 630.8,351.7 631.4,351.5 631.9,351.8 632.5,351.6 633.0,351.6 633.6,351.8 634.1,352.0 634.7,351.9 635.2,352.2 635.8,352.4 636.3,352.4 636.9,352.6 637.4,352.7 638.0,352.6 638.5,352.5 639.1,351.9 639.7,351.3 640.2,351.2 640.8,350.8 641.3,350.4 641.9,350.1 642.4,349.9 643.0,349.4 643.5,349.1 644.1,349.3 644.6,348.8 645.2,348.6 645.7,348.7 646.3,348.8 646.8,348.7 647.4,348.2 647.9,347.8 648.5,347.7 649.0,347.6 649.6,347.4 650.1,347.7 650.7,347.7 651.2,347.5 651.8,347.4 652.3,347.5 652.9,347.4 653.5,347.0 654.0,346.8 654.6,346.3 655.1,346.1 655.7,345.9 656.2,346.2 656.8,346.4 657.3,346.1 657.9,346.0 658.4,345.8 659.0,345.3 659.5,344.9 660.1,344.7 660.6,344.2 661.2,344.4 661.7,344.7 662.3,344.3 662.8,343.8 663.4,343.1 663.9,342.9 664.5,343.0 665.0,343.0 665.6,342.9 666.1,342.4 666.7,342.1 667.3,341.5 667.8,341.0 668.4,340.3 668.9,340.0 669.5,339.5 670.0,339.4 670.6,339.5 671.1,339.5 671.7,339.7 672.2,340.0 672.8,340.0 673.3,339.7 673.9,339.1 674.4,338.7 675.0,338.8 675.5,339.1 676.1,339.3 676.6,339.6 677.2,339.6 677.7,340.1 678.3,340.1 678.8,339.9 679.4,340.0 679.9,339.6 680.5,339.3 681.1,339.1 681.6,339.0 682.2,339.2 682.7,339.5 683.3,339.6 683.8,339.0 684.4,338.9 684.9,339.0 685.5,339.8 686.0,340.2 686.6,340.8 687.1,340.8 687.7,340.9 688.2,340.6 688.8,340.5 689.3,340.6 689.9,340.9 690.4,341.3 691.0,341.6 691.5,341.8 692.1,341.7 692.6,341.2 693.2,340.9 693.7,340.4 694.3,340.5 694.9,340.0 695.4,339.3 696.0,339.0 696.5,339.3 697.1,340.3 697.6,340.9 698.2,341.1 698.7,341.2 699.3,341.0 699.8,340.6 700.4,340.7 700.9,341.5 701.5,341.8 702.0,341.8 702.6,341.5 703.1,341.1 703.7,340.7 704.2,340.1 704.8,339.9 705.3,340.0 705.9,339.7 706.4,339.4 707.0,339.4 707.5,339.5 708.1,339.9 708.7,339.8 709.2,339.7 709.8,340.0 710.3,340.1 710.9,340.3 711.4,340.5 712.0,340.9 712.5,341.9 713.1,342.2 713.6,342.3 714.2,342.0 714.7,341.9 715.3,341.5 715.8,341.4 716.4,341.2 716.9,341.3 717.5,341.7 718.0,341.8 718.6,342.1 719.1,342.1 719.7,342.0 720.2,341.7 720.8,341.5 721.3,341.7 721.9,341.9 722.5,341.9 723.0,341.2 723.6,341.1 724.1,340.7 724.7,340.2 725.2,339.7 725.8,339.8 726.3,340.0 726.9,340.1 727.4,340.4 728.0,340.8 728.5,340.9 729.1,340.4 729.6,340.4 730.2,340.6 730.7,340.4 731.3,340.2 731.8,340.2 732.4,340.7 732.9,340.9 733.5,341.4 734.0,341.7 734.6,341.0 735.1,340.7 735.7,340.3 736.3,340.4 736.8,340.7 737.4,341.3 737.9,341.3 738.5,341.0 739.0,340.7 739.6,340.5 740.1,341.3 740.7,341.2 741.2,340.9 741.8,341.1 742.3,341.2 742.9,340.9 743.4,340.8 744.0,340.4 744.5,340.0 745.1,339.4 745.6,339.3 746.2,339.5 746.7,339.0 747.3,338.5 747.8,338.2 748.4,338.3 748.9,338.6 749.5,338.7 750.1,338.6 750.6,338.5 751.2,338.1 751.7,338.3 752.3,338.5 752.8,338.6 753.4,338.7 753.9,338.4 754.5,338.1 755.0,338.5 755.6,339.0 756.1,339.1 756.7,339.2 757.2,338.9 757.8,339.2 758.3,339.5 758.9,339.4 759.4,339.7 760.0,340.3 760.5,340.0 761.1,340.2 761.6,340.4 762.2,340.7 762.7,340.7 763.3,340.5 763.9,340.5 764.4,340.3 765.0,340.1 765.5,340.1 766.1,340.0 766.6,339.7 767.2,340.0 767.7,340.0 768.3,339.6 768.8,338.9 769.4,338.2 769.9,337.6 770.5,337.4 771.0,337.3 771.6,337.0 772.1,336.4 772.7,336.2 773.2,336.0 773.8,335.7 774.3,335.4 774.9,335.3 775.4,335.0 776.0,334.8 776.5,334.5 777.1,333.7 777.7,333.8 778.2,333.5 778.8,333.3 779.3,332.9 779.9,332.4 780.4,332.7 781.0,332.5 781.5,332.0 782.1,331.9 782.6,330.9 783.2,330.2 783.7,329.9 784.3,329.4 784.8,329.0 785.4,328.7 785.9,328.2 786.5,328.4 787.0,328.9 787.6,329.1 788.1,328.9 788.7,328.8 789.2,328.9 789.8,328.7 790.3,328.6 790.9,328.5 791.5,328.9 792.0,328.9 792.6,329.2 793.1,329.4 793.7,329.4 794.2,329.3 794.8,328.9 795.3,328.4 795.9,327.7 796.4,327.3 797.0,327.1 797.5,326.5 798.1,326.7 798.6,327.7 799.2,327.2 799.7,327.3 800.3,327.5 800.8,328.1 801.4,327.4 801.9,327.9 802.5,328.4 803.0,329.2 803.6,328.2 804.1,327.9 804.7,327.4 805.3,327.0 805.8,327.0 806.4,326.7 806.9,327.2 807.5,327.5 808.0,327.9 808.6,327.5 809.1,328.0 809.7,328.1 810.2,328.2 810.8,328.5 811.3,328.5 811.9,328.4 812.4,328.7 813.0,329.6 813.5,330.4 814.1,331.0 814.6,331.1 815.2,331.6 815.7,331.5 816.3,331.9 816.8,332.0 817.4,331.7 817.9,330.2 818.5,331.1 819.1,331.5 819.6,332.0 820.2,331.7 820.7,333.0 821.3,333.7 821.8,334.6 822.4,334.9 822.9,335.0 823.5,334.6 824.0,333.5 824.6,332.9 825.1,332.5 825.7,333.1 826.2,332.8 826.8,332.6 827.3,332.2 827.9,331.5 828.4,330.6 829.0,330.5 829.5,330.7 830.1,330.3 830.6,329.8 831.2,329.4 831.7,330.2 832.3,330.3 832.8,329.6 833.4,328.0 834.0,327.4 834.5,326.9 835.1,328.1 835.6,326.7 836.2,326.1 836.7,325.2 837.3,324.1 837.8,322.5 838.4,320.9 838.9,319.6 839.5,319.7 840.0,318.8 840.6,317.8 841.1,318.1 841.7,318.7 842.2,318.0 842.8,316.8 843.3,315.5 843.9,315.2 844.4,313.5 845.0,311.5 845.5,310.8 846.1,310.6 846.6,309.5 847.2,308.3 847.8,307.3 848.3,305.6 848.9,302.9 849.4,301.2 850.0,301.2 850.5,302.1 851.1,301.6 851.6,300.9 852.2,299.3 852.7,298.8 853.3,297.3 853.8,296.9 854.4,297.5 854.9,299.2 855.5,298.1 856.0,296.4 856.6,293.3 857.1,291.6 857.7,291.7 858.2,290.0 858.8,289.5 859.3,290.2 859.9,288.6 860.4,286.2 861.0,283.2 861.6,282.5 862.1,283.3 862.7,284.7 863.2,284.6 863.8,285.0 864.3,282.3 864.9,283.3 865.4,284.7 866.0,283.6 866.5,281.1 867.1,277.8 867.6,275.2 868.2,275.1 868.7,275.8 869.3,275.9 869.8,274.2 870.4,272.0 870.9,268.6 871.5,266.0 872.0,261.9 872.6,259.5 873.1,258.3 873.7,257.3 874.2,254.2 874.8,250.7 875.4,247.7 875.9,243.0 876.5,238.4 877.0,236.2 877.6,234.9 878.1,233.7 878.7,232.3 879.2,229.8 879.8,227.8 880.3,226.0 880.9,223.3 881.4,223.7 882.0,220.1 882.5,216.4 883.1,217.6 883.6,215.8 884.2,215.0 884.7,213.6 885.3,211.8 885.8,208.4 886.4,204.4 886.9,202.6 887.5,201.6 888.0,200.1 888.6,201.0 889.2,199.2 889.7,198.1 890.3,197.2 890.8,196.7 891.4,198.3 891.9,198.3 892.5,198.3 893.0,198.9 893.6,199.0 894.1,200.3 894.7,199.6 895.2,200.8 895.8,201.7 896.3,200.1 896.9,197.8 897.4,196.0 898.0,196.3 898.5,195.8 899.1,197.8 899.6,197.6 900.2,197.4 900.7,200.5 901.3,200.0 901.8,202.9 902.4,204.0 903.0,204.4 903.5,206.5 904.1,206.8 904.6,206.1 905.2,203.3 905.7,200.5 906.3,201.5 906.8,202.2 907.4,202.5 907.9,202.5 908.5,203.3 909.0,205.0 909.6,206.4 910.1,208.3 910.7,208.8 911.2,206.7 911.8,208.3 912.3,207.1 912.9,204.8 913.4,207.0 914.0,206.8 914.5,207.0 915.1,206.3 915.6,206.6 916.2,204.4 916.8,204.4 917.3,202.0 917.9,200.1 918.4,202.2 919.0,200.8 919.5,199.0 920.1,198.3 920.6,196.6 921.2,196.9 921.7,198.0 922.3,202.2 922.8,203.5 923.4,203.8 923.9,204.6 924.5,204.6 925.0,205.0 925.6,204.4 926.1,203.4 926.7,202.4 927.2,200.0 927.8,200.0 928.3,201.6 928.9,201.1 929.4,201.1 930.0,202.9" fill="none" stroke="#111827" stroke-width="2.2"/>
<circle cx="70.0" cy="303.0" r="3" fill="#DC2626" opacity="0.75"/>
<circle cx="70.6" cy="340.7" r="3" fill="#DC2626" opacity="0.75"/>
<circle cx="71.7" cy="340.8" r="3" fill="#DC2626" opacity="0.75"/>
<circle cx="80.5" cy="336.4" r="3" fill="#DC2626" opacity="0.75"/>
<circle cx="402.3" cy="346.3" r="3" fill="#DC2626" opacity="0.75"/>
<circle cx="527.0" cy="340.0" r="3" fill="#DC2626" opacity="0.75"/>
<circle cx="574.5" cy="337.4" r="3" fill="#DC2626" opacity="0.75"/>
<circle cx="599.9" cy="338.1" r="3" fill="#DC2626" opacity="0.75"/>
<circle cx="620.3" cy="334.8" r="3" fill="#DC2626" opacity="0.75"/>
<circle cx="626.4" cy="339.5" r="3" fill="#DC2626" opacity="0.75"/>
<circle cx="635.2" cy="329.9" r="3" fill="#DC2626" opacity="0.75"/>
<circle cx="647.4" cy="333.4" r="3" fill="#DC2626" opacity="0.75"/>
<circle cx="651.2" cy="337.4" r="3" fill="#DC2626" opacity="0.75"/>
<circle cx="652.3" cy="335.0" r="3" fill="#DC2626" opacity="0.75"/>
<circle cx="655.7" cy="333.2" r="3" fill="#DC2626" opacity="0.75"/>
<circle cx="676.6" cy="327.9" r="3" fill="#DC2626" opacity="0.75"/>
<circle cx="682.2" cy="327.3" r="3" fill="#DC2626" opacity="0.75"/>
<circle cx="688.2" cy="327.5" r="3" fill="#DC2626" opacity="0.75"/>
<circle cx="688.8" cy="323.7" r="3" fill="#DC2626" opacity="0.75"/>
<circle cx="689.3" cy="327.9" r="3" fill="#DC2626" opacity="0.75"/>
<circle cx="692.1" cy="323.4" r="3" fill="#DC2626" opacity="0.75"/>
<circle cx="702.0" cy="330.9" r="3" fill="#DC2626" opacity="0.75"/>
<circle cx="703.7" cy="317.0" r="3" fill="#DC2626" opacity="0.75"/>
<circle cx="712.5" cy="329.2" r="3" fill="#DC2626" opacity="0.75"/>
<circle cx="723.6" cy="322.7" r="3" fill="#DC2626" opacity="0.75"/>
<circle cx="724.7" cy="329.4" r="3" fill="#DC2626" opacity="0.75"/>
<circle cx="728.5" cy="330.8" r="3" fill="#DC2626" opacity="0.75"/>
<circle cx="731.3" cy="317.6" r="3" fill="#DC2626" opacity="0.75"/>
<circle cx="746.7" cy="325.8" r="3" fill="#DC2626" opacity="0.75"/>
<circle cx="773.2" cy="326.4" r="3" fill="#DC2626" opacity="0.75"/>
<circle cx="777.1" cy="318.2" r="3" fill="#DC2626" opacity="0.75"/>
<circle cx="782.6" cy="321.2" r="3" fill="#DC2626" opacity="0.75"/>
<circle cx="789.8" cy="313.6" r="3" fill="#DC2626" opacity="0.75"/>
<circle cx="790.9" cy="314.7" r="3" fill="#DC2626" opacity="0.75"/>
<circle cx="793.7" cy="317.1" r="3" fill="#DC2626" opacity="0.75"/>
<circle cx="794.2" cy="302.5" r="3" fill="#DC2626" opacity="0.75"/>
<circle cx="803.6" cy="317.4" r="3" fill="#DC2626" opacity="0.75"/>
<circle cx="804.1" cy="311.2" r="3" fill="#DC2626" opacity="0.75"/>
<circle cx="804.7" cy="314.2" r="3" fill="#DC2626" opacity="0.75"/>
<circle cx="807.5" cy="306.4" r="3" fill="#DC2626" opacity="0.75"/>
<circle cx="809.7" cy="310.7" r="3" fill="#DC2626" opacity="0.75"/>
<circle cx="811.9" cy="301.0" r="3" fill="#DC2626" opacity="0.75"/>
<circle cx="819.6" cy="322.0" r="3" fill="#DC2626" opacity="0.75"/>
<circle cx="820.2" cy="316.8" r="3" fill="#DC2626" opacity="0.75"/>
<circle cx="824.6" cy="318.9" r="3" fill="#DC2626" opacity="0.75"/>
<circle cx="825.1" cy="322.8" r="3" fill="#DC2626" opacity="0.75"/>
<circle cx="825.7" cy="320.9" r="3" fill="#DC2626" opacity="0.75"/>
<circle cx="826.2" cy="295.1" r="3" fill="#DC2626" opacity="0.75"/>
<circle cx="828.4" cy="319.0" r="3" fill="#DC2626" opacity="0.75"/>
<circle cx="831.7" cy="315.9" r="3" fill="#DC2626" opacity="0.75"/>
<circle cx="832.3" cy="312.1" r="3" fill="#DC2626" opacity="0.75"/>
<circle cx="832.8" cy="320.3" r="3" fill="#DC2626" opacity="0.75"/>
<circle cx="836.7" cy="294.5" r="3" fill="#DC2626" opacity="0.75"/>
<circle cx="837.3" cy="312.4" r="3" fill="#DC2626" opacity="0.75"/>
<circle cx="841.7" cy="269.2" r="3" fill="#DC2626" opacity="0.75"/>
<circle cx="842.2" cy="303.6" r="3" fill="#DC2626" opacity="0.75"/>
<circle cx="842.8" cy="305.2" r="3" fill="#DC2626" opacity="0.75"/>
<circle cx="843.9" cy="296.6" r="3" fill="#DC2626" opacity="0.75"/>
<circle cx="845.5" cy="285.6" r="3" fill="#DC2626" opacity="0.75"/>
<circle cx="846.1" cy="291.0" r="3" fill="#DC2626" opacity="0.75"/>
<circle cx="848.3" cy="296.5" r="3" fill="#DC2626" opacity="0.75"/>
<circle cx="848.9" cy="283.0" r="3" fill="#DC2626" opacity="0.75"/>
<circle cx="852.7" cy="279.6" r="3" fill="#DC2626" opacity="0.75"/>
<circle cx="853.3" cy="259.8" r="3" fill="#DC2626" opacity="0.75"/>
<circle cx="853.8" cy="273.7" r="3" fill="#DC2626" opacity="0.75"/>
<circle cx="856.6" cy="275.7" r="3" fill="#DC2626" opacity="0.75"/>
<circle cx="857.1" cy="267.0" r="3" fill="#DC2626" opacity="0.75"/>
<circle cx="863.8" cy="270.6" r="3" fill="#DC2626" opacity="0.75"/>
<circle cx="864.3" cy="261.0" r="3" fill="#DC2626" opacity="0.75"/>
<circle cx="864.9" cy="239.0" r="3" fill="#DC2626" opacity="0.75"/>
<circle cx="865.4" cy="243.5" r="3" fill="#DC2626" opacity="0.75"/>
<circle cx="866.5" cy="270.9" r="3" fill="#DC2626" opacity="0.75"/>
<circle cx="868.2" cy="258.4" r="3" fill="#DC2626" opacity="0.75"/>
<circle cx="868.7" cy="226.2" r="3" fill="#DC2626" opacity="0.75"/>
<circle cx="869.3" cy="238.5" r="3" fill="#DC2626" opacity="0.75"/>
<circle cx="869.8" cy="257.7" r="3" fill="#DC2626" opacity="0.75"/>
<circle cx="872.6" cy="206.1" r="3" fill="#DC2626" opacity="0.75"/>
<circle cx="874.2" cy="233.3" r="3" fill="#DC2626" opacity="0.75"/>
<circle cx="874.8" cy="217.7" r="3" fill="#DC2626" opacity="0.75"/>
<circle cx="875.4" cy="215.8" r="3" fill="#DC2626" opacity="0.75"/>
<circle cx="875.9" cy="219.6" r="3" fill="#DC2626" opacity="0.75"/>
<circle cx="878.7" cy="217.2" r="3" fill="#DC2626" opacity="0.75"/>
<circle cx="879.2" cy="204.2" r="3" fill="#DC2626" opacity="0.75"/>
<circle cx="880.9" cy="196.1" r="3" fill="#DC2626" opacity="0.75"/>
<circle cx="882.0" cy="208.4" r="3" fill="#DC2626" opacity="0.75"/>
<circle cx="882.5" cy="145.0" r="3" fill="#DC2626" opacity="0.75"/>
<circle cx="883.1" cy="177.6" r="3" fill="#DC2626" opacity="0.75"/>
<circle cx="883.6" cy="178.3" r="3" fill="#DC2626" opacity="0.75"/>
<circle cx="884.2" cy="177.1" r="3" fill="#DC2626" opacity="0.75"/>
<circle cx="884.7" cy="183.3" r="3" fill="#DC2626" opacity="0.75"/>
<circle cx="885.3" cy="190.7" r="3" fill="#DC2626" opacity="0.75"/>
<circle cx="885.8" cy="185.6" r="3" fill="#DC2626" opacity="0.75"/>
<circle cx="891.9" cy="160.0" r="3" fill="#DC2626" opacity="0.75"/>
<circle cx="893.0" cy="176.4" r="3" fill="#DC2626" opacity="0.75"/>
<circle cx="894.7" cy="162.0" r="3" fill="#DC2626" opacity="0.75"/>
<circle cx="895.2" cy="172.8" r="3" fill="#DC2626" opacity="0.75"/>
<circle cx="895.8" cy="188.5" r="3" fill="#DC2626" opacity="0.75"/>
<circle cx="896.3" cy="158.2" r="3" fill="#DC2626" opacity="0.75"/>
<circle cx="897.4" cy="162.3" r="3" fill="#DC2626" opacity="0.75"/>
<circle cx="898.0" cy="162.0" r="3" fill="#DC2626" opacity="0.75"/>
<circle cx="900.2" cy="175.0" r="3" fill="#DC2626" opacity="0.75"/>
<circle cx="900.7" cy="180.3" r="3" fill="#DC2626" opacity="0.75"/>
<circle cx="901.8" cy="186.5" r="3" fill="#DC2626" opacity="0.75"/>
<circle cx="903.0" cy="162.3" r="3" fill="#DC2626" opacity="0.75"/>
<circle cx="904.6" cy="154.7" r="3" fill="#DC2626" opacity="0.75"/>
<circle cx="905.2" cy="186.3" r="3" fill="#DC2626" opacity="0.75"/>
<circle cx="909.6" cy="177.7" r="3" fill="#DC2626" opacity="0.75"/>
<circle cx="912.3" cy="182.6" r="3" fill="#DC2626" opacity="0.75"/>
<circle cx="912.9" cy="166.0" r="3" fill="#DC2626" opacity="0.75"/>
<circle cx="913.4" cy="73.3" r="3" fill="#DC2626" opacity="0.75"/>
<circle cx="914.0" cy="164.7" r="3" fill="#DC2626" opacity="0.75"/>
<circle cx="914.5" cy="194.9" r="3" fill="#DC2626" opacity="0.75"/>
<circle cx="915.1" cy="182.9" r="3" fill="#DC2626" opacity="0.75"/>
<circle cx="916.2" cy="194.6" r="3" fill="#DC2626" opacity="0.75"/>
<circle cx="919.5" cy="168.9" r="3" fill="#DC2626" opacity="0.75"/>
<circle cx="921.2" cy="172.7" r="3" fill="#DC2626" opacity="0.75"/>
<circle cx="922.3" cy="177.7" r="3" fill="#DC2626" opacity="0.75"/>
<circle cx="925.6" cy="188.7" r="3" fill="#DC2626" opacity="0.75"/>
<circle cx="928.3" cy="188.0" r="3" fill="#DC2626" opacity="0.75"/>
<circle cx="928.9" cy="176.3" r="3" fill="#DC2626" opacity="0.75"/>
<circle cx="929.4" cy="192.2" r="3" fill="#DC2626" opacity="0.75"/>
<text x="70.0" y="400" text-anchor="middle" font-family="Arial" font-size="11" fill="#6B7280">2022-02-25</text>
<text x="284.7" y="400" text-anchor="middle" font-family="Arial" font-size="11" fill="#6B7280">2023-03-21</text>
<text x="500.0" y="400" text-anchor="middle" font-family="Arial" font-size="11" fill="#6B7280">2024-04-14</text>
<text x="714.7" y="400" text-anchor="middle" font-family="Arial" font-size="11" fill="#6B7280">2025-05-08</text>
<text x="930.0" y="400" text-anchor="middle" font-family="Arial" font-size="11" fill="#6B7280">2026-06-02</text>
<line x1="760" y1="58" x2="778" y2="58" stroke="#2563EB" stroke-width="3"/>
<text x="785" y="62" font-family="Arial" font-size="12" fill="#374151">每日装备损耗</text>
<line x1="760" y1="78" x2="778" y2="78" stroke="#111827" stroke-width="3"/>
<text x="785" y="82" font-family="Arial" font-size="12" fill="#374151">31日趋势</text>
</svg>