<svg xmlns="http://www.w3.org/2000/svg" width="960" height="420" viewBox="0 0 960 420">
<rect width="100%" height="100%" fill="#ffffff"/>
<text x="70" y="28" font-family="Arial, sans-serif" font-size="20" font-weight="700" fill="#111827">STL 类分解：趋势、周季节、突发残差</text>
<text x="20" y="210.0" transform="rotate(-90 20 210.0)" font-family="Arial, sans-serif" font-size="12" fill="#374151">component scale</text>
<line x1="70" y1="50.0" x2="930" y2="50.0" stroke="#E5E7EB"/>
<text x="62" y="54.0" text-anchor="end" font-family="Arial" font-size="11" fill="#6B7280">2492</text>
<line x1="70" y1="128.8" x2="930" y2="128.8" stroke="#E5E7EB"/>
<text x="62" y="132.8" text-anchor="end" font-family="Arial" font-size="11" fill="#6B7280">1869</text>
<line x1="70" y1="207.5" x2="930" y2="207.5" stroke="#E5E7EB"/>
<text x="62" y="211.5" text-anchor="end" font-family="Arial" font-size="11" fill="#6B7280">1246</text>
<line x1="70" y1="286.2" x2="930" y2="286.2" stroke="#E5E7EB"/>
<text x="62" y="290.2" text-anchor="end" font-family="Arial" font-size="11" fill="#6B7280">623</text>
<line x1="70" y1="365.0" x2="930" y2="365.0" stroke="#E5E7EB"/>
<text x="62" y="369.0" text-anchor="end" font-family="Arial" font-size="11" fill="#6B7280">0</text>
<line x1="70" y1="365" x2="930" y2="365" stroke="#9CA3AF"/>
<line x1="70" y1="50" x2="70" y2="365" stroke="#9CA3AF"/>
<polyline points="70.0,344.5 70.6,345.2 71.1,345.8 71.7,346.2 72.2,344.8 72.8,344.9 73.3,345.5 73.9,345.9 74.4,346.2 75.0,346.4 75.5,346.6 76.1,347.0 76.6,347.2 77.2,347.2 77.7,347.4 78.3,347.7 78.8,350.9 79.4,351.9 79.9,351.7 80.5,352.8 81.0,353.0 81.6,353.2 82.1,353.1 82.7,353.4 83.2,353.2 83.8,353.6 84.4,353.5 84.9,353.8 85.5,354.0 86.0,354.2 86.6,354.5 87.1,354.6 87.7,354.6 88.2,354.7 88.8,355.0 89.3,356.4 89.9,356.6 90.4,356.5 91.0,356.6 91.5,356.7 92.1,357.0 92.6,357.0 93.2,356.9 93.7,356.9 94.3,357.3 94.8,356.9 95.4,356.8 95.9,356.5 96.5,356.5 97.0,356.4 97.6,355.9 98.2,355.6 98.7,355.3 99.3,355.2 99.8,354.9 100.4,355.0 100.9,354.7 101.5,354.7 102.0,354.4 102.6,354.1 103.1,354.0 103.7,353.8 104.2,353.8 104.8,353.7 105.3,353.7 105.9,353.5 106.4,353.4 107.0,353.2 107.5,353.3 108.1,353.3 108.6,353.3 109.2,353.3 109.7,353.4 110.3,353.6 110.8,353.8 111.4,353.8 112.0,354.4 112.5,354.6 113.1,355.0 113.6,355.0 114.2,355.0 114.7,355.4 115.3,355.8 115.8,356.1 116.4,356.4 116.9,356.7 117.5,356.8 118.0,357.0 118.6,357.2 119.1,357.4 119.7,357.5 120.2,357.7 120.8,357.8 121.3,358.0 121.9,358.2 122.4,358.3 123.0,358.4 123.5,358.5 124.1,358.7 124.6,358.9 125.2,359.0 125.8,358.9 126.3,359.1 126.9,359.2 127.4,359.3 128.0,359.3 128.5,359.4 129.1,359.2 129.6,359.1 130.2,359.1 130.7,359.3 131.3,359.4 131.8,359.6 132.4,359.8 132.9,359.9 133.5,359.9 134.0,359.9 134.6,360.0 135.1,359.8 135.7,359.9 136.2,359.9 136.8,360.1 137.3,360.3 137.9,360.4 138.4,360.3 139.0,360.3 139.6,360.3 140.1,360.4 140.7,360.4 141.2,360.5 141.8,360.4 142.3,360.4 142.9,360.6 143.4,360.5 144.0,360.5 144.5,360.4 145.1,360.4 145.6,360.5 146.2,360.6 146.7,360.7 147.3,360.7 147.8,360.6 148.4,360.6 148.9,360.6 149.5,360.6 150.0,360.4 150.6,360.5 151.1,360.5 151.7,360.5 152.2,360.7 152.8,360.6 153.4,360.5 153.9,360.4 154.5,360.3 155.0,360.2 155.6,360.2 156.1,360.3 156.7,360.3 157.2,360.3 157.8,360.2 158.3,359.9 158.9,359.9 159.4,359.9 160.0,359.8 160.5,359.9 161.1,360.0 161.6,360.1 162.2,360.1 162.7,360.1 163.3,360.2 163.8,360.1 164.4,359.9 164.9,359.8 165.5,359.6 166.0,359.4 166.6,359.1 167.2,359.1 167.7,358.9 168.3,358.7 168.8,358.4 169.4,358.1 169.9,357.8 170.5,357.6 171.0,357.5 171.6,357.4 172.1,357.2 172.7,357.1 173.2,357.0 173.8,356.9 174.3,356.9 174.9,356.9 175.4,357.3 176.0,357.3 176.5,357.1 177.1,357.0 177.6,356.6 178.2,356.5 178.7,356.3 179.3,356.1 179.8,355.9 180.4,355.8 180.9,355.8 181.5,355.8 182.1,355.9 182.6,355.9 183.2,356.0 183.7,356.1 184.3,356.1 184.8,356.0 185.4,356.0 185.9,356.2 186.5,356.3 187.0,356.5 187.6,356.4 188.1,356.4 188.7,356.2 189.2,356.2 189.8,356.3 190.3,356.3 190.9,356.3 191.4,356.0 192.0,355.9 192.5,355.7 193.1,355.7 193.6,355.8 194.2,355.7 194.7,356.0 195.3,355.9 195.9,355.9 196.4,356.0 197.0,356.1 197.5,355.9 198.1,355.7 198.6,355.8 199.2,355.7 199.7,355.6 200.3,355.5 200.8,355.5 201.4,355.5 201.9,355.7 202.5,356.0 203.0,355.9 203.6,356.0 204.1,356.1 204.7,356.3 205.2,356.2 205.8,356.6 206.3,356.7 206.9,356.5 207.4,356.1 208.0,356.3 208.5,356.6 209.1,356.8 209.7,357.1 210.2,357.2 210.8,357.2 211.3,357.6 211.9,357.4 212.4,357.6 213.0,357.9 213.5,358.0 214.1,358.2 214.6,358.4 215.2,358.8 215.7,358.9 216.3,359.2 216.8,359.5 217.4,359.7 217.9,359.9 218.5,359.8 219.0,359.7 219.6,359.8 220.1,360.1 220.7,360.3 221.2,360.4 221.8,360.5 222.3,360.8 222.9,360.8 223.5,360.8 224.0,361.0 224.6,361.2 225.1,361.3 225.7,361.3 226.2,361.1 226.8,361.0 227.3,360.9 227.9,361.0 228.4,360.9 229.0,361.1 229.5,361.1 230.1,361.1 230.6,361.0 231.2,360.9 231.7,360.5 232.3,360.4 232.8,360.1 233.4,360.0 233.9,359.9 234.5,359.9 235.0,359.9 235.6,359.9 236.1,360.1 236.7,360.0 237.3,359.9 237.8,359.8 238.4,359.8 238.9,359.9 239.5,359.9 240.0,359.8 240.6,359.9 241.1,359.7 241.7,359.9 242.2,359.8 242.8,359.8 243.3,359.9 243.9,359.9 244.4,359.8 245.0,359.8 245.5,359.8 246.1,359.6 246.6,359.4 247.2,359.0 247.7,358.8 248.3,358.8 248.8,359.3 249.4,359.4 249.9,359.6 250.5,359.8 251.1,359.9 251.6,359.8 252.2,359.9 252.7,360.1 253.3,359.9 253.8,359.8 254.4,359.9 254.9,359.9 255.5,359.5 256.0,359.2 256.6,359.3 257.1,359.3 257.7,359.4 258.2,359.5 258.8,359.4 259.3,359.4 259.9,359.5 260.4,359.4 261.0,359.5 261.5,359.6 262.1,359.4 262.6,359.3 263.2,359.4 263.7,359.7 264.3,360.1 264.9,360.2 265.4,360.2 266.0,360.1 266.5,360.0 267.1,360.0 267.6,359.9 268.2,359.7 268.7,359.6 269.3,359.6 269.8,359.7 270.4,359.5 270.9,359.5 271.5,359.6 272.0,359.5 272.6,359.7 273.1,359.8 273.7,359.5 274.2,359.5 274.8,359.4 275.3,359.3 275.9,359.4 276.4,359.3 277.0,359.2 277.5,359.0 278.1,358.9 278.7,358.8 279.2,358.8 279.8,358.9 280.3,358.8 280.9,358.8 281.4,358.8 282.0,358.8 282.5,358.8 283.1,358.9 283.6,358.9 284.2,358.9 284.7,359.0 285.3,359.1 285.8,359.2 286.4,359.2 286.9,359.2 287.5,359.3 288.0,359.3 288.6,359.3 289.1,359.4 289.7,359.5 290.2,359.7 290.8,359.8 291.3,359.8 291.9,359.8 292.5,359.8 293.0,359.8 293.6,359.9 294.1,360.0 294.7,360.3 295.2,360.3 295.8,360.1 296.3,360.1 296.9,360.0 297.4,360.0 298.0,359.9 298.5,360.0 299.1,360.0 299.6,360.0 300.2,359.8 300.7,359.6 301.3,359.4 301.8,359.3 302.4,359.1 302.9,358.9 303.5,358.9 304.0,358.8 304.6,358.7 305.1,358.7 305.7,358.4 306.3,358.2 306.8,358.0 307.4,357.8 307.9,357.6 308.5,357.5 309.0,357.4 309.6,357.3 310.1,357.1 310.7,357.0 311.2,356.7 311.8,356.5 312.3,356.5 312.9,356.7 313.4,356.5 314.0,356.2 314.5,355.9 315.1,355.7 315.6,355.5 316.2,355.4 316.7,355.1 317.3,354.9 317.8,354.9 318.4,355.0 318.9,354.6 319.5,354.5 320.1,354.3 320.6,354.0 321.2,353.9 321.7,353.6 322.3,353.6 322.8,353.9 323.4,353.9 323.9,353.9 324.5,353.8 325.0,353.7 325.6,353.7 326.1,353.6 326.7,353.6 327.2,353.4 327.8,353.3 328.3,353.3 328.9,353.1 329.4,353.1 330.0,353.0 330.5,353.0 331.1,353.5 331.6,353.7 332.2,354.0 332.7,353.9 333.3,353.6 333.9,353.7 334.4,353.9 335.0,353.8 335.5,353.6 336.1,354.0 336.6,354.1 337.2,354.2 337.7,354.6 338.3,354.6 338.8,354.8 339.4,354.6 339.9,354.3 340.5,354.3 341.0,354.4 341.6,354.4 342.1,354.5 342.7,354.3 343.2,354.2 343.8,354.3 344.3,354.5 344.9,354.4 345.4,354.6 346.0,354.7 346.5,354.7 347.1,354.6 347.7,354.7 348.2,354.7 348.8,354.7 349.3,354.5 349.9,354.5 350.4,354.6 351.0,354.5 351.5,354.5 352.1,354.6 352.6,354.7 353.2,354.6 353.7,354.7 354.3,354.7 354.8,354.6 355.4,354.5 355.9,354.7 356.5,354.8 357.0,354.9 357.6,354.7 358.1,354.5 358.7,354.4 359.2,354.6 359.8,354.8 360.3,354.9 360.9,354.9 361.5,354.8 362.0,354.9 362.6,354.8 363.1,354.8 363.7,354.7 364.2,354.7 364.8,354.8 365.3,354.4 365.9,354.2 366.4,354.0 367.0,353.9 367.5,353.8 368.1,353.8 368.6,353.6 369.2,353.4 369.7,353.4 370.3,353.2 370.8,352.8 371.4,352.6 371.9,352.5 372.5,352.4 373.0,352.0 373.6,351.9 374.1,351.7 374.7,351.7 375.3,351.8 375.8,352.0 376.4,351.8 376.9,351.5 377.5,351.4 378.0,351.1 378.6,351.0 379.1,351.0 379.7,351.0 380.2,351.0 380.8,350.9 381.3,350.9 381.9,350.8 382.4,350.8 383.0,350.9 383.5,350.9 384.1,350.8 384.6,350.8 385.2,350.7 385.7,350.9 386.3,350.8 386.8,350.5 387.4,350.6 387.9,351.2 388.5,351.5 389.1,351.2 389.6,351.0 390.2,350.8 390.7,350.8 391.3,351.0 391.8,350.9 392.4,350.9 392.9,350.9 393.5,350.8 394.0,350.3 394.6,350.4 395.1,350.6 395.7,350.8 396.2,350.8 396.8,350.6 397.3,350.3 397.9,350.7 398.4,350.8 399.0,351.0 399.5,351.0 400.1,350.8 400.6,350.7 401.2,350.5 401.7,350.4 402.3,350.4 402.8,350.5 403.4,350.9 404.0,351.2 404.5,351.1 405.1,350.6 405.6,350.6 406.2,350.6 406.7,350.9 407.3,351.4 407.8,351.5 408.4,351.2 408.9,351.2 409.5,351.1 410.0,351.0 410.6,351.1 411.1,352.0 411.7,352.3 412.2,352.3 412.8,352.0 413.3,351.9 413.9,352.1 414.4,352.0 415.0,352.0 415.5,352.3 416.1,351.7 416.6,351.8 417.2,351.9 417.8,352.1 418.3,352.7 418.9,353.0 419.4,353.2 420.0,352.6 420.5,352.3 421.1,352.2 421.6,352.6 422.2,353.0 422.7,352.8 423.3,353.3 423.8,353.5 424.4,353.1 424.9,353.0 425.5,353.5 426.0,353.2 426.6,352.8 427.1,352.7 427.7,352.8 428.2,352.3 428.8,352.0 429.3,351.7 429.9,351.9 430.4,351.7 431.0,351.4 431.6,351.7 432.1,351.2 432.7,350.6 433.2,350.6 433.8,350.2 434.3,350.2 434.9,349.7 435.4,349.2 436.0,349.0 436.5,349.0 437.1,349.5 437.6,349.4 438.2,349.5 438.7,349.5 439.3,349.4 439.8,349.5 440.4,349.5 440.9,349.4 441.5,349.4 442.0,349.4 442.6,349.0 443.1,349.5 443.7,349.6 444.2,349.5 444.8,349.7 445.4,350.1 445.9,350.1 446.5,349.8 447.0,349.3 447.6,349.2 448.1,349.5 448.7,349.7 449.2,350.1 449.8,350.2 450.3,350.3 450.9,350.3 451.4,350.4 452.0,350.5 452.5,350.8 453.1,350.8 453.6,351.1 454.2,350.9 454.7,351.1 455.3,350.8 455.8,350.6 456.4,350.4 456.9,350.4 457.5,350.3 458.0,350.2 458.6,349.8 459.2,349.5 459.7,349.6 460.3,349.6 460.8,349.7 461.4,349.7 461.9,349.1 462.5,348.3 463.0,348.0 463.6,348.2 464.1,348.6 464.7,349.0 465.2,348.8 465.8,348.6 466.3,348.4 466.9,348.1 467.4,348.1 468.0,347.9 468.5,347.8 469.1,348.0 469.6,347.7 470.2,347.2 470.7,346.5 471.3,346.3 471.8,345.8 472.4,345.5 473.0,345.1 473.5,344.9 474.1,344.6 474.6,344.6 475.2,344.7 475.7,345.0 476.3,345.2 476.8,345.0 477.4,344.7 477.9,345.1 478.5,345.1 479.0,345.1 479.6,345.1 480.1,345.0 480.7,345.1 481.2,345.1 481.8,345.0 482.3,344.9 482.9,344.5 483.4,344.3 484.0,344.3 484.5,344.4 485.1,344.7 485.6,344.9 486.2,344.8 486.8,344.5 487.3,344.5 487.9,344.3 488.4,344.3 489.0,344.3 489.5,344.4 490.1,344.6 490.6,344.5 491.2,344.2 491.7,343.9 492.3,343.6 492.8,343.7 493.4,343.9 493.9,344.4 494.5,344.4 495.0,344.2 495.6,343.8 496.1,344.2 496.7,344.8 497.2,345.1 497.8,345.3 498.3,345.3 498.9,345.3 499.4,345.3 500.0,345.5 500.6,345.7 501.1,346.0 501.7,346.0 502.2,345.8 502.8,345.4 503.3,345.1 503.9,345.3 504.4,345.6 505.0,346.3 505.5,346.0 506.1,345.9 506.6,345.8 507.2,345.8 507.7,345.8 508.3,345.9 508.8,345.9 509.4,345.9 509.9,345.5 510.5,345.0 511.0,344.3 511.6,343.8 512.1,343.4 512.7,343.5 513.2,343.0 513.8,342.8 514.4,342.9 514.9,343.0 515.5,342.8 516.0,342.6 516.6,342.5 517.1,342.4 517.7,342.0 518.2,341.5 518.8,340.8 519.3,340.7 519.9,340.6 520.4,340.8 521.0,340.6 521.5,340.5 522.1,340.1 522.6,340.1 523.2,340.3 523.7,340.4 524.3,340.5 524.8,340.5 525.4,340.5 525.9,340.3 526.5,340.5 527.0,340.9 527.6,341.2 528.2,341.5 528.7,341.8 529.3,342.1 529.8,342.4 530.4,342.3 530.9,342.2 531.5,342.1 532.0,341.9 532.6,342.0 533.1,341.8 533.7,341.8 534.2,341.6 534.8,341.5 535.3,341.6 535.9,342.2 536.4,342.2 537.0,342.3 537.5,342.1 538.1,342.3 538.6,342.3 539.2,342.3 539.7,342.5 540.3,342.5 540.8,342.5 541.4,342.3 542.0,342.2 542.5,342.0 543.1,342.1 543.6,342.0 544.2,341.4 544.7,341.1 545.3,341.2 545.8,340.9 546.4,340.4 546.9,340.2 547.5,340.1 548.0,339.9 548.6,339.8 549.1,339.4 549.7,339.2 550.2,339.3 550.8,339.2 551.3,339.5 551.9,339.2 552.4,339.4 553.0,339.3 553.5,339.2 554.1,339.1 554.6,339.5 555.2,339.2 555.8,339.0 556.3,339.2 556.9,338.9 557.4,338.9 558.0,338.8 558.5,339.0 559.1,339.0 559.6,339.0 560.2,338.8 560.7,338.6 561.3,338.7 561.8,338.6 562.4,338.2 562.9,338.3 563.5,338.4 564.0,338.5 564.6,338.7 565.1,338.8 565.7,338.8 566.2,338.2 566.8,338.2 567.3,338.5 567.9,338.5 568.4,338.4 569.0,339.0 569.6,339.1 570.1,339.2 570.7,339.5 571.2,339.8 571.8,339.6 572.3,340.0 572.9,340.1 573.4,340.4 574.0,340.6 574.5,340.6 575.1,340.5 575.6,339.9 576.2,340.0 576.7,340.1 577.3,340.8 577.8,341.2 578.4,341.5 578.9,341.7 579.5,341.9 580.0,341.6 580.6,341.4 581.1,341.0 581.7,340.6 582.2,340.2 582.8,339.7 583.4,340.0 583.9,339.7 584.5,339.0 585.0,339.1 585.6,338.7 586.1,338.8 586.7,338.5 587.2,338.1 587.8,337.7 588.3,337.3 588.9,337.0 589.4,336.6 590.0,336.9 590.5,336.6 591.1,336.2 591.6,335.5 592.2,335.7 592.7,336.5 593.3,336.8 593.8,336.9 594.4,336.2 594.9,335.7 595.5,335.5 596.0,335.5 596.6,335.5 597.2,335.7 597.7,335.7 598.3,335.8 598.8,335.9 599.4,336.1 599.9,336.4 600.5,336.5 601.0,336.6 601.6,337.0 602.1,336.4 602.7,336.8 603.2,336.7 603.8,336.7 604.3,336.9 604.9,337.3 605.4,337.7 606.0,338.1 606.5,337.8 607.1,337.6 607.6,337.4 608.2,337.4 608.7,337.7 609.3,337.3 609.8,336.4 610.4,336.1 610.9,336.2 611.5,336.3 612.1,335.6 612.6,335.2 613.2,334.8 613.7,334.6 614.3,335.4 614.8,335.5 615.4,336.3 615.9,336.3 616.5,336.5 617.0,336.5 617.6,337.0 618.1,336.6 618.7,336.4 619.2,337.2 619.8,336.8 620.3,336.9 620.9,336.9 621.4,337.1 622.0,337.0 622.5,337.2 623.1,337.6 623.6,338.5 624.2,339.0 624.7,339.6 625.3,340.4 625.9,340.9 626.4,341.6 627.0,340.9 627.5,341.0 628.1,341.2 628.6,341.4 629.2,342.4 629.7,342.4 630.3,342.5 630.8,342.6 631.4,342.2 631.9,342.6 632.5,342.3 633.0,342.5 633.6,342.6 634.1,343.1 634.7,343.0 635.2,343.4 635.8,343.8 636.3,343.8 636.9,344.1 637.4,344.3 638.0,344.1 638.5,343.8 639.1,342.9 639.7,341.8 640.2,341.7 640.8,341.0 641.3,340.3 641.9,339.8 642.4,339.5 643.0,338.6 643.5,338.2 644.1,338.5 644.6,337.7 645.2,337.4 645.7,337.5 646.3,337.6 646.8,337.4 647.4,336.7 647.9,336.0 648.5,335.8 649.0,335.6 649.6,335.4 650.1,335.8 650.7,335.8 651.2,335.5 651.8,335.3 652.3,335.5 652.9,335.2 653.5,334.6 654.0,334.3 654.6,333.5 655.1,333.1 655.7,332.8 656.2,333.3 656.8,333.6 657.3,333.1 657.9,333.0 658.4,332.6 659.0,331.8 659.5,331.0 660.1,330.7 660.6,329.9 661.2,330.1 661.7,330.7 662.3,330.1 662.8,329.2 663.4,328.0 663.9,327.7 664.5,327.9 665.0,327.9 665.6,327.6 666.1,326.8 666.7,326.3 667.3,325.3 667.8,324.4 668.4,323.2 668.9,322.8 669.5,321.9 670.0,321.7 670.6,321.9 671.1,322.0 671.7,322.3 672.2,322.8 672.8,322.8 673.3,322.3 673.9,321.4 674.4,320.6 675.0,320.7 675.5,321.3 676.1,321.5 676.6,322.1 677.2,322.2 677.7,323.0 678.3,323.1 678.8,322.7 679.4,322.8 679.9,322.1 680.5,321.6 681.1,321.2 681.6,321.2 682.2,321.5 682.7,322.0 683.3,322.1 683.8,321.1 684.4,321.0 684.9,321.1 685.5,322.5 686.0,323.1 686.6,324.2 687.1,324.2 687.7,324.3 688.2,323.9 688.8,323.7 689.3,323.8 689.9,324.3 690.4,325.0 691.0,325.6 691.5,325.9 692.1,325.7 692.6,324.8 693.2,324.4 693.7,323.5 694.3,323.6 694.9,322.9 695.4,321.6 696.0,321.1 696.5,321.7 697.1,323.3 697.6,324.3 698.2,324.7 698.7,324.9 699.3,324.5 699.8,323.8 700.4,324.0 700.9,325.3 701.5,325.8 702.0,325.9 702.6,325.3 703.1,324.6 703.7,323.9 704.2,323.0 704.8,322.7 705.3,322.7 705.9,322.4 706.4,321.8 707.0,321.9 707.5,322.0 708.1,322.6 708.7,322.4 709.2,322.3 709.8,322.8 710.3,323.0 710.9,323.3 711.4,323.7 712.0,324.3 712.5,326.0 713.1,326.5 713.6,326.7 714.2,326.1 714.7,326.0 715.3,325.4 715.8,325.1 716.4,324.8 716.9,325.0 717.5,325.6 718.0,325.9 718.6,326.3 719.1,326.3 719.7,326.2 720.2,325.7 720.8,325.4 721.3,325.7 721.9,326.0 722.5,326.0 723.0,324.8 723.6,324.6 724.1,324.0 724.7,323.1 725.2,322.2 725.8,322.5 726.3,322.9 726.9,323.0 727.4,323.5 728.0,324.2 728.5,324.2 729.1,323.5 729.6,323.5 730.2,323.8 730.7,323.4 731.3,323.1 731.8,323.1 732.4,324.0 732.9,324.3 733.5,325.1 734.0,325.6 734.6,324.5 735.1,324.0 735.7,323.4 736.3,323.5 736.8,324.0 737.4,325.0 737.9,325.0 738.5,324.5 739.0,323.9 739.6,323.6 740.1,325.0 740.7,324.8 741.2,324.3 741.8,324.6 742.3,324.9 742.9,324.4 743.4,324.2 744.0,323.4 744.5,322.7 745.1,321.8 745.6,321.7 746.2,322.0 746.7,321.1 747.3,320.3 747.8,319.7 748.4,320.0 748.9,320.5 749.5,320.6 750.1,320.5 750.6,320.2 751.2,319.6 751.7,320.0 752.3,320.3 752.8,320.5 753.4,320.6 753.9,320.2 754.5,319.6 755.0,320.3 755.6,321.2 756.1,321.3 756.7,321.5 757.2,321.0 757.8,321.4 758.3,321.9 758.9,321.8 759.4,322.3 760.0,323.4 760.5,322.8 761.1,323.2 761.6,323.5 762.2,324.0 762.7,323.9 763.3,323.6 763.9,323.7 764.4,323.4 765.0,323.0 765.5,322.9 766.1,322.8 766.6,322.4 767.2,322.8 767.7,322.7 768.3,322.1 768.8,320.9 769.4,319.7 769.9,318.8 770.5,318.3 771.0,318.3 771.6,317.7 772.1,316.8 772.7,316.4 773.2,316.0 773.8,315.6 774.3,315.0 774.9,314.9 775.4,314.4 776.0,314.1 776.5,313.6 777.1,312.2 777.7,312.3 778.2,311.8 778.8,311.5 779.3,310.8 779.9,309.9 780.4,310.4 781.0,310.2 781.5,309.3 782.1,309.1 782.6,307.4 783.2,306.3 783.7,305.7 784.3,304.9 784.8,304.3 785.4,303.7 785.9,302.9 786.5,303.2 787.0,304.1 787.6,304.3 788.1,304.1 788.7,303.9 789.2,304.0 789.8,303.7 790.3,303.5 790.9,303.3 791.5,304.1 792.0,304.0 792.6,304.5 793.1,304.9 793.7,305.0 794.2,304.8 794.8,304.1 795.3,303.3 795.9,302.0 796.4,301.4 797.0,301.1 797.5,300.0 798.1,300.4 798.6,302.0 799.2,301.2 799.7,301.4 800.3,301.7 800.8,302.7 801.4,301.5 801.9,302.4 802.5,303.3 803.0,304.6 803.6,302.9 804.1,302.3 804.7,301.6 805.3,300.9 805.8,300.8 806.4,300.3 806.9,301.2 807.5,301.7 808.0,302.4 808.6,301.7 809.1,302.6 809.7,302.7 810.2,303.0 810.8,303.4 811.3,303.4 811.9,303.1 812.4,303.6 813.0,305.3 813.5,306.6 814.1,307.7 814.6,307.8 815.2,308.6 815.7,308.4 816.3,309.1 816.8,309.3 817.4,308.8 817.9,306.3 818.5,307.8 819.1,308.4 819.6,309.3 820.2,308.9 820.7,311.0 821.3,312.2 821.8,313.6 822.4,314.2 822.9,314.3 823.5,313.7 824.0,311.9 824.6,310.8 825.1,310.1 825.7,311.1 826.2,310.6 826.8,310.3 827.3,309.7 827.9,308.5 828.4,307.0 829.0,306.7 829.5,307.2 830.1,306.4 830.6,305.6 831.2,305.0 831.7,306.2 832.3,306.5 832.8,305.2 833.4,302.5 834.0,301.5 834.5,300.6 835.1,302.7 835.6,300.4 836.2,299.3 836.7,297.8 837.3,296.0 837.8,293.3 838.4,290.5 838.9,288.4 839.5,288.5 840.0,287.1 840.6,285.3 841.1,285.9 841.7,286.8 842.2,285.6 842.8,283.7 843.3,281.4 843.9,281.0 844.4,278.1 845.0,274.6 845.5,273.5 846.1,273.2 846.6,271.3 847.2,269.2 847.8,267.5 848.3,264.8 848.9,260.2 849.4,257.3 850.0,257.2 850.5,258.8 851.1,258.0 851.6,256.7 852.2,254.1 852.7,253.2 853.3,250.6 853.8,250.0 854.4,251.1 854.9,254.0 855.5,252.1 856.0,249.2 856.6,243.9 857.1,241.0 857.7,241.2 858.2,238.4 858.8,237.6 859.3,238.7 859.9,236.0 860.4,231.9 861.0,227.0 861.6,225.8 862.1,227.2 862.7,229.4 863.2,229.3 863.8,230.0 864.3,225.4 864.9,227.2 865.4,229.4 866.0,227.6 866.5,223.3 867.1,217.7 867.6,213.5 868.2,213.3 868.7,214.5 869.3,214.5 869.8,211.7 870.4,208.1 870.9,202.2 871.5,197.9 872.0,191.0 872.6,187.0 873.1,185.0 873.7,183.3 874.2,177.9 874.8,172.0 875.4,166.9 875.9,159.0 876.5,151.4 877.0,147.7 877.6,145.5 878.1,143.4 878.7,141.1 879.2,136.7 879.8,133.5 880.3,130.3 880.9,125.9 881.4,126.5 882.0,120.4 882.5,114.1 883.1,116.2 883.6,113.1 884.2,111.8 884.7,109.5 885.3,106.4 885.8,100.6 886.4,93.9 886.9,90.8 887.5,89.2 888.0,86.7 888.6,88.2 889.2,85.2 889.7,83.4 890.3,81.7 890.8,81.0 891.4,83.7 891.9,83.5 892.5,83.6 893.0,84.6 893.6,84.8 894.1,87.1 894.7,85.8 895.2,87.8 895.8,89.3 896.3,86.6 896.9,82.8 897.4,79.8 898.0,80.2 898.5,79.4 899.1,82.7 899.6,82.5 900.2,82.1 900.7,87.3 901.3,86.4 901.8,91.5 902.4,93.3 903.0,93.9 903.5,97.4 904.1,97.9 904.6,96.7 905.2,92.1 905.7,87.3 906.3,89.0 906.8,90.2 907.4,90.7 907.9,90.6 908.5,92.0 909.0,94.9 909.6,97.3 910.1,100.6 910.7,101.3 911.2,97.8 911.8,100.4 912.3,98.4 912.9,94.6 913.4,98.4 914.0,97.9 914.5,98.3 915.1,97.1 915.6,97.6 916.2,94.0 916.8,94.0 917.3,89.9 917.9,86.7 918.4,90.2 919.0,87.8 919.5,84.7 920.1,83.6 920.6,80.8 921.2,81.3 921.7,83.2 922.3,90.2 922.8,92.4 923.4,92.9 923.9,94.2 924.5,94.3 925.0,95.0 925.6,94.0 926.1,92.2 926.7,90.6 927.2,86.4 927.8,86.4 928.3,89.2 928.9,88.3 929.4,88.4 930.0,91.4" fill="none" stroke="#111827" stroke-width="2.2"/>
<polyline points="70.0,323.5 70.6,323.0 71.1,321.2 71.7,323.8 72.2,323.0 72.8,322.5 73.3,322.9 73.9,323.5 74.4,323.0 75.0,321.2 75.5,323.8 76.1,323.0 76.6,322.5 77.2,322.9 77.7,323.5 78.3,323.0 78.8,321.2 79.4,323.8 79.9,323.0 80.5,322.5 81.0,322.9 81.6,323.5 82.1,323.0 82.7,321.2 83.2,323.8 83.8,323.0 84.4,322.5 84.9,322.9 85.5,323.5 86.0,323.0 86.6,321.2 87.1,323.8 87.7,323.0 88.2,322.5 88.8,322.9 89.3,323.5 89.9,323.0 90.4,321.2 91.0,323.8 91.5,323.0 92.1,322.5 92.6,322.9 93.2,323.5 93.7,323.0 94.3,321.2 94.8,323.8 95.4,323.0 95.9,322.5 96.5,322.9 97.0,323.5 97.6,323.0 98.2,321.2 98.7,323.8 99.3,323.0 99.8,322.5 100.4,322.9 100.9,323.5 101.5,323.0 102.0,321.2 102.6,323.8 103.1,323.0 103.7,322.5 104.2,322.9 104.8,323.5 105.3,323.0 105.9,321.2 106.4,323.8 107.0,323.0 107.5,322.5 108.1,322.9 108.6,323.5 109.2,323.0 109.7,321.2 110.3,323.8 110.8,323.0 111.4,322.5 112.0,322.9 112.5,323.5 113.1,323.0 113.6,321.2 114.2,323.8 114.7,323.0 115.3,322.5 115.8,322.9 116.4,323.5 116.9,323.0 117.5,321.2 118.0,323.8 118.6,323.0 119.1,322.5 119.7,322.9 120.2,323.5 120.8,323.0 121.3,321.2 121.9,323.8 122.4,323.0 123.0,322.5 123.5,322.9 124.1,323.5 124.6,323.0 125.2,321.2 125.8,323.8 126.3,323.0 126.9,322.5 127.4,322.9 128.0,323.5 128.5,323.0 129.1,321.2 129.6,323.8 130.2,323.0 130.7,322.5 131.3,322.9 131.8,323.5 132.4,323.0 132.9,321.2 133.5,323.8 134.0,323.0 134.6,322.5 135.1,322.9 135.7,323.5 136.2,323.0 136.8,321.2 137.3,323.8 137.9,323.0 138.4,322.5 139.0,322.9 139.6,323.5 140.1,323.0 140.7,321.2 141.2,323.8 141.8,323.0 142.3,322.5 142.9,322.9 143.4,323.5 144.0,323.0 144.5,321.2 145.1,323.8 145.6,323.0 146.2,322.5 146.7,322.9 147.3,323.5 147.8,323.0 148.4,321.2 148.9,323.8 149.5,323.0 150.0,322.5 150.6,322.9 151.1,323.5 151.7,323.0 152.2,321.2 152.8,323.8 153.4,323.0 153.9,322.5 154.5,322.9 155.0,323.5 155.6,323.0 156.1,321.2 156.7,323.8 157.2,323.0 157.8,322.5 158.3,322.9 158.9,323.5 159.4,323.0 160.0,321.2 160.5,323.8 161.1,323.0 161.6,322.5 162.2,322.9 162.7,323.5 163.3,323.0 163.8,321.2 164.4,323.8 164.9,323.0 165.5,322.5 166.0,322.9 166.6,323.5 167.2,323.0 167.7,321.2 168.3,323.8 168.8,323.0 169.4,322.5 169.9,322.9 170.5,323.5 171.0,323.0 171.6,321.2 172.1,323.8 172.7,323.0 173.2,322.5 173.8,322.9 174.3,323.5 174.9,323.0 175.4,321.2 176.0,323.8 176.5,323.0 177.1,322.5 177.6,322.9 178.2,323.5 178.7,323.0 179.3,321.2 179.8,323.8 180.4,323.0 180.9,322.5 181.5,322.9 182.1,323.5 182.6,323.0 183.2,321.2 183.7,323.8 184.3,323.0 184.8,322.5 185.4,322.9 185.9,323.5 186.5,323.0 187.0,321.2 187.6,323.8 188.1,323.0 188.7,322.5 189.2,322.9 189.8,323.5 190.3,323.0 190.9,321.2 191.4,323.8 192.0,323.0 192.5,322.5 193.1,322.9 193.6,323.5 194.2,323.0 194.7,321.2 195.3,323.8 195.9,323.0 196.4,322.5 197.0,322.9 197.5,323.5 198.1,323.0 198.6,321.2 199.2,323.8 199.7,323.0 200.3,322.5 200.8,322.9 201.4,323.5 201.9,323.0 202.5,321.2 203.0,323.8 203.6,323.0 204.1,322.5 204.7,322.9 205.2,323.5 205.8,323.0 206.3,321.2 206.9,323.8 207.4,323.0 208.0,322.5 208.5,322.9 209.1,323.5 209.7,323.0 210.2,321.2 210.8,323.8 211.3,323.0 211.9,322.5 212.4,322.9 213.0,323.5 213.5,323.0 214.1,321.2 214.6,323.8 215.2,323.0 215.7,322.5 216.3,322.9 216.8,323.5 217.4,323.0 217.9,321.2 218.5,323.8 219.0,323.0 219.6,322.5 220.1,322.9 220.7,323.5 221.2,323.0 221.8,321.2 222.3,323.8 222.9,323.0 223.5,322.5 224.0,322.9 224.6,323.5 225.1,323.0 225.7,321.2 226.2,323.8 226.8,323.0 227.3,322.5 227.9,322.9 228.4,323.5 229.0,323.0 229.5,321.2 230.1,323.8 230.6,323.0 231.2,322.5 231.7,322.9 232.3,323.5 232.8,323.0 233.4,321.2 233.9,323.8 234.5,323.0 235.0,322.5 235.6,322.9 236.1,323.5 236.7,323.0 237.3,321.2 237.8,323.8 238.4,323.0 238.9,322.5 239.5,322.9 240.0,323.5 240.6,323.0 241.1,321.2 241.7,323.8 242.2,323.0 242.8,322.5 243.3,322.9 243.9,323.5 244.4,323.0 245.0,321.2 245.5,323.8 246.1,323.0 246.6,322.5 247.2,322.9 247.7,323.5 248.3,323.0 248.8,321.2 249.4,323.8 249.9,323.0 250.5,322.5 251.1,322.9 251.6,323.5 252.2,323.0 252.7,321.2 253.3,323.8 253.8,323.0 254.4,322.5 254.9,322.9 255.5,323.5 256.0,323.0 256.6,321.2 257.1,323.8 257.7,323.0 258.2,322.5 258.8,322.9 259.3,323.5 259.9,323.0 260.4,321.2 261.0,323.8 261.5,323.0 262.1,322.5 262.6,322.9 263.2,323.5 263.7,323.0 264.3,321.2 264.9,323.8 265.4,323.0 266.0,322.5 266.5,322.9 267.1,323.5 267.6,323.0 268.2,321.2 268.7,323.8 269.3,323.0 269.8,322.5 270.4,322.9 270.9,323.5 271.5,323.0 272.0,321.2 272.6,323.8 273.1,323.0 273.7,322.5 274.2,322.9 274.8,323.5 275.3,323.0 275.9,321.2 276.4,323.8 277.0,323.0 277.5,322.5 278.1,322.9 278.7,323.5 279.2,323.0 279.8,321.2 280.3,323.8 280.9,323.0 281.4,322.5 282.0,322.9 282.5,323.5 283.1,323.0 283.6,321.2 284.2,323.8 284.7,323.0 285.3,322.5 285.8,322.9 286.4,323.5 286.9,323.0 287.5,321.2 288.0,323.8 288.6,323.0 289.1,322.5 289.7,322.9 290.2,323.5 290.8,323.0 291.3,321.2 291.9,323.8 292.5,323.0 293.0,322.5 293.6,322.9 294.1,323.5 294.7,323.0 295.2,321.2 295.8,323.8 296.3,323.0 296.9,322.5 297.4,322.9 298.0,323.5 298.5,323.0 299.1,321.2 299.6,323.8 300.2,323.0 300.7,322.5 301.3,322.9 301.8,323.5 302.4,323.0 302.9,321.2 303.5,323.8 304.0,323.0 304.6,322.5 305.1,322.9 305.7,323.5 306.3,323.0 306.8,321.2 307.4,323.8 307.9,323.0 308.5,322.5 309.0,322.9 309.6,323.5 310.1,323.0 310.7,321.2 311.2,323.8 311.8,323.0 312.3,322.5 312.9,322.9 313.4,323.5 314.0,323.0 314.5,321.2 315.1,323.8 315.6,323.0 316.2,322.5 316.7,322.9 317.3,323.5 317.8,323.0 318.4,321.2 318.9,323.8 319.5,323.0 320.1,322.5 320.6,322.9 321.2,323.5 321.7,323.0 322.3,321.2 322.8,323.8 323.4,323.0 323.9,322.5 324.5,322.9 325.0,323.5 325.6,323.0 326.1,321.2 326.7,323.8 327.2,323.0 327.8,322.5 328.3,322.9 328.9,323.5 329.4,323.0 330.0,321.2 330.5,323.8 331.1,323.0 331.6,322.5 332.2,322.9 332.7,323.5 333.3,323.0 333.9,321.2 334.4,323.8 335.0,323.0 335.5,322.5 336.1,322.9 336.6,323.5 337.2,323.0 337.7,321.2 338.3,323.8 338.8,323.0 339.4,322.5 339.9,322.9 340.5,323.5 341.0,323.0 341.6,321.2 342.1,323.8 342.7,323.0 343.2,322.5 343.8,322.9 344.3,323.5 344.9,323.0 345.4,321.2 346.0,323.8 346.5,323.0 347.1,322.5 347.7,322.9 348.2,323.5 348.8,323.0 349.3,321.2 349.9,323.8 350.4,323.0 351.0,322.5 351.5,322.9 352.1,323.5 352.6,323.0 353.2,321.2 353.7,323.8 354.3,323.0 354.8,322.5 355.4,322.9 355.9,323.5 356.5,323.0 357.0,321.2 357.6,323.8 358.1,323.0 358.7,322.5 359.2,322.9 359.8,323.5 360.3,323.0 360.9,321.2 361.5,323.8 362.0,323.0 362.6,322.5 363.1,322.9 363.7,323.5 364.2,323.0 364.8,321.2 365.3,323.8 365.9,323.0 366.4,322.5 367.0,322.9 367.5,323.5 368.1,323.0 368.6,321.2 369.2,323.8 369.7,323.0 370.3,322.5 370.8,322.9 371.4,323.5 371.9,323.0 372.5,321.2 373.0,323.8 373.6,323.0 374.1,322.5 374.7,322.9 375.3,323.5 375.8,323.0 376.4,321.2 376.9,323.8 377.5,323.0 378.0,322.5 378.6,322.9 379.1,323.5 379.7,323.0 380.2,321.2 380.8,323.8 381.3,323.0 381.9,322.5 382.4,322.9 383.0,323.5 383.5,323.0 384.1,321.2 384.6,323.8 385.2,323.0 385.7,322.5 386.3,322.9 386.8,323.5 387.4,323.0 387.9,321.2 388.5,323.8 389.1,323.0 389.6,322.5 390.2,322.9 390.7,323.5 391.3,323.0 391.8,321.2 392.4,323.8 392.9,323.0 393.5,322.5 394.0,322.9 394.6,323.5 395.1,323.0 395.7,321.2 396.2,323.8 396.8,323.0 397.3,322.5 397.9,322.9 398.4,323.5 399.0,323.0 399.5,321.2 400.1,323.8 400.6,323.0 401.2,322.5 401.7,322.9 402.3,323.5 402.8,323.0 403.4,321.2 404.0,323.8 404.5,323.0 405.1,322.5 405.6,322.9 406.2,323.5 406.7,323.0 407.3,321.2 407.8,323.8 408.4,323.0 408.9,322.5 409.5,322.9 410.0,323.5 410.6,323.0 411.1,321.2 411.7,323.8 412.2,323.0 412.8,322.5 413.3,322.9 413.9,323.5 414.4,323.0 415.0,321.2 415.5,323.8 416.1,323.0 416.6,322.5 417.2,322.9 417.8,323.5 418.3,323.0 418.9,321.2 419.4,323.8 420.0,323.0 420.5,322.5 421.1,322.9 421.6,323.5 422.2,323.0 422.7,321.2 423.3,323.8 423.8,323.0 424.4,322.5 424.9,322.9 425.5,323.5 426.0,323.0 426.6,321.2 427.1,323.8 427.7,323.0 428.2,322.5 428.8,322.9 429.3,323.5 429.9,323.0 430.4,321.2 431.0,323.8 431.6,323.0 432.1,322.5 432.7,322.9 433.2,323.5 433.8,323.0 434.3,321.2 434.9,323.8 435.4,323.0 436.0,322.5 436.5,322.9 437.1,323.5 437.6,323.0 438.2,321.2 438.7,323.8 439.3,323.0 439.8,322.5 440.4,322.9 440.9,323.5 441.5,323.0 442.0,321.2 442.6,323.8 443.1,323.0 443.7,322.5 444.2,322.9 444.8,323.5 445.4,323.0 445.9,321.2 446.5,323.8 447.0,323.0 447.6,322.5 448.1,322.9 448.7,323.5 449.2,323.0 449.8,321.2 450.3,323.8 450.9,323.0 451.4,322.5 452.0,322.9 452.5,323.5 453.1,323.0 453.6,321.2 454.2,323.8 454.7,323.0 455.3,322.5 455.8,322.9 456.4,323.5 456.9,323.0 457.5,321.2 458.0,323.8 458.6,323.0 459.2,322.5 459.7,322.9 460.3,323.5 460.8,323.0 461.4,321.2 461.9,323.8 462.5,323.0 463.0,322.5 463.6,322.9 464.1,323.5 464.7,323.0 465.2,321.2 465.8,323.8 466.3,323.0 466.9,322.5 467.4,322.9 468.0,323.5 468.5,323.0 469.1,321.2 469.6,323.8 470.2,323.0 470.7,322.5 471.3,322.9 471.8,323.5 472.4,323.0 473.0,321.2 473.5,323.8 474.1,323.0 474.6,322.5 475.2,322.9 475.7,323.5 476.3,323.0 476.8,321.2 477.4,323.8 477.9,323.0 478.5,322.5 479.0,322.9 479.6,323.5 480.1,323.0 480.7,321.2 481.2,323.8 481.8,323.0 482.3,322.5 482.9,322.9 483.4,323.5 484.0,323.0 484.5,321.2 485.1,323.8 485.6,323.0 486.2,322.5 486.8,322.9 487.3,323.5 487.9,323.0 488.4,321.2 489.0,323.8 489.5,323.0 490.1,322.5 490.6,322.9 491.2,323.5 491.7,323.0 492.3,321.2 492.8,323.8 493.4,323.0 493.9,322.5 494.5,322.9 495.0,323.5 495.6,323.0 496.1,321.2 496.7,323.8 497.2,323.0 497.8,322.5 498.3,322.9 498.9,323.5 499.4,323.0 500.0,321.2 500.6,323.8 501.1,323.0 501.7,322.5 502.2,322.9 502.8,323.5 503.3,323.0 503.9,321.2 504.4,323.8 505.0,323.0 505.5,322.5 506.1,322.9 506.6,323.5 507.2,323.0 507.7,321.2 508.3,323.8 508.8,323.0 509.4,322.5 509.9,322.9 510.5,323.5 511.0,323.0 511.6,321.2 512.1,323.8 512.7,323.0 513.2,322.5 513.8,322.9 514.4,323.5 514.9,323.0 515.5,321.2 516.0,323.8 516.6,323.0 517.1,322.5 517.7,322.9 518.2,323.5 518.8,323.0 519.3,321.2 519.9,323.8 520.4,323.0 521.0,322.5 521.5,322.9 522.1,323.5 522.6,323.0 523.2,321.2 523.7,323.8 524.3,323.0 524.8,322.5 525.4,322.9 525.9,323.5 526.5,323.0 527.0,321.2 527.6,323.8 528.2,323.0 528.7,322.5 529.3,322.9 529.8,323.5 530.4,323.0 530.9,321.2 531.5,323.8 532.0,323.0 532.6,322.5 533.1,322.9 533.7,323.5 534.2,323.0 534.8,321.2 535.3,323.8 535.9,323.0 536.4,322.5 537.0,322.9 537.5,323.5 538.1,323.0 538.6,321.2 539.2,323.8 539.7,323.0 540.3,322.5 540.8,322.9 541.4,323.5 542.0,323.0 542.5,321.2 543.1,323.8 543.6,323.0 544.2,322.5 544.7,322.9 545.3,323.5 545.8,323.0 546.4,321.2 546.9,323.8 547.5,323.0 548.0,322.5 548.6,322.9 549.1,323.5 549.7,323.0 550.2,321.2 550.8,323.8 551.3,323.0 551.9,322.5 552.4,322.9 553.0,323.5 553.5,323.0 554.1,321.2 554.6,323.8 555.2,323.0 555.8,322.5 556.3,322.9 556.9,323.5 557.4,323.0 558.0,321.2 558.5,323.8 559.1,323.0 559.6,322.5 560.2,322.9 560.7,323.5 561.3,323.0 561.8,321.2 562.4,323.8 562.9,323.0 563.5,322.5 564.0,322.9 564.6,323.5 565.1,323.0 565.7,321.2 566.2,323.8 566.8,323.0 567.3,322.5 567.9,322.9 568.4,323.5 569.0,323.0 569.6,321.2 570.1,323.8 570.7,323.0 571.2,322.5 571.8,322.9 572.3,323.5 572.9,323.0 573.4,321.2 574.0,323.8 574.5,323.0 575.1,322.5 575.6,322.9 576.2,323.5 576.7,323.0 577.3,321.2 577.8,323.8 578.4,323.0 578.9,322.5 579.5,322.9 580.0,323.5 580.6,323.0 581.1,321.2 581.7,323.8 582.2,323.0 582.8,322.5 583.4,322.9 583.9,323.5 584.5,323.0 585.0,321.2 585.6,323.8 586.1,323.0 586.7,322.5 587.2,322.9 587.8,323.5 588.3,323.0 588.9,321.2 589.4,323.8 590.0,323.0 590.5,322.5 591.1,322.9 591.6,323.5 592.2,323.0 592.7,321.2 593.3,323.8 593.8,323.0 594.4,322.5 594.9,322.9 595.5,323.5 596.0,323.0 596.6,321.2 597.2,323.8 597.7,323.0 598.3,322.5 598.8,322.9 599.4,323.5 599.9,323.0 600.5,321.2 601.0,323.8 601.6,323.0 602.1,322.5 602.7,322.9 603.2,323.5 603.8,323.0 604.3,321.2 604.9,323.8 605.4,323.0 606.0,322.5 606.5,322.9 607.1,323.5 607.6,323.0 608.2,321.2 608.7,323.8 609.3,323.0 609.8,322.5 610.4,322.9 610.9,323.5 611.5,323.0 612.1,321.2 612.6,323.8 613.2,323.0 613.7,322.5 614.3,322.9 614.8,323.5 615.4,323.0 615.9,321.2 616.5,323.8 617.0,323.0 617.6,322.5 618.1,322.9 618.7,323.5 619.2,323.0 619.8,321.2 620.3,323.8 620.9,323.0 621.4,322.5 622.0,322.9 622.5,323.5 623.1,323.0 623.6,321.2 624.2,323.8 624.7,323.0 625.3,322.5 625.9,322.9 626.4,323.5 627.0,323.0 627.5,321.2 628.1,323.8 628.6,323.0 629.2,322.5 629.7,322.9 630.3,323.5 630.8,323.0 631.4,321.2 631.9,323.8 632.5,323.0 633.0,322.5 633.6,322.9 634.1,323.5 634.7,323.0 635.2,321.2 635.8,323.8 636.3,323.0 636.9,322.5 637.4,322.9 638.0,323.5 638.5,323.0 639.1,321.2 639.7,323.8 640.2,323.0 640.8,322.5 641.3,322.9 641.9,323.5 642.4,323.0 643.0,321.2 643.5,323.8 644.1,323.0 644.6,322.5 645.2,322.9 645.7,323.5 646.3,323.0 646.8,321.2 647.4,323.8 647.9,323.0 648.5,322.5 649.0,322.9 649.6,323.5 650.1,323.0 650.7,321.2 651.2,323.8 651.8,323.0 652.3,322.5 652.9,322.9 653.5,323.5 654.0,323.0 654.6,321.2 655.1,323.8 655.7,323.0 656.2,322.5 656.8,322.9 657.3,323.5 657.9,323.0 658.4,321.2 659.0,323.8 659.5,323.0 660.1,322.5 660.6,322.9 661.2,323.5 661.7,323.0 662.3,321.2 662.8,323.8 663.4,323.0 663.9,322.5 664.5,322.9 665.0,323.5 665.6,323.0 666.1,321.2 666.7,323.8 667.3,323.0 667.8,322.5 668.4,322.9 668.9,323.5 669.5,323.0 670.0,321.2 670.6,323.8 671.1,323.0 671.7,322.5 672.2,322.9 672.8,323.5 673.3,323.0 673.9,321.2 674.4,323.8 675.0,323.0 675.5,322.5 676.1,322.9 676.6,323.5 677.2,323.0 677.7,321.2 678.3,323.8 678.8,323.0 679.4,322.5 679.9,322.9 680.5,323.5 681.1,323.0 681.6,321.2 682.2,323.8 682.7,323.0 683.3,322.5 683.8,322.9 684.4,323.5 684.9,323.0 685.5,321.2 686.0,323.8 686.6,323.0 687.1,322.5 687.7,322.9 688.2,323.5 688.8,323.0 689.3,321.2 689.9,323.8 690.4,323.0 691.0,322.5 691.5,322.9 692.1,323.5 692.6,323.0 693.2,321.2 693.7,323.8 694.3,323.0 694.9,322.5 695.4,322.9 696.0,323.5 696.5,323.0 697.1,321.2 697.6,323.8 698.2,323.0 698.7,322.5 699.3,322.9 699.8,323.5 700.4,323.0 700.9,321.2 701.5,323.8 702.0,323.0 702.6,322.5 703.1,322.9 703.7,323.5 704.2,323.0 704.8,321.2 705.3,323.8 705.9,323.0 706.4,322.5 707.0,322.9 707.5,323.5 708.1,323.0 708.7,321.2 709.2,323.8 709.8,323.0 710.3,322.5 710.9,322.9 711.4,323.5 712.0,323.0 712.5,321.2 713.1,323.8 713.6,323.0 714.2,322.5 714.7,322.9 715.3,323.5 715.8,323.0 716.4,321.2 716.9,323.8 717.5,323.0 718.0,322.5 718.6,322.9 719.1,323.5 719.7,323.0 720.2,321.2 720.8,323.8 721.3,323.0 721.9,322.5 722.5,322.9 723.0,323.5 723.6,323.0 724.1,321.2 724.7,323.8 725.2,323.0 725.8,322.5 726.3,322.9 726.9,323.5 727.4,323.0 728.0,321.2 728.5,323.8 729.1,323.0 729.6,322.5 730.2,322.9 730.7,323.5 731.3,323.0 731.8,321.2 732.4,323.8 732.9,323.0 733.5,322.5 734.0,322.9 734.6,323.5 735.1,323.0 735.7,321.2 736.3,323.8 736.8,323.0 737.4,322.5 737.9,322.9 738.5,323.5 739.0,323.0 739.6,321.2 740.1,323.8 740.7,323.0 741.2,322.5 741.8,322.9 742.3,323.5 742.9,323.0 743.4,321.2 744.0,323.8 744.5,323.0 745.1,322.5 745.6,322.9 746.2,323.5 746.7,323.0 747.3,321.2 747.8,323.8 748.4,323.0 748.9,322.5 749.5,322.9 750.1,323.5 750.6,323.0 751.2,321.2 751.7,323.8 752.3,323.0 752.8,322.5 753.4,322.9 753.9,323.5 754.5,323.0 755.0,321.2 755.6,323.8 756.1,323.0 756.7,322.5 757.2,322.9 757.8,323.5 758.3,323.0 758.9,321.2 759.4,323.8 760.0,323.0 760.5,322.5 761.1,322.9 761.6,323.5 762.2,323.0 762.7,321.2 763.3,323.8 763.9,323.0 764.4,322.5 765.0,322.9 765.5,323.5 766.1,323.0 766.6,321.2 767.2,323.8 767.7,323.0 768.3,322.5 768.8,322.9 769.4,323.5 769.9,323.0 770.5,321.2 771.0,323.8 771.6,323.0 772.1,322.5 772.7,322.9 773.2,323.5 773.8,323.0 774.3,321.2 774.9,323.8 775.4,323.0 776.0,322.5 776.5,322.9 777.1,323.5 777.7,323.0 778.2,321.2 778.8,323.8 779.3,323.0 779.9,322.5 780.4,322.9 781.0,323.5 781.5,323.0 782.1,321.2 782.6,323.8 783.2,323.0 783.7,322.5 784.3,322.9 784.8,323.5 785.4,323.0 785.9,321.2 786.5,323.8 787.0,323.0 787.6,322.5 788.1,322.9 788.7,323.5 789.2,323.0 789.8,321.2 790.3,323.8 790.9,323.0 791.5,322.5 792.0,322.9 792.6,323.5 793.1,323.0 793.7,321.2 794.2,323.8 794.8,323.0 795.3,322.5 795.9,322.9 796.4,323.5 797.0,323.0 797.5,321.2 798.1,323.8 798.6,323.0 799.2,322.5 799.7,322.9 800.3,323.5 800.8,323.0 801.4,321.2 801.9,323.8 802.5,323.0 803.0,322.5 803.6,322.9 804.1,323.5 804.7,323.0 805.3,321.2 805.8,323.8 806.4,323.0 806.9,322.5 807.5,322.9 808.0,323.5 808.6,323.0 809.1,321.2 809.7,323.8 810.2,323.0 810.8,322.5 811.3,322.9 811.9,323.5 812.4,323.0 813.0,321.2 813.5,323.8 814.1,323.0 814.6,322.5 815.2,322.9 815.7,323.5 816.3,323.0 816.8,321.2 817.4,323.8 817.9,323.0 818.5,322.5 819.1,322.9 819.6,323.5 820.2,323.0 820.7,321.2 821.3,323.8 821.8,323.0 822.4,322.5 822.9,322.9 823.5,323.5 824.0,323.0 824.6,321.2 825.1,323.8 825.7,323.0 826.2,322.5 826.8,322.9 827.3,323.5 827.9,323.0 828.4,321.2 829.0,323.8 829.5,323.0 830.1,322.5 830.6,322.9 831.2,323.5 831.7,323.0 832.3,321.2 832.8,323.8 833.4,323.0 834.0,322.5 834.5,322.9 835.1,323.5 835.6,323.0 836.2,321.2 836.7,323.8 837.3,323.0 837.8,322.5 838.4,322.9 838.9,323.5 839.5,323.0 840.0,321.2 840.6,323.8 841.1,323.0 841.7,322.5 842.2,322.9 842.8,323.5 843.3,323.0 843.9,321.2 844.4,323.8 845.0,323.0 845.5,322.5 846.1,322.9 846.6,323.5 847.2,323.0 847.8,321.2 848.3,323.8 848.9,323.0 849.4,322.5 850.0,322.9 850.5,323.5 851.1,323.0 851.6,321.2 852.2,323.8 852.7,323.0 853.3,322.5 853.8,322.9 854.4,323.5 854.9,323.0 855.5,321.2 856.0,323.8 856.6,323.0 857.1,322.5 857.7,322.9 858.2,323.5 858.8,323.0 859.3,321.2 859.9,323.8 860.4,323.0 861.0,322.5 861.6,322.9 862.1,323.5 862.7,323.0 863.2,321.2 863.8,323.8 864.3,323.0 864.9,322.5 865.4,322.9 866.0,323.5 866.5,323.0 867.1,321.2 867.6,323.8 868.2,323.0 868.7,322.5 869.3,322.9 869.8,323.5 870.4,323.0 870.9,321.2 871.5,323.8 872.0,323.0 872.6,322.5 873.1,322.9 873.7,323.5 874.2,323.0 874.8,321.2 875.4,323.8 875.9,323.0 876.5,322.5 877.0,322.9 877.6,323.5 878.1,323.0 878.7,321.2 879.2,323.8 879.8,323.0 880.3,322.5 880.9,322.9 881.4,323.5 882.0,323.0 882.5,321.2 883.1,323.8 883.6,323.0 884.2,322.5 884.7,322.9 885.3,323.5 885.8,323.0 886.4,321.2 886.9,323.8 887.5,323.0 888.0,322.5 888.6,322.9 889.2,323.5 889.7,323.0 890.3,321.2 890.8,323.8 891.4,323.0 891.9,322.5 892.5,322.9 893.0,323.5 893.6,323.0 894.1,321.2 894.7,323.8 895.2,323.0 895.8,322.5 896.3,322.9 896.9,323.5 897.4,323.0 898.0,321.2 898.5,323.8 899.1,323.0 899.6,322.5 900.2,322.9 900.7,323.5 901.3,323.0 901.8,321.2 902.4,323.8 903.0,323.0 903.5,322.5 904.1,322.9 904.6,323.5 905.2,323.0 905.7,321.2 906.3,323.8 906.8,323.0 907.4,322.5 907.9,322.9 908.5,323.5 909.0,323.0 909.6,321.2 910.1,323.8 910.7,323.0 911.2,322.5 911.8,322.9 912.3,323.5 912.9,323.0 913.4,321.2 914.0,323.8 914.5,323.0 915.1,322.5 915.6,322.9 916.2,323.5 916.8,323.0 917.3,321.2 917.9,323.8 918.4,323.0 919.0,322.5 919.5,322.9 920.1,323.5 920.6,323.0 921.2,321.2 921.7,323.8 922.3,323.0 922.8,322.5 923.4,322.9 923.9,323.5 924.5,323.0 925.0,321.2 925.6,323.8 926.1,323.0 926.7,322.5 927.2,322.9 927.8,323.5 928.3,323.0 928.9,321.2 929.4,323.8 930.0,323.0" fill="none" stroke="#059669" stroke-width="2.2"/>
<polyline points="70.0,238.0 70.6,301.6 71.1,343.1 71.7,299.8 72.2,330.2 72.8,329.6 73.3,333.1 73.9,323.3 74.4,336.6 75.0,328.7 75.5,332.5 76.1,328.4 76.6,333.5 77.2,327.9 77.7,323.8 78.3,328.2 78.8,329.4 79.4,325.5 79.9,325.8 80.5,287.1 81.0,317.9 81.6,327.5 82.1,323.0 82.7,325.0 83.2,318.9 83.8,321.1 84.4,326.4 84.9,322.6 85.5,314.2 86.0,322.6 86.6,328.2 87.1,324.2 87.7,324.4 88.2,327.5 88.8,326.4 89.3,322.7 89.9,323.9 90.4,321.0 91.0,323.3 91.5,318.1 92.1,329.2 92.6,318.9 93.2,329.4 93.7,328.9 94.3,324.3 94.8,325.5 95.4,322.0 95.9,322.3 96.5,325.4 97.0,327.7 97.6,326.7 98.2,325.7 98.7,320.1 99.3,325.2 99.8,325.2 100.4,326.0 100.9,321.3 101.5,320.1 102.0,324.1 102.6,325.5 103.1,311.4 103.7,323.1 104.2,318.4 104.8,324.2 105.3,325.8 105.9,313.3 106.4,315.7 107.0,318.1 107.5,320.4 108.1,318.7 108.6,321.9 109.2,325.2 109.7,324.0 110.3,323.0 110.8,322.7 111.4,321.4 112.0,324.7 112.5,322.3 113.1,322.3 113.6,326.3 114.2,322.5 114.7,323.6 115.3,319.9 115.8,322.8 116.4,324.4 116.9,323.2 117.5,324.7 118.0,322.5 118.6,323.7 119.1,325.9 119.7,321.9 120.2,325.9 120.8,325.8 121.3,326.7 121.9,321.1 122.4,321.1 123.0,320.2 123.5,322.1 124.1,322.2 124.6,323.5 125.2,323.5 125.8,320.2 126.3,323.7 126.9,324.1 127.4,323.4 128.0,320.0 128.5,322.9 129.1,324.5 129.6,325.0 130.2,324.0 130.7,322.2 131.3,322.7 131.8,322.8 132.4,322.3 132.9,325.7 133.5,322.7 134.0,318.7 134.6,325.7 135.1,322.6 135.7,324.9 136.2,324.0 136.8,323.5 137.3,317.3 137.9,320.2 138.4,322.3 139.0,324.6 139.6,322.4 140.1,324.4 140.7,326.7 141.2,323.4 141.8,321.8 142.3,321.2 142.9,321.9 143.4,316.0 144.0,325.0 144.5,326.2 145.1,324.5 145.6,326.2 146.2,326.0 146.7,322.0 147.3,319.7 147.8,322.7 148.4,325.1 148.9,322.8 149.5,323.3 150.0,321.7 150.6,323.5 151.1,322.0 151.7,322.9 152.2,323.6 152.8,320.3 153.4,323.2 153.9,323.7 154.5,323.3 155.0,321.8 155.6,321.7 156.1,323.9 156.7,321.4 157.2,325.7 157.8,323.7 158.3,319.2 158.9,324.5 159.4,321.8 160.0,325.9 160.5,321.4 161.1,323.9 161.6,320.7 162.2,321.1 162.7,324.0 163.3,323.0 163.8,325.6 164.4,321.6 164.9,323.7 165.5,325.0 166.0,322.2 166.6,314.1 167.2,322.9 167.7,325.8 168.3,323.0 168.8,327.1 169.4,327.0 169.9,326.6 170.5,326.5 171.0,327.9 171.6,329.8 172.1,322.2 172.7,319.0 173.2,321.7 173.8,319.5 174.3,322.8 174.9,316.7 175.4,323.4 176.0,320.2 176.5,318.8 177.1,318.4 177.6,315.3 178.2,317.5 178.7,319.6 179.3,322.8 179.8,323.7 180.4,322.8 180.9,324.3 181.5,324.4 182.1,324.6 182.6,326.0 183.2,327.7 183.7,328.8 184.3,326.9 184.8,321.7 185.4,322.9 185.9,318.1 186.5,324.3 187.0,322.2 187.6,322.4 188.1,321.1 188.7,326.6 189.2,324.5 189.8,321.6 190.3,323.0 190.9,323.8 191.4,324.8 192.0,320.2 192.5,324.2 193.1,321.6 193.6,317.8 194.2,324.6 194.7,323.3 195.3,321.9 195.9,318.6 196.4,322.1 197.0,315.2 197.5,323.5 198.1,325.8 198.6,327.6 199.2,323.6 199.7,318.4 200.3,323.9 200.8,322.1 201.4,328.3 201.9,325.3 202.5,321.0 203.0,326.0 203.6,323.2 204.1,320.5 204.7,325.9 205.2,324.8 205.8,320.6 206.3,319.1 206.9,322.7 207.4,319.2 208.0,321.4 208.5,320.3 209.1,319.5 209.7,323.0 210.2,328.3 210.8,324.2 211.3,320.8 211.9,323.2 212.4,323.5 213.0,321.6 213.5,318.1 214.1,326.3 214.6,323.5 215.2,317.7 215.7,311.2 216.3,325.8 216.8,324.4 217.4,325.9 217.9,328.6 218.5,324.6 219.0,323.3 219.6,326.5 220.1,318.5 220.7,323.6 221.2,326.1 221.8,326.5 222.3,324.3 222.9,324.4 223.5,324.4 224.0,324.2 224.6,321.6 225.1,323.7 225.7,325.5 226.2,320.1 226.8,315.9 227.3,320.5 227.9,325.4 228.4,325.6 229.0,324.4 229.5,325.8 230.1,320.4 230.6,324.4 231.2,324.1 231.7,320.1 232.3,324.0 232.8,316.4 233.4,328.2 233.9,322.5 234.5,321.0 235.0,322.4 235.6,325.1 236.1,323.6 236.7,323.9 237.3,325.6 237.8,323.3 238.4,326.0 238.9,325.4 239.5,322.0 240.0,312.6 240.6,320.7 241.1,318.7 241.7,318.9 242.2,323.5 242.8,324.9 243.3,323.1 243.9,315.6 244.4,326.8 245.0,327.2 245.5,320.4 246.1,324.4 246.6,324.4 247.2,327.7 247.7,325.3 248.3,324.6 248.8,324.2 249.4,319.0 249.9,324.4 250.5,324.5 251.1,321.1 251.6,323.9 252.2,322.1 252.7,324.0 253.3,324.0 253.8,323.9 254.4,319.6 254.9,316.9 255.5,311.8 256.0,321.7 256.6,324.3 257.1,326.1 257.7,325.4 258.2,323.7 258.8,327.0 259.3,324.9 259.9,323.8 260.4,325.9 261.0,322.3 261.5,321.6 262.1,323.6 262.6,323.3 263.2,324.8 263.7,311.5 264.3,320.3 264.9,324.9 265.4,323.2 266.0,325.0 266.5,324.0 267.1,319.4 267.6,322.8 268.2,326.9 268.7,322.3 269.3,324.3 269.8,325.1 270.4,321.2 270.9,321.2 271.5,322.2 272.0,326.5 272.6,323.6 273.1,324.7 273.7,324.2 274.2,323.5 274.8,321.0 275.3,323.0 275.9,324.5 276.4,320.7 277.0,319.1 277.5,325.4 278.1,326.0 278.7,318.1 279.2,322.5 279.8,327.5 280.3,322.4 280.9,319.6 281.4,321.9 282.0,320.3 282.5,323.5 283.1,323.8 283.6,322.6 284.2,322.4 284.7,321.9 285.3,323.1 285.8,317.5 286.4,320.2 286.9,320.9 287.5,324.0 288.0,324.5 288.6,319.9 289.1,325.7 289.7,323.7 290.2,324.0 290.8,324.9 291.3,327.1 291.9,321.1 292.5,322.5 293.0,323.3 293.6,324.4 294.1,322.9 294.7,323.3 295.2,324.3 295.8,322.5 296.3,319.8 296.9,324.8 297.4,323.8 298.0,323.3 298.5,325.6 299.1,324.1 299.6,321.7 300.2,324.1 300.7,320.5 301.3,322.5 301.8,324.7 302.4,325.0 302.9,327.1 303.5,320.2 304.0,317.0 304.6,323.4 305.1,320.7 305.7,323.1 306.3,322.8 306.8,328.1 307.4,326.9 307.9,325.3 308.5,321.8 309.0,318.9 309.6,319.7 310.1,321.1 310.7,323.1 311.2,321.1 311.8,324.9 312.3,324.5 312.9,324.9 313.4,323.7 314.0,318.6 314.5,322.8 315.1,320.7 315.6,324.9 316.2,320.8 316.7,323.9 317.3,324.2 317.8,321.4 318.4,323.9 318.9,325.1 319.5,319.1 320.1,326.8 320.6,324.5 321.2,327.0 321.7,322.8 322.3,317.6 322.8,319.6 323.4,319.1 323.9,326.4 324.5,328.6 325.0,319.9 325.6,315.9 326.1,326.7 326.7,324.5 327.2,314.0 327.8,322.2 328.3,318.8 328.9,319.2 329.4,324.8 330.0,318.8 330.5,329.1 331.1,329.5 331.6,324.3 332.2,324.1 332.7,322.6 333.3,319.0 333.9,327.1 334.4,321.1 335.0,320.8 335.5,318.0 336.1,325.6 336.6,319.0 337.2,320.5 337.7,324.2 338.3,323.8 338.8,321.6 339.4,329.8 339.9,325.0 340.5,328.4 341.0,322.0 341.6,322.6 342.1,320.0 342.7,322.0 343.2,321.3 343.8,320.3 344.3,322.5 344.9,324.3 345.4,323.8 346.0,328.7 346.5,322.3 347.1,323.5 347.7,321.5 348.2,318.7 348.8,323.6 349.3,328.2 349.9,322.2 350.4,320.2 351.0,318.2 351.5,318.7 352.1,322.9 352.6,322.8 353.2,323.8 353.7,323.6 354.3,321.7 354.8,324.5 355.4,320.7 355.9,323.3 356.5,329.6 357.0,326.0 357.6,323.8 358.1,321.5 358.7,323.9 359.2,317.9 359.8,321.1 360.3,322.0 360.9,324.0 361.5,320.8 362.0,326.0 362.6,323.2 363.1,324.2 363.7,321.1 364.2,327.7 364.8,326.8 365.3,321.0 365.9,318.5 366.4,321.0 367.0,322.0 367.5,324.3 368.1,326.9 368.6,323.6 369.2,324.9 369.7,321.3 370.3,324.2 370.8,323.2 371.4,324.9 371.9,322.6 372.5,325.3 373.0,327.4 373.6,320.3 374.1,322.8 374.7,319.8 375.3,323.5 375.8,320.6 376.4,322.7 376.9,317.5 377.5,320.8 378.0,326.8 378.6,319.4 379.1,316.5 379.7,320.3 380.2,326.0 380.8,320.7 381.3,321.2 381.9,324.4 382.4,318.5 383.0,323.0 383.5,325.5 384.1,332.6 384.6,322.4 385.2,321.3 385.7,320.8 386.3,320.0 386.8,320.9 387.4,323.6 387.9,329.0 388.5,326.2 389.1,320.3 389.6,324.4 390.2,325.6 390.7,322.4 391.3,325.1 391.8,323.7 392.4,320.9 392.9,321.8 393.5,317.9 394.0,325.0 394.6,318.8 395.1,317.1 395.7,325.4 396.2,335.0 396.8,331.0 397.3,314.0 397.9,315.8 398.4,314.8 399.0,325.6 399.5,325.7 400.1,320.3 400.6,324.8 401.2,331.0 401.7,321.2 402.3,305.1 402.8,323.8 403.4,328.7 404.0,324.3 404.5,322.5 405.1,321.9 405.6,320.4 406.2,332.7 406.7,325.8 407.3,333.4 407.8,323.7 408.4,317.7 408.9,320.1 409.5,313.9 410.0,319.4 410.6,316.3 411.1,329.0 411.7,327.1 412.2,326.3 412.8,320.2 413.3,317.1 413.9,328.9 414.4,313.5 415.0,323.0 415.5,330.8 416.1,326.2 416.6,314.6 417.2,319.4 417.8,321.2 418.3,326.6 418.9,320.9 419.4,330.2 420.0,331.7 420.5,325.2 421.1,316.6 421.6,317.5 422.2,325.5 422.7,314.5 423.3,330.3 423.8,332.9 424.4,312.9 424.9,326.2 425.5,315.5 426.0,326.6 426.6,330.5 427.1,326.1 427.7,321.4 428.2,310.4 428.8,319.2 429.3,323.0 429.9,330.9 430.4,331.7 431.0,323.7 431.6,327.6 432.1,328.9 432.7,323.2 433.2,322.3 433.8,330.8 434.3,315.5 434.9,309.6 435.4,328.1 436.0,325.6 436.5,320.0 437.1,324.0 437.6,318.1 438.2,327.0 438.7,314.5 439.3,320.2 439.8,327.4 440.4,317.4 440.9,319.9 441.5,314.0 442.0,320.5 442.6,318.2 443.1,316.9 443.7,316.3 444.2,324.5 444.8,321.8 445.4,328.3 445.9,321.0 446.5,328.1 447.0,331.3 447.6,330.5 448.1,328.8 448.7,330.1 449.2,327.5 449.8,323.2 450.3,323.9 450.9,318.0 451.4,328.5 452.0,314.7 452.5,321.2 453.1,329.9 453.6,332.3 454.2,321.2 454.7,309.7 455.3,309.2 455.8,310.2 456.4,328.5 456.9,331.7 457.5,329.4 458.0,322.4 458.6,318.1 459.2,319.1 459.7,319.7 460.3,319.3 460.8,324.9 461.4,326.4 461.9,330.9 462.5,323.9 463.0,328.9 463.6,322.3 464.1,324.7 464.7,324.7 465.2,330.9 465.8,326.8 466.3,325.0 466.9,314.3 467.4,317.7 468.0,323.0 468.5,329.3 469.1,321.7 469.6,324.1 470.2,315.8 470.7,310.6 471.3,316.4 471.8,319.9 472.4,326.6 473.0,331.6 473.5,326.6 474.1,331.3 474.6,327.3 475.2,321.4 475.7,319.8 476.3,316.7 476.8,324.1 477.4,329.5 477.9,321.5 478.5,312.6 479.0,315.8 479.6,320.5 480.1,314.1 480.7,318.6 481.2,314.7 481.8,323.3 482.3,324.2 482.9,332.3 483.4,330.4 484.0,328.1 484.5,328.9 485.1,319.1 485.6,325.0 486.2,333.2 486.8,330.1 487.3,318.7 487.9,311.0 488.4,317.9 489.0,322.1 489.5,327.5 490.1,328.4 490.6,324.1 491.2,319.0 491.7,322.9 492.3,323.9 492.8,325.1 493.4,327.2 493.9,329.1 494.5,326.4 495.0,313.0 495.6,314.6 496.1,309.5 496.7,321.2 497.2,316.1 497.8,317.4 498.3,322.5 498.9,318.2 499.4,316.0 500.0,322.3 500.6,320.2 501.1,328.6 501.7,333.7 502.2,333.8 502.8,325.0 503.3,324.6 503.9,318.5 504.4,331.8 505.0,328.1 505.5,323.7 506.1,325.8 506.6,326.5 507.2,325.4 507.7,325.2 508.3,324.5 508.8,325.1 509.4,331.8 509.9,322.9 510.5,319.3 511.0,318.2 511.6,316.9 512.1,319.3 512.7,324.8 513.2,330.4 513.8,315.2 514.4,316.7 514.9,315.8 515.5,325.2 516.0,320.8 516.6,323.9 517.1,324.1 517.7,322.5 518.2,322.4 518.8,321.3 519.3,319.0 519.9,314.6 520.4,317.8 521.0,323.4 521.5,321.9 522.1,326.9 522.6,333.6 523.2,336.1 523.7,325.0 524.3,325.0 524.8,324.3 525.4,327.8 525.9,320.6 526.5,319.8 527.0,306.4 527.6,320.7 528.2,319.5 528.7,322.0 529.3,317.3 529.8,319.9 530.4,320.2 530.9,317.5 531.5,322.6 532.0,320.4 532.6,327.1 533.1,324.0 533.7,321.8 534.2,318.5 534.8,330.6 535.3,335.4 535.9,328.2 536.4,325.5 537.0,323.9 537.5,324.5 538.1,330.2 538.6,320.5 539.2,321.5 539.7,325.8 540.3,328.5 540.8,325.7 541.4,316.8 542.0,322.9 542.5,320.3 543.1,316.8 543.6,322.4 544.2,322.0 544.7,321.1 545.3,321.1 545.8,316.7 546.4,326.5 546.9,324.7 547.5,320.3 548.0,326.2 548.6,324.8 549.1,321.8 549.7,324.5 550.2,323.5 550.8,320.4 551.3,322.5 551.9,328.0 552.4,320.4 553.0,322.4 553.5,329.0 554.1,321.4 554.6,311.0 555.2,324.8 555.8,322.0 556.3,318.3 556.9,324.2 557.4,320.5 558.0,326.4 558.5,320.4 559.1,323.9 559.6,332.0 560.2,311.9 560.7,329.1 561.3,323.5 561.8,322.3 562.4,320.9 562.9,330.6 563.5,317.1 564.0,323.0 564.6,325.3 565.1,318.8 565.7,327.1 566.2,321.1 566.8,331.5 567.3,321.1 567.9,323.9 568.4,315.6 569.0,321.6 569.6,324.5 570.1,321.4 570.7,315.5 571.2,321.9 571.8,316.2 572.3,326.2 572.9,325.7 573.4,323.1 574.0,320.7 574.5,300.5 575.1,322.9 575.6,330.2 576.2,322.6 576.7,327.9 577.3,328.3 577.8,330.3 578.4,323.8 578.9,326.8 579.5,326.4 580.0,320.7 580.6,328.7 581.1,324.3 581.7,331.5 582.2,324.6 582.8,323.9 583.4,316.9 583.9,311.1 584.5,324.7 585.0,326.5 585.6,336.9 586.1,335.1 586.7,334.2 587.2,328.3 587.8,322.4 588.3,313.6 588.9,316.7 589.4,314.9 590.0,316.8 590.5,313.3 591.1,310.4 591.6,315.3 592.2,316.9 592.7,315.9 593.3,329.0 593.8,317.8 594.4,332.9 594.9,329.8 595.5,315.3 596.0,320.5 596.6,322.7 597.2,315.5 597.7,323.8 598.3,335.5 598.8,328.4 599.4,316.8 599.9,305.9 600.5,326.9 601.0,338.7 601.6,336.4 602.1,329.4 602.7,320.1 603.2,321.4 603.8,327.5 604.3,331.1 604.9,323.2 605.4,319.7 606.0,313.3 606.5,317.8 607.1,317.8 607.6,319.1 608.2,321.8 608.7,313.8 609.3,320.6 609.8,325.2 610.4,312.1 610.9,331.4 611.5,328.6 612.1,331.7 612.6,322.0 613.2,332.5 613.7,334.6 614.3,329.4 614.8,314.0 615.4,328.1 615.9,323.2 616.5,316.0 617.0,315.7 617.6,314.6 618.1,310.7 618.7,327.7 619.2,329.7 619.8,324.7 620.3,299.0 620.9,316.3 621.4,315.6 622.0,320.5 622.5,341.9 623.1,317.1 623.6,345.7 624.2,315.7 624.7,320.9 625.3,317.5 625.9,329.2 626.4,302.6 627.0,314.2 627.5,332.8 628.1,314.3 628.6,326.6 629.2,323.7 629.7,321.9 630.3,321.8 630.8,332.6 631.4,335.6 631.9,335.4 632.5,335.5 633.0,337.0 633.6,333.0 634.1,324.2 634.7,329.5 635.2,286.9 635.8,322.4 636.3,327.3 636.9,324.3 637.4,322.0 638.0,308.3 638.5,312.7 639.1,320.1 639.7,322.9 640.2,327.9 640.8,331.2 641.3,319.9 641.9,326.3 642.4,331.2 643.0,329.8 643.5,317.7 644.1,329.6 644.6,335.0 645.2,329.8 645.7,335.8 646.3,320.8 646.8,320.8 647.4,296.9 647.9,307.8 648.5,334.8 649.0,321.8 649.6,322.5 650.1,327.3 650.7,331.6 651.2,304.9 651.8,324.8 652.3,302.1 652.9,307.0 653.5,325.0 654.0,338.8 654.6,336.3 655.1,313.3 655.7,301.2 656.2,307.4 656.8,326.0 657.3,329.8 657.9,330.7 658.4,341.7 659.0,334.2 659.5,330.8 660.1,329.4 660.6,335.0 661.2,329.3 661.7,321.7 662.3,328.2 662.8,320.6 663.4,318.4 663.9,318.7 664.5,321.7 665.0,324.6 665.6,327.0 666.1,329.0 666.7,321.4 667.3,312.4 667.8,316.0 668.4,310.1 668.9,310.0 669.5,323.5 670.0,340.6 670.6,316.6 671.1,323.0 671.7,309.9 672.2,314.9 672.8,318.0 673.3,317.9 673.9,330.9 674.4,317.1 675.0,328.2 675.5,318.4 676.1,319.1 676.6,302.3 677.2,324.6 677.7,315.5 678.3,331.1 678.8,334.1 679.4,337.3 679.9,339.3 680.5,339.1 681.1,323.1 681.6,315.7 682.2,301.7 682.7,309.1 683.3,336.1 683.8,344.7 684.4,324.4 684.9,335.6 685.5,316.0 686.0,335.5 686.6,321.5 687.1,325.8 687.7,316.8 688.2,299.9 688.8,294.3 689.3,303.2 689.9,314.8 690.4,324.4 691.0,340.6 691.5,316.0 692.1,291.1 692.6,311.5 693.2,323.0 693.7,341.4 694.3,343.6 694.9,347.4 695.4,333.6 696.0,339.0 696.5,324.1 697.1,333.6 697.6,339.2 698.2,335.3 698.7,332.8 699.3,317.4 699.8,317.0 700.4,329.0 700.9,312.6 701.5,307.7 702.0,304.1 702.6,313.5 703.1,312.5 703.7,282.2 704.2,311.7 704.8,337.5 705.3,352.3 705.9,326.1 706.4,314.8 707.0,324.7 707.5,313.5 708.1,321.3 708.7,328.4 709.2,336.2 709.8,327.4 710.3,325.5 710.9,324.9 711.4,320.7 712.0,325.2 712.5,303.1 713.1,322.1 713.6,320.3 714.2,318.6 714.7,320.4 715.3,335.8 715.8,337.0 716.4,337.1 716.9,310.9 717.5,322.1 718.0,327.6 718.6,313.1 719.1,313.8 719.7,323.8 720.2,333.3 720.8,331.0 721.3,325.3 721.9,340.2 722.5,330.8 723.0,320.0 723.6,291.7 724.1,315.3 724.7,303.7 725.2,325.6 725.8,347.8 726.3,343.5 726.9,340.8 727.4,324.0 728.0,321.9 728.5,304.9 729.1,316.5 729.6,314.3 730.2,335.4 730.7,322.1 731.3,284.6 731.8,318.8 732.4,318.9 732.9,309.5 733.5,308.6 734.0,320.3 734.6,333.7 735.1,332.1 735.7,334.0 736.3,336.6 736.8,328.1 737.4,310.1 737.9,331.3 738.5,336.0 739.0,330.4 739.6,324.0 740.1,320.1 740.7,319.9 741.2,323.4 741.8,328.4 742.3,337.7 742.9,309.3 743.4,330.3 744.0,319.8 744.5,328.0 745.1,340.0 745.6,339.1 746.2,316.7 746.7,300.5 747.3,322.7 747.8,316.9 748.4,329.1 748.9,314.1 749.5,308.3 750.1,323.1 750.6,321.1 751.2,312.7 751.7,330.6 752.3,313.0 752.8,314.4 753.4,310.0 753.9,328.3 754.5,326.3 755.0,308.7 755.6,315.4 756.1,313.1 756.7,335.0 757.2,338.9 757.8,325.9 758.3,323.6 758.9,323.7 759.4,320.6 760.0,322.6 760.5,340.2 761.1,327.2 761.6,329.0 762.2,324.7 762.7,320.2 763.3,338.0 763.9,325.2 764.4,321.6 765.0,320.7 765.5,309.8 766.1,324.4 766.6,323.4 767.2,317.1 767.7,332.9 768.3,343.1 768.8,313.8 769.4,324.8 769.9,325.9 770.5,328.6 771.0,327.6 771.6,319.3 772.1,312.7 772.7,310.9 773.2,305.9 773.8,338.5 774.3,343.5 774.9,317.5 775.4,343.6 776.0,328.7 776.5,311.0 777.1,295.9 777.7,313.0 778.2,311.6 778.8,327.4 779.3,336.6 779.9,315.1 780.4,323.5 781.0,324.3 781.5,325.6 782.1,322.6 782.6,305.5 783.2,338.7 783.7,323.7 784.3,326.4 784.8,334.5 785.4,319.3 785.9,334.9 786.5,327.4 787.0,331.1 787.6,319.2 788.1,314.4 788.7,348.1 789.2,317.6 789.8,299.0 790.3,310.8 790.9,299.5 791.5,318.5 792.0,309.6 792.6,328.0 793.1,319.8 793.7,303.6 794.2,276.6 794.8,329.9 795.3,347.1 795.9,345.7 796.4,337.6 797.0,316.9 797.5,341.6 798.1,323.1 798.6,327.7 799.2,322.4 799.7,335.8 800.3,340.5 800.8,342.3 801.4,344.4 801.9,338.0 802.5,312.5 803.0,310.3 803.6,304.5 804.1,294.0 804.7,300.4 805.3,310.2 805.8,317.8 806.4,332.1 806.9,351.3 807.5,287.2 808.0,307.8 808.6,328.0 809.1,345.0 809.7,292.6 810.2,348.5 810.8,331.4 811.3,321.2 811.9,276.0 812.4,329.7 813.0,321.3 813.5,309.1 814.1,308.2 814.6,317.2 815.2,344.0 815.7,336.7 816.3,334.6 816.8,309.7 817.4,358.3 817.9,341.5 818.5,346.5 819.1,347.2 819.6,305.2 820.2,297.5 820.7,313.7 821.3,335.5 821.8,329.5 822.4,327.8 822.9,308.3 823.5,343.4 824.0,335.6 824.6,301.0 825.1,305.5 825.7,302.1 826.2,259.6 826.8,332.8 827.3,358.0 827.9,355.1 828.4,304.9 829.0,338.3 829.5,364.7 830.1,361.3 830.6,330.9 831.2,311.6 831.7,298.7 832.3,293.8 832.8,306.2 833.4,318.9 834.0,347.4 834.5,352.7 835.1,334.6 835.6,333.3 836.2,320.5 836.7,270.1 837.3,302.9 837.8,343.2 838.4,336.1 838.9,327.0 839.5,334.0 840.0,377.3 840.6,377.9 841.1,323.4 841.7,239.7 842.2,298.5 842.8,302.5 843.3,353.3 843.9,293.1 844.4,353.0 845.0,343.6 845.5,280.7 846.1,289.7 846.6,313.1 847.2,333.6 847.8,373.8 848.3,306.5 848.9,289.0 849.4,359.9 850.0,383.8 850.5,326.2 851.1,331.4 851.6,325.7 852.2,371.8 852.7,290.2 853.3,259.9 853.8,283.7 854.4,338.7 854.9,322.4 855.5,312.1 856.0,313.7 856.6,292.9 857.1,281.7 857.7,330.4 858.2,369.2 858.8,336.5 859.3,322.4 859.9,311.4 860.4,320.3 861.0,319.9 861.6,325.8 862.1,370.5 862.7,358.8 863.2,424.0 863.8,297.5 864.3,286.7 864.9,248.3 865.4,253.3 866.0,327.1 866.5,305.6 867.1,400.1 867.6,404.5 868.2,294.5 868.7,239.3 869.3,259.7 869.8,294.3 870.4,344.3 870.9,402.2 871.5,387.1 872.0,408.6 872.6,233.0 873.1,433.4 873.7,422.9 874.2,287.4 874.8,268.9 875.4,268.1 875.9,283.2 876.5,401.6 877.0,438.2 877.6,407.5 878.1,316.1 878.7,299.1 879.2,278.8 879.8,321.2 880.3,307.8 880.9,276.9 881.4,323.0 882.0,303.0 882.5,204.0 883.1,254.4 883.6,259.4 884.2,259.2 884.7,271.6 885.3,286.5 885.8,284.3 886.4,319.7 886.9,340.7 887.5,328.3 888.0,416.7 888.6,399.1 889.2,376.4 889.7,354.8 890.3,348.8 890.8,332.1 891.4,446.5 891.9,258.6 892.5,313.6 893.0,284.1 893.6,372.0 894.1,322.1 894.7,258.4 895.2,275.4 895.8,300.9 896.3,252.2 896.9,416.1 897.4,265.9 898.0,266.7 898.5,319.1 899.1,318.0 899.6,317.9 900.2,285.0 900.7,288.1 901.3,313.5 901.8,296.8 902.4,370.5 903.0,251.6 903.5,376.0 904.1,383.2 904.6,235.5 905.2,294.0 905.7,308.1 906.3,385.6 906.8,321.0 907.4,441.5 907.9,317.1 908.5,424.9 909.0,407.3 909.6,276.1 910.1,423.8 910.7,412.9 911.2,326.7 911.8,354.9 912.3,280.8 912.9,257.2 913.4,98.8 914.0,250.8 914.5,302.1 915.1,283.8 915.6,317.2 916.2,305.4 916.8,347.5 917.3,370.6 917.9,361.7 918.4,410.6 919.0,322.2 919.5,272.1 920.1,342.8 920.6,329.8 921.2,283.6 921.7,364.8 922.3,281.3 922.8,315.0 923.4,344.1 923.9,330.7 924.5,326.4 925.0,314.5 925.6,295.3 926.1,310.8 926.7,390.9 927.2,363.4 927.8,332.6 928.3,299.8 928.9,282.6 929.4,306.9 930.0,317.8" fill="none" stroke="#D97706" stroke-width="2.2"/>
<text x="70.0" y="400" text-anchor="middle" font-family="Arial" font-size="11" fill="#6B7280">2022-02-25</text>
<text x="284.7" y="400" text-anchor="middle" font-family="Arial" font-size="11" fill="#6B7280">2023-03-21</text>
<text x="500.0" y="400" text-anchor="middle" font-family="Arial" font-size="11" fill="#6B7280">2024-04-14</text>
<text x="714.7" y="400" text-anchor="middle" font-family="Arial" font-size="11" fill="#6B7280">2025-05-08</text>
<text x="930.0" y="400" text-anchor="middle" font-family="Arial" font-size="11" fill="#6B7280">2026-06-02</text>
<line x1="760" y1="58" x2="778" y2="58" stroke="#111827" stroke-width="3"/>
<text x="785" y="62" font-family="Arial" font-size="12" fill="#374151">趋势</text>
<line x1="760" y1="78" x2="778" y2="78" stroke="#059669" stroke-width="3"/>
<text x="785" y="82" font-family="Arial" font-size="12" fill="#374151">周季节</text>
<line x1="760" y1="98" x2="778" y2="98" stroke="#D97706" stroke-width="3"/>
<text x="785" y="102" font-family="Arial" font-size="12" fill="#374151">残差(平移)</text>
</svg>