<svg xmlns="http://www.w3.org/2000/svg" width="960" height="420" viewBox="0 0 960 420">
<rect width="100%" height="100%" fill="#ffffff"/>
<text x="70" y="28" font-family="Arial, sans-serif" font-size="20" font-weight="700" fill="#111827">60日预测与不确定性带</text>
<text x="20" y="210.0" transform="rotate(-90 20 210.0)" font-family="Arial, sans-serif" font-size="12" fill="#374151">daily losses</text>
<line x1="70" y1="50.0" x2="930" y2="50.0" stroke="#E5E7EB"/>
<text x="62" y="54.0" text-anchor="end" font-family="Arial" font-size="11" fill="#6B7280">6179</text>
<line x1="70" y1="128.8" x2="930" y2="128.8" stroke="#E5E7EB"/>
<text x="62" y="132.8" text-anchor="end" font-family="Arial" font-size="11" fill="#6B7280">4635</text>
<line x1="70" y1="207.5" x2="930" y2="207.5" stroke="#E5E7EB"/>
<text x="62" y="211.5" text-anchor="end" font-family="Arial" font-size="11" fill="#6B7280">3090</text>
<line x1="70" y1="286.2" x2="930" y2="286.2" stroke="#E5E7EB"/>
<text x="62" y="290.2" text-anchor="end" font-family="Arial" font-size="11" fill="#6B7280">1545</text>
<line x1="70" y1="365.0" x2="930" y2="365.0" stroke="#E5E7EB"/>
<text x="62" y="369.0" text-anchor="end" font-family="Arial" font-size="11" fill="#6B7280">0</text>
<line x1="70" y1="365" x2="930" y2="365" stroke="#9CA3AF"/>
<line x1="70" y1="50" x2="70" y2="365" stroke="#9CA3AF"/>
<polygon points="898.6,161.0 899.2,160.3 899.7,159.6 900.2,158.9 900.8,158.1 901.3,157.2 901.8,156.2 902.4,155.2 902.9,154.1 903.4,153.0 904.0,151.8 904.5,150.6 905.0,149.3 905.6,147.9 906.1,146.5 906.6,145.1 907.1,143.6 907.7,142.1 908.2,140.5 908.7,138.9 909.3,137.3 909.8,135.6 910.3,133.9 910.9,132.2 911.4,130.5 911.9,128.8 912.5,127.0 913.0,125.3 913.5,123.5 914.1,121.7 914.6,119.9 915.1,118.1 915.6,116.3 916.2,114.5 916.7,112.7 917.2,111.0 917.8,109.2 918.3,107.4 918.8,105.7 919.4,103.9 919.9,102.2 920.4,100.5 921.0,98.8 921.5,97.1 922.0,95.4 922.6,93.8 923.1,92.2 923.6,90.6 924.2,89.0 924.7,87.4 925.2,85.9 925.7,84.4 926.3,82.9 926.8,81.4 927.3,80.0 927.9,78.6 928.4,77.3 928.9,75.9 929.5,74.6 930.0,73.3 930.0,343.5 929.5,343.1 928.9,342.7 928.4,342.3 927.9,341.8 927.3,341.4 926.8,340.9 926.3,340.5 925.7,340.0 925.2,339.5 924.7,339.0 924.2,338.5 923.6,337.9 923.1,337.4 922.6,336.9 922.0,336.3 921.5,335.7 921.0,335.1 920.4,334.5 919.9,333.9 919.4,333.3 918.8,332.7 918.3,332.0 917.8,331.4 917.2,330.7 916.7,330.0 916.2,329.3 915.6,328.6 915.1,327.9 914.6,327.2 914.1,326.5 913.5,325.7 913.0,325.0 912.5,324.2 911.9,323.4 911.4,322.7 910.9,321.9 910.3,321.1 909.8,320.3 909.3,319.5 908.7,318.8 908.2,318.0 907.7,317.2 907.1,316.4 906.6,315.7 906.1,314.9 905.6,314.2 905.0,313.4 904.5,312.7 904.0,312.0 903.4,311.4 902.9,310.7 902.4,310.1 901.8,309.5 901.3,308.9 900.8,308.4 900.2,307.9 899.7,307.5 899.2,307.1 898.6,306.7" fill="#DC2626" opacity="0.18"/>
<polyline points="70.0,322.8 70.5,348.5 71.1,364.7 71.6,348.5 72.1,359.9 72.7,359.5 73.2,361.3 73.7,357.8 74.3,363.0 74.8,359.2 75.3,361.8 75.8,360.1 76.4,362.0 76.9,359.9 77.4,358.6 78.0,360.3 78.5,361.3 79.0,361.2 79.6,360.9 80.1,345.5 80.6,358.2 81.2,362.4 81.7,360.3 82.2,360.5 82.8,359.0 83.3,359.8 83.8,361.6 84.4,360.4 84.9,357.4 85.4,360.6 85.9,362.2 86.5,361.7 87.0,361.5 87.5,362.6 88.1,362.4 88.6,361.7 89.1,362.1 89.7,360.2 90.2,362.2 90.7,359.9 91.3,364.2 91.8,360.2 92.3,364.6 92.9,364.2 93.4,361.8 93.9,363.2 94.4,361.4 95.0,361.2 95.5,362.7 96.0,363.8 96.6,363.0 97.1,361.7 97.6,360.4 98.2,362.1 98.7,361.7 99.2,362.2 99.8,360.5 100.3,359.8 100.8,360.6 101.4,362.1 101.9,356.0 102.4,360.5 103.0,358.7 103.5,361.3 104.0,361.7 104.5,355.8 105.1,357.8 105.6,358.4 106.1,359.1 106.7,358.6 107.2,360.2 107.7,361.3 108.3,360.1 108.8,360.9 109.3,360.5 109.9,359.7 110.4,361.5 110.9,360.9 111.5,360.8 112.0,361.7 112.5,361.2 113.1,361.5 113.6,360.0 114.1,361.4 114.6,362.5 115.2,361.8 115.7,361.8 116.2,362.0 116.8,362.3 117.3,363.0 117.8,361.6 118.4,363.6 118.9,363.3 119.4,363.1 120.0,361.9 120.5,361.7 121.0,361.1 121.6,362.1 122.1,362.5 122.6,362.9 123.2,362.1 123.7,361.9 124.2,363.1 124.7,363.0 125.3,363.0 125.8,361.8 126.3,362.8 126.9,362.7 127.4,363.9 127.9,363.2 128.5,362.3 129.0,362.7 129.5,363.1 130.1,362.7 130.6,363.4 131.1,363.3 131.7,361.3 132.2,364.0 132.7,362.8 133.3,364.0 133.8,363.5 134.3,362.6 134.8,361.2 135.4,362.1 135.9,362.8 136.4,363.8 137.0,363.2 137.5,363.8 138.0,364.0 138.6,363.8 139.1,362.8 139.6,362.3 140.2,362.9 140.7,360.7 141.2,364.1 141.8,363.8 142.3,364.2 142.8,364.6 143.3,364.4 143.9,363.0 144.4,362.3 144.9,363.2 145.5,363.5 146.0,363.6 146.5,363.5 147.1,362.6 147.6,363.5 148.1,363.1 148.7,363.3 149.2,362.9 149.7,362.6 150.3,363.4 150.8,363.3 151.3,363.3 151.9,362.9 152.4,362.7 152.9,362.9 153.4,362.9 154.0,364.3 154.5,363.3 155.0,361.5 155.6,363.9 156.1,362.6 156.6,363.5 157.2,362.8 157.7,363.5 158.2,362.0 158.8,362.3 159.3,363.8 159.8,363.2 160.4,363.5 160.9,362.9 161.4,363.3 162.0,363.6 162.5,362.5 163.0,359.4 163.5,362.7 164.1,363.1 164.6,362.9 165.1,364.1 165.7,363.7 166.2,363.6 166.7,363.8 167.3,364.1 167.8,364.0 168.3,362.0 168.9,360.4 169.4,361.2 169.9,360.4 170.5,362.0 171.0,359.3 171.5,361.4 172.1,361.2 172.6,360.3 173.1,359.9 173.6,358.6 174.2,359.7 174.7,360.2 175.2,360.7 175.8,362.0 176.3,361.3 176.8,361.7 177.4,361.9 177.9,362.3 178.4,362.7 179.0,362.7 179.5,364.2 180.0,363.1 180.6,360.8 181.1,361.4 181.6,359.8 182.2,362.1 182.7,360.6 183.2,361.7 183.7,360.9 184.3,362.8 184.8,362.1 185.3,361.3 185.9,361.6 186.4,361.2 186.9,362.6 187.5,360.4 188.0,361.6 188.5,360.8 189.1,359.5 189.6,362.0 190.1,360.9 190.7,361.3 191.2,359.7 191.7,360.9 192.2,358.4 192.8,361.9 193.3,362.5 193.8,362.5 194.4,361.9 194.9,359.5 195.4,361.4 196.0,360.9 196.5,363.7 197.0,362.3 197.6,360.0 198.1,363.0 198.6,361.6 199.2,360.3 199.7,362.8 200.2,362.6 200.8,360.8 201.3,359.4 201.8,361.9 202.3,360.1 202.9,360.8 203.4,360.6 203.9,360.7 204.5,361.9 205.0,363.4 205.5,362.8 206.1,361.3 206.6,361.9 207.1,362.3 207.7,361.9 208.2,360.3 208.7,363.0 209.3,363.0 209.8,360.5 210.3,357.7 210.9,363.9 211.4,363.7 211.9,364.1 212.4,364.6 213.0,364.0 213.5,363.1 214.0,364.2 214.6,361.3 215.1,363.7 215.6,364.5 216.2,364.0 216.7,364.3 217.2,364.0 217.8,363.8 218.3,364.0 218.8,363.3 219.4,363.9 219.9,363.9 220.4,362.7 221.0,360.7 221.5,362.3 222.0,364.4 222.5,364.7 223.1,364.1 223.6,363.9 224.1,362.8 224.7,364.1 225.2,363.7 225.7,362.1 226.3,363.9 226.8,360.5 227.3,364.4 227.9,363.2 228.4,362.3 228.9,362.7 229.5,363.9 230.0,363.6 230.5,363.5 231.1,363.4 231.6,363.5 232.1,364.2 232.6,363.8 233.2,362.6 233.7,359.1 234.2,362.1 234.8,360.5 235.3,361.7 235.8,363.3 236.4,363.6 236.9,363.1 237.4,360.3 238.0,364.5 238.5,364.0 239.0,362.3 239.6,363.6 240.1,363.2 240.6,364.5 241.1,363.8 241.7,363.3 242.2,362.6 242.7,361.6 243.3,363.5 243.8,363.4 244.3,362.2 244.9,363.6 245.4,362.7 245.9,362.8 246.5,363.8 247.0,363.4 247.5,361.5 248.1,360.6 248.6,358.6 249.1,362.2 249.7,362.6 250.2,364.4 250.7,363.8 251.2,363.0 251.8,364.4 252.3,363.8 252.8,363.2 253.4,363.3 253.9,363.0 254.4,362.4 255.0,362.9 255.5,362.9 256.0,363.8 256.6,358.3 257.1,361.3 257.6,364.3 258.2,363.3 258.7,363.8 259.2,363.5 259.8,361.9 260.3,363.0 260.8,363.8 261.3,363.0 261.9,363.5 262.4,363.6 262.9,362.1 263.5,362.4 264.0,362.6 264.5,363.6 265.1,363.6 265.6,363.7 266.1,363.2 266.7,363.1 267.2,362.3 267.7,362.8 268.3,362.7 268.8,362.2 269.3,361.2 269.9,363.5 270.4,363.8 270.9,360.9 271.4,362.4 272.0,363.7 272.5,362.7 273.0,361.3 273.6,362.0 274.1,361.5 274.6,363.1 275.2,363.0 275.7,361.8 276.2,362.8 276.8,362.2 277.3,362.6 277.8,360.6 278.4,361.9 278.9,361.9 279.4,362.5 280.0,363.8 280.5,361.6 281.0,363.7 281.5,363.2 282.1,363.6 282.6,363.8 283.1,363.9 283.7,362.6 284.2,362.9 284.7,363.0 285.3,363.6 285.8,363.3 286.3,363.3 286.9,363.0 287.4,363.3 287.9,361.9 288.5,363.6 289.0,363.4 289.5,363.4 290.0,364.1 290.6,362.8 291.1,362.9 291.6,363.5 292.2,361.7 292.7,362.7 293.2,363.7 293.8,363.5 294.3,363.6 294.8,361.8 295.4,360.2 295.9,362.6 296.4,361.6 297.0,362.8 297.5,362.3 298.0,363.6 298.6,364.1 299.1,363.1 299.6,361.4 300.1,360.4 300.7,360.9 301.2,361.2 301.7,361.2 302.3,361.3 302.8,362.5 303.3,362.1 303.9,362.5 304.4,362.2 304.9,359.8 305.5,360.7 306.0,360.8 306.5,362.1 307.1,360.2 307.6,361.5 308.1,361.7 308.7,360.4 309.2,360.7 309.7,362.1 310.2,359.3 310.8,362.1 311.3,361.3 311.8,362.5 312.4,360.4 312.9,357.6 313.4,359.6 314.0,359.1 314.5,361.8 315.0,362.9 315.6,359.5 316.1,357.7 316.6,361.3 317.2,361.4 317.7,356.8 318.2,359.9 318.8,358.7 319.3,359.0 319.8,361.0 320.3,357.9 320.9,363.1 321.4,363.1 321.9,360.9 322.5,361.1 323.0,360.7 323.5,358.9 324.1,361.5 324.6,360.2 325.1,359.7 325.7,358.3 326.2,361.7 326.7,359.3 327.3,359.7 327.8,360.7 328.3,361.6 328.9,360.5 329.4,363.5 329.9,361.6 330.4,363.2 331.0,360.5 331.5,360.0 332.0,360.0 332.6,360.4 333.1,359.9 333.6,359.7 334.2,360.9 334.7,361.4 335.2,360.5 335.8,363.6 336.3,360.7 336.8,360.9 337.4,360.3 337.9,359.4 338.4,361.2 338.9,362.2 339.5,360.9 340.0,359.9 340.5,358.8 341.1,359.1 341.6,361.1 342.1,360.9 342.7,360.5 343.2,361.5 343.7,360.5 344.3,361.3 344.8,360.0 345.3,361.3 345.9,363.7 346.4,361.5 346.9,361.6 347.5,360.3 348.0,361.0 348.5,358.8 349.0,360.5 349.6,360.6 350.1,360.7 350.6,360.5 351.2,362.2 351.7,360.9 352.2,361.5 352.8,360.4 353.3,362.9 353.8,361.8 354.4,360.4 354.9,359.0 355.4,359.6 356.0,360.2 356.5,361.3 357.0,362.1 357.6,360.0 358.1,361.5 358.6,359.8 359.1,360.7 359.7,360.3 360.2,361.1 360.7,359.9 361.3,360.2 361.8,362.0 362.3,358.8 362.9,359.4 363.4,358.4 363.9,360.2 364.5,358.9 365.0,358.9 365.5,357.8 366.1,358.8 366.6,360.9 367.1,358.0 367.7,357.0 368.2,358.4 368.7,360.0 369.2,358.8 369.8,358.7 370.3,359.7 370.8,357.6 371.4,359.6 371.9,360.5 372.4,362.6 373.0,359.5 373.5,358.7 374.0,358.3 374.6,358.2 375.1,358.6 375.6,359.5 376.2,361.2 376.7,361.3 377.2,358.5 377.8,359.9 378.3,360.4 378.8,359.4 379.3,360.3 379.9,359.0 380.4,358.9 380.9,359.0 381.5,357.1 382.0,360.0 382.5,357.8 383.1,356.9 383.6,359.6 384.1,364.5 384.7,362.6 385.2,355.4 385.7,356.4 386.3,356.3 386.8,360.5 387.3,359.9 387.8,358.6 388.4,360.1 388.9,362.3 389.4,358.5 390.0,352.3 390.5,359.6 391.0,361.0 391.6,360.4 392.1,359.3 392.6,358.7 393.2,358.2 393.7,363.5 394.2,360.5 394.8,363.1 395.3,360.3 395.8,357.5 396.4,358.2 396.9,355.8 397.4,358.3 397.9,356.8 398.5,361.5 399.0,362.0 399.5,361.3 400.1,358.6 400.6,357.5 401.1,362.6 401.7,356.0 402.2,359.1 402.7,363.5 403.3,361.1 403.8,356.2 404.3,358.3 404.9,359.4 405.4,361.6 405.9,358.7 406.5,363.6 407.0,363.7 407.5,360.7 408.0,357.4 408.6,358.1 409.1,361.3 409.6,356.0 410.2,363.7 410.7,364.5 411.2,356.1 411.8,361.5 412.3,357.7 412.8,361.8 413.4,362.5 413.9,361.7 414.4,359.6 415.0,354.7 415.5,358.3 416.0,360.0 416.6,363.0 417.1,362.5 417.6,360.3 418.1,361.6 418.7,361.7 419.2,359.4 419.7,359.2 420.3,362.3 420.8,355.4 421.3,353.9 421.9,360.8 422.4,359.5 422.9,357.4 423.5,359.5 424.0,356.8 424.5,359.7 425.1,355.8 425.6,357.7 426.1,360.4 426.7,356.6 427.2,357.8 427.7,355.2 428.2,357.1 428.8,357.0 429.3,356.4 429.8,356.0 430.4,359.4 430.9,358.7 431.4,361.2 432.0,357.6 432.5,361.4 433.0,362.2 433.6,361.6 434.1,361.2 434.6,362.0 435.2,360.9 435.7,358.5 436.2,359.9 436.7,357.2 437.3,361.2 437.8,355.9 438.3,358.9 438.9,362.1 439.4,362.5 439.9,359.0 440.5,354.2 441.0,353.6 441.5,354.1 442.1,361.7 442.6,362.8 443.1,361.0 443.7,359.2 444.2,357.0 444.7,357.1 445.3,357.6 445.8,357.7 446.3,359.7 446.8,359.6 447.4,362.2 447.9,358.8 448.4,360.5 449.0,358.0 449.5,359.4 450.0,359.3 450.6,361.0 451.1,360.4 451.6,359.2 452.2,354.6 452.7,356.1 453.2,358.4 453.8,360.7 454.3,357.0 454.8,358.9 455.4,355.1 455.9,352.5 456.4,354.9 456.9,356.3 457.5,358.7 458.0,359.8 458.5,358.8 459.1,360.3 459.6,358.4 460.1,356.2 460.7,356.0 461.2,354.6 461.7,356.7 462.3,359.9 462.8,356.5 463.3,352.7 463.9,354.2 464.4,356.3 464.9,353.5 465.5,354.5 466.0,354.0 466.5,357.2 467.0,357.3 467.6,360.6 468.1,360.0 468.6,358.8 469.2,358.5 469.7,355.7 470.2,357.9 470.8,360.9 471.3,359.7 471.8,355.4 472.4,351.9 472.9,354.0 473.4,356.7 474.0,358.6 474.5,358.9 475.0,357.3 475.6,355.4 476.1,356.5 476.6,356.1 477.1,357.7 477.7,358.3 478.2,359.1 478.7,358.2 479.3,352.9 479.8,353.2 480.3,350.6 480.9,356.6 481.4,354.3 481.9,354.7 482.5,356.9 483.0,355.5 483.5,354.3 484.1,356.2 484.6,356.5 485.1,359.7 485.6,361.6 486.2,361.7 486.7,358.3 487.2,357.7 487.8,354.6 488.3,361.2 488.8,359.6 489.4,357.5 489.9,358.5 490.4,359.0 491.0,358.3 491.5,357.5 492.0,358.4 492.6,358.3 493.1,360.8 493.6,357.2 494.2,355.8 494.7,354.8 495.2,353.4 495.7,355.3 496.3,357.2 496.8,359.0 497.3,353.0 497.9,353.9 498.4,353.3 498.9,356.3 499.5,355.5 500.0,356.4 500.5,356.2 501.1,355.6 501.6,355.6 502.1,354.7 502.7,353.0 503.2,352.3 503.7,353.3 504.3,355.3 504.8,354.8 505.3,356.9 505.8,359.3 506.4,359.7 506.9,356.3 507.4,356.1 508.0,355.6 508.5,357.1 509.0,354.4 509.6,353.9 510.1,348.0 510.6,354.9 511.2,354.2 511.7,355.2 512.2,353.5 512.8,355.0 513.3,354.9 513.8,353.0 514.4,356.0 514.9,354.8 515.4,357.3 515.9,356.1 516.5,355.5 517.0,353.8 517.5,358.0 518.1,361.0 518.6,358.1 519.1,356.7 519.7,356.3 520.2,356.7 520.7,358.8 521.3,354.2 521.8,355.7 522.3,357.2 522.9,358.1 523.4,357.1 523.9,353.7 524.4,355.9 525.0,354.0 525.5,353.7 526.0,355.6 526.6,355.0 527.1,354.7 527.6,355.0 528.2,352.9 528.7,355.9 529.2,356.1 529.8,354.0 530.3,356.1 530.8,355.6 531.4,354.5 531.9,355.3 532.4,354.2 533.0,354.0 533.5,354.7 534.0,356.5 534.5,353.7 535.1,354.8 535.6,357.1 536.1,353.3 536.7,350.3 537.2,355.5 537.7,354.0 538.3,352.8 538.8,355.3 539.3,353.6 539.9,355.2 540.4,353.9 540.9,355.0 541.5,358.1 542.0,350.1 542.5,357.1 543.1,354.7 543.6,353.5 544.1,353.8 544.6,357.5 545.2,351.8 545.7,354.4 546.2,355.7 546.8,352.9 547.3,355.5 547.8,353.9 548.4,357.8 548.9,353.5 549.4,354.8 550.0,351.6 550.5,354.0 551.0,354.5 551.6,354.4 552.1,351.8 552.6,354.3 553.2,352.1 553.7,356.6 554.2,356.2 554.7,354.5 555.3,354.7 555.8,346.2 556.3,355.0 556.9,357.9 557.4,355.1 557.9,357.0 558.5,356.7 559.0,358.8 559.5,356.0 560.1,357.0 560.6,357.1 561.1,355.0 561.7,357.9 562.2,355.2 562.7,359.0 563.3,355.8 563.8,355.1 564.3,352.6 564.8,350.3 565.4,355.3 565.9,355.4 566.4,360.5 567.0,359.4 567.5,358.8 568.0,356.4 568.6,354.1 569.1,350.2 569.6,350.5 570.2,350.7 570.7,351.3 571.2,349.6 571.8,348.4 572.3,350.4 572.8,350.8 573.3,350.0 573.9,356.5 574.4,351.7 574.9,357.3 575.5,356.0 576.0,350.3 576.5,352.2 577.1,352.4 577.6,350.6 578.1,353.6 578.7,358.2 579.2,355.5 579.7,351.2 580.3,346.7 580.8,354.4 581.3,360.4 581.9,359.2 582.4,356.0 582.9,352.6 583.4,353.3 584.0,355.5 584.5,356.3 585.0,354.3 585.6,352.8 586.1,350.2 586.6,352.0 587.2,352.2 587.7,352.4 588.2,352.8 588.8,350.7 589.3,353.0 589.8,354.3 590.4,349.0 590.9,357.1 591.4,355.8 592.0,356.0 592.5,353.0 593.0,356.8 593.5,357.4 594.1,355.7 594.6,349.8 595.1,355.6 595.7,352.9 596.2,351.1 596.7,350.7 597.3,350.3 597.8,348.7 598.3,355.7 598.9,356.6 599.4,353.7 599.9,344.5 600.5,351.1 601.0,350.7 601.5,352.8 602.1,361.8 602.6,351.7 603.1,362.9 603.6,352.0 604.2,354.1 604.7,352.8 605.2,357.9 605.8,347.7 606.3,351.8 606.8,358.7 607.4,352.3 607.9,357.1 608.4,356.1 609.0,355.5 609.5,355.8 610.0,360.0 610.6,360.3 611.1,361.4 611.6,361.0 612.2,361.5 612.7,360.1 613.2,357.0 613.7,358.8 614.3,341.1 614.8,356.6 615.3,358.3 615.9,357.0 616.4,356.3 616.9,351.0 617.5,352.4 618.0,354.3 618.5,356.1 619.1,357.7 619.6,358.5 620.1,353.9 620.7,356.5 621.2,358.1 621.7,356.5 622.2,352.5 622.8,357.1 623.3,358.8 623.8,356.7 624.4,359.4 624.9,353.2 625.4,352.4 626.0,343.5 626.5,347.3 627.0,357.9 627.6,352.8 628.1,353.2 628.6,355.1 629.2,356.1 629.7,346.2 630.2,353.9 630.8,344.6 631.3,346.6 631.8,353.9 632.3,359.1 632.9,357.0 633.4,348.7 633.9,343.4 634.5,345.8 635.0,353.6 635.5,355.2 636.1,355.3 636.6,358.9 637.1,356.6 637.7,354.6 638.2,353.7 638.7,355.8 639.3,353.8 639.8,350.8 640.3,352.4 640.9,350.0 641.4,348.4 641.9,348.1 642.4,349.6 643.0,351.0 643.5,351.6 644.0,351.4 644.6,349.2 645.1,344.9 645.6,345.7 646.2,343.0 646.7,343.1 647.2,347.9 647.8,354.0 648.3,345.5 648.8,347.8 649.4,342.4 649.9,344.8 650.4,346.3 651.0,345.8 651.5,350.0 652.0,345.2 652.5,349.4 653.1,345.4 653.6,346.0 654.1,339.7 654.7,348.5 655.2,344.5 655.7,351.8 656.3,352.6 656.8,353.6 657.3,354.3 657.9,354.3 658.4,347.5 658.9,343.8 659.5,339.3 660.0,342.2 660.5,352.9 661.1,356.1 661.6,348.2 662.1,352.5 662.6,344.4 663.2,353.6 663.7,348.1 664.2,349.6 664.8,346.2 665.3,339.5 665.8,336.9 666.4,339.8 666.9,345.7 667.4,349.6 668.0,356.1 668.5,346.5 669.0,336.7 669.6,344.3 670.1,348.0 670.6,356.1 671.1,356.7 671.7,357.8 672.2,351.8 672.7,354.1 673.3,348.1 673.8,351.8 674.3,355.6 674.9,353.8 675.4,352.7 675.9,346.5 676.5,346.3 677.0,351.0 677.5,344.2 678.1,343.5 678.6,341.8 679.1,345.1 679.7,344.6 680.2,332.3 680.7,343.6 681.2,353.2 681.8,360.2 682.3,349.2 682.8,344.2 683.4,348.4 683.9,344.2 684.4,347.3 685.0,349.4 685.5,353.5 686.0,349.9 686.6,349.0 687.1,349.0 687.6,347.8 688.2,349.6 688.7,340.6 689.2,349.6 689.8,348.6 690.3,347.5 690.8,348.3 691.3,354.5 691.9,354.7 692.4,353.9 692.9,344.4 693.5,348.9 694.0,351.0 694.5,345.5 695.1,346.0 695.6,349.8 696.1,352.7 696.7,352.7 697.2,350.2 697.7,356.1 698.3,352.5 698.8,347.9 699.3,336.2 699.9,344.8 700.4,340.8 700.9,348.9 701.4,357.8 702.0,356.4 702.5,355.6 703.0,348.8 703.6,347.5 704.1,341.7 704.6,345.8 705.2,344.7 705.7,353.5 706.2,348.2 706.8,332.7 707.3,345.8 707.8,347.3 708.4,343.3 708.9,343.0 709.4,348.1 710.0,353.3 710.5,352.3 711.0,352.1 711.5,354.2 712.1,350.7 712.6,343.6 713.1,352.3 713.7,354.2 714.2,351.5 714.7,348.1 715.3,348.1 715.8,347.7 716.3,348.7 716.9,351.0 717.4,355.1 717.9,343.2 718.5,350.9 719.0,347.4 719.5,350.1 720.0,354.3 720.6,354.1 721.1,345.5 721.6,338.3 722.2,346.2 722.7,344.7 723.2,349.5 723.8,343.4 724.3,341.2 724.8,347.5 725.4,346.3 725.9,341.9 726.4,350.4 727.0,343.1 727.5,343.5 728.0,341.9 728.6,349.4 729.1,348.1 729.6,340.6 730.1,344.7 730.7,343.5 731.2,352.2 731.7,353.7 732.3,348.9 732.8,348.0 733.3,347.3 733.9,347.3 734.4,348.2 734.9,354.9 735.5,349.9 736.0,351.0 736.5,349.2 737.1,346.7 737.6,354.8 738.1,349.4 738.7,347.6 739.2,347.2 739.7,343.1 740.2,348.7 740.8,347.4 741.3,346.0 741.8,352.1 742.4,355.7 742.9,343.6 743.4,347.8 744.0,347.6 744.5,347.8 745.0,348.5 745.6,344.6 746.1,341.3 746.6,340.6 747.2,338.7 747.7,351.4 748.2,352.5 748.8,343.0 749.3,353.1 749.8,346.7 750.3,339.5 750.9,333.1 751.4,339.8 751.9,338.3 752.5,345.7 753.0,348.8 753.5,339.5 754.1,343.3 754.6,343.7 755.1,343.7 755.7,341.7 756.2,335.2 756.7,347.8 757.3,341.3 757.8,342.2 758.3,345.5 758.9,338.9 759.4,344.2 759.9,342.3 760.4,343.8 761.0,338.9 761.5,337.1 762.0,350.8 762.6,338.3 763.1,330.0 763.6,335.7 764.2,330.8 764.7,338.5 765.2,335.1 765.8,343.0 766.3,339.6 766.8,332.4 767.4,322.4 767.9,343.3 768.4,349.8 768.9,348.8 769.5,345.6 770.0,336.9 770.5,345.7 771.1,339.4 771.6,341.7 772.1,339.0 772.7,344.6 773.2,346.9 773.7,347.8 774.3,347.4 774.8,346.2 775.3,336.0 775.9,335.4 776.4,332.6 776.9,328.4 777.5,330.4 778.0,333.3 778.5,337.5 779.0,342.7 779.6,350.6 780.1,325.1 780.6,334.0 781.2,341.6 781.7,348.1 782.2,328.0 782.8,350.4 783.3,343.5 783.8,339.5 784.4,321.5 784.9,343.1 785.4,339.6 786.0,336.3 786.5,336.0 787.0,339.5 787.6,350.8 788.1,348.1 788.6,347.3 789.1,336.6 789.7,357.0 790.2,348.9 790.7,351.3 791.3,352.0 791.8,335.7 792.3,332.2 792.9,338.8 793.4,349.2 793.9,347.1 794.5,346.4 795.0,338.7 795.5,352.9 796.1,348.8 796.6,333.6 797.1,336.2 797.7,335.0 798.2,317.4 798.7,347.0 799.2,357.1 799.8,355.3 800.3,333.7 800.8,348.1 801.4,358.6 801.9,356.7 802.4,344.3 803.0,336.6 803.5,331.6 804.0,329.0 804.6,334.6 805.1,338.3 805.6,349.1 806.2,351.1 806.7,344.9 807.2,343.2 807.8,336.9 808.3,317.0 808.8,329.2 809.3,344.2 809.9,340.3 810.4,336.1 810.9,338.7 811.5,354.9 812.0,355.4 812.5,333.4 813.1,299.8 813.6,323.2 814.1,324.3 814.7,343.6 815.2,318.5 815.7,342.5 816.3,337.0 816.8,311.0 817.3,314.6 817.8,323.6 818.4,330.7 818.9,345.6 819.4,318.4 820.0,309.2 820.5,336.4 821.0,346.1 821.6,323.8 822.1,325.3 822.6,321.8 823.2,340.4 823.7,306.8 824.2,293.4 824.8,302.9 825.3,325.7 825.8,320.1 826.4,314.5 826.9,315.0 827.4,304.2 827.9,298.3 828.5,318.2 829.0,332.9 829.5,319.2 830.1,313.2 830.6,308.8 831.1,310.4 831.7,308.0 832.2,310.1 832.7,328.9 833.3,324.9 833.8,350.4 834.3,300.7 834.9,294.2 835.4,279.2 835.9,282.3 836.5,311.6 837.0,301.0 837.5,336.1 838.0,337.2 838.6,292.5 839.1,270.5 839.6,278.9 840.2,292.0 840.7,310.4 841.2,330.7 841.8,323.9 842.3,329.5 842.8,256.8 843.4,337.0 843.9,332.4 844.4,275.3 845.0,264.7 845.5,263.5 846.0,266.1 846.6,310.5 847.1,323.9 847.6,310.9 848.1,273.0 848.7,264.4 849.2,255.6 849.7,271.1 850.3,264.2 850.8,250.0 851.3,269.2 851.9,258.4 852.4,215.2 852.9,237.5 853.5,237.9 854.0,237.1 854.5,241.3 855.1,246.3 855.6,242.9 856.1,253.7 856.7,262.0 857.2,256.1 857.7,290.5 858.2,284.2 858.8,274.1 859.3,264.4 859.8,260.6 860.4,254.6 860.9,301.5 861.4,225.4 862.0,247.9 862.5,236.6 863.0,271.9 863.6,251.9 864.1,226.8 864.6,234.1 865.2,244.9 865.7,224.3 866.2,289.1 866.7,227.1 867.3,226.9 867.8,248.7 868.3,249.3 868.9,248.9 869.4,235.7 869.9,239.3 870.5,248.9 871.0,243.5 871.5,275.0 872.1,227.0 872.6,278.4 873.1,281.7 873.7,221.9 874.2,243.4 874.7,246.4 875.3,279.4 875.8,253.5 876.3,302.1 876.8,252.1 877.4,296.3 877.9,290.2 878.4,237.5 879.0,299.4 879.5,295.1 880.0,258.7 880.6,271.3 881.1,240.8 881.6,229.6 882.2,166.4 882.7,228.6 883.2,249.2 883.8,241.1 884.3,254.9 884.8,249.0 885.4,265.7 885.9,272.6 886.4,268.8 886.9,289.7 887.5,252.8 888.0,231.5 888.5,259.8 889.1,253.3 889.6,234.1 890.1,268.7 890.7,237.5 891.2,251.8 891.7,263.9 892.3,259.3 892.8,257.3 893.3,252.1 893.9,245.0 894.4,250.2 894.9,281.7 895.5,269.1 896.0,256.9 896.5,244.5 897.0,236.5 897.6,247.4 898.1,252.7" fill="none" stroke="#2563EB" stroke-width="2.2"/>
<polyline points="898.6,255.9 899.2,256.1 899.7,256.3 900.2,256.5 900.8,256.8 901.3,257.1 901.8,257.4 902.4,257.7 902.9,258.0 903.4,258.4 904.0,258.7 904.5,259.1 905.0,259.5 905.6,259.9 906.1,260.4 906.6,260.8 907.1,261.3 907.7,261.7 908.2,262.2 908.7,262.7 909.3,263.2 909.8,263.7 910.3,264.3 910.9,264.8 911.4,265.3 911.9,265.9 912.5,266.4 913.0,267.0 913.5,267.6 914.1,268.1 914.6,268.7 915.1,269.3 915.6,269.9 916.2,270.5 916.7,271.0 917.2,271.6 917.8,272.2 918.3,272.8 918.8,273.4 919.4,274.0 919.9,274.6 920.4,275.2 921.0,275.8 921.5,276.4 922.0,277.0 922.6,277.6 923.1,278.2 923.6,278.8 924.2,279.4 924.7,280.0 925.2,280.6 925.7,281.2 926.3,281.7 926.8,282.3 927.3,282.9 927.9,283.5 928.4,284.1 928.9,284.6 929.5,285.2 930.0,285.8" fill="none" stroke="#DC2626" stroke-width="2.2"/>
<polyline points="898.6,256.0 899.2,257.1 899.7,253.6 900.2,250.3 900.8,248.3 901.3,248.4 901.8,250.1 902.4,251.1 902.9,251.3 903.4,250.7 904.0,249.7 904.5,248.9 905.0,248.6 905.6,248.7 906.1,248.8 906.6,248.8 907.1,248.5 907.7,248.1 908.2,247.8 908.7,247.5 909.3,247.3 909.8,247.1 910.3,247.0 910.9,246.7 911.4,246.5 911.9,246.2 912.5,246.0 913.0,245.7 913.5,245.5 914.1,245.3 914.6,245.1 915.1,244.8 915.6,244.6 916.2,244.4 916.7,244.1 917.2,243.9 917.8,243.7 918.3,243.4 918.8,243.2 919.4,243.0 919.9,242.7 920.4,242.5 921.0,242.2 921.5,242.0 922.0,241.8 922.6,241.5 923.1,241.3 923.6,241.0 924.2,240.8 924.7,240.6 925.2,240.3 925.7,240.1 926.3,239.8 926.8,239.6 927.3,239.3 927.9,239.1 928.4,238.9 928.9,238.6 929.5,238.4 930.0,238.1" fill="none" stroke="#111827" stroke-width="2.2"/>
<text x="70.0" y="400" text-anchor="middle" font-family="Arial" font-size="11" fill="#6B7280">2022-02-25</text>
<text x="284.7" y="400" text-anchor="middle" font-family="Arial" font-size="11" fill="#6B7280">2023-04-05</text>
<text x="500.0" y="400" text-anchor="middle" font-family="Arial" font-size="11" fill="#6B7280">2024-05-14</text>
<text x="714.7" y="400" text-anchor="middle" font-family="Arial" font-size="11" fill="#6B7280">2025-06-22</text>
<text x="930.0" y="400" text-anchor="middle" font-family="Arial" font-size="11" fill="#6B7280">2026-08-01</text>
<line x1="760" y1="58" x2="778" y2="58" stroke="#2563EB" stroke-width="3"/>
<text x="785" y="62" font-family="Arial" font-size="12" fill="#374151">历史</text>
<line x1="760" y1="78" x2="778" y2="78" stroke="#DC2626" stroke-width="3"/>
<text x="785" y="82" font-family="Arial" font-size="12" fill="#374151">GP-Matern32</text>
<line x1="760" y1="98" x2="778" y2="98" stroke="#111827" stroke-width="3"/>
<text x="785" y="102" font-family="Arial" font-size="12" fill="#374151">ARIMA</text>
</svg>